<?xml version="1.0" encoding="utf-8"?>
<!-- Generator: Adobe Illustrator 21.0.2, SVG Export Plug-In . SVG Version: 6.00 Build 0)  -->
<svg version="1.0" id="Layer_1" xmlns="http://www.w3.org/2000/svg" xmlns:xlink="http://www.w3.org/1999/xlink" x="0px" y="0px"
	 viewBox="0 0 175 175" style="enable-background:new 0 0 175 175;" xml:space="preserve">
<style type="text/css">
	.st0{fill:url(#SVGID_1_);}
	.st1{fill:#4FC3F7;}
	.st2{fill:url(#SVGID_2_);}
	.st3{opacity:0.2;fill:#424242;}
	.st4{fill:url(#SVGID_3_);}
	.st5{fill:url(#SVGID_4_);}
	.st6{fill:url(#SVGID_5_);}
	.st7{opacity:0.2;}
	.st8{fill:#424242;}
	.st9{fill:url(#SVGID_6_);}
	.st10{fill:url(#SVGID_7_);}
	.st11{opacity:0.3;fill:#EEEEEE;enable-background:new    ;}
	.st12{fill:#A1772B;}
	.st13{fill:#B9BABC;}
	.st14{fill:#EEEEEE;}
	.st15{fill:#9E9E9E;}
	.st16{opacity:0.3;fill:#B9BABC;enable-background:new    ;}
	.st17{fill:#432F13;}
</style>
<radialGradient id="SVGID_1_" cx="52" cy="161.25" r="107.48" gradientTransform="matrix(1 0 0 -1 0 224)" gradientUnits="userSpaceOnUse">
	<stop  offset="0" style="stop-color:#EEEEEE"/>
	<stop  offset="3.564215e-03" style="stop-color:#EEEEEE"/>
	<stop  offset="0.5153" style="stop-color:#FFFFFF"/>
	<stop  offset="1" style="stop-color:#BDBDBD"/>
</radialGradient>
<path class="st0" d="M96,171H8V55c0-2.2,1.8-4,4-4h80c2.2,0,4,1.8,4,4V171z"/>
<path class="st1" d="M34.1,121.3h-14c-1.9,0-3.5-1.4-3.5-3.2v-12.8c0-1.8,1.6-3.2,3.5-3.2h14c1.9,0,3.5,1.4,3.5,3.2v12.8
	C37.6,119.8,36,121.3,34.1,121.3z"/>
<path class="st1" d="M81,92H67c-1.9,0-3.5-1.4-3.5-3.2V76c0-1.8,1.6-3.2,3.5-3.2h14c1.9,0,3.5,1.4,3.5,3.2v12.8
	C84.5,90.6,82.9,92,81,92z"/>
<radialGradient id="SVGID_2_" cx="137.8628" cy="161.25" r="107.48" gradientTransform="matrix(0.8538 0 0 -1 13.7198 221.8703)" gradientUnits="userSpaceOnUse">
	<stop  offset="0" style="stop-color:#EEEEEE"/>
	<stop  offset="3.564215e-03" style="stop-color:#EEEEEE"/>
	<stop  offset="0.5153" style="stop-color:#FFFFFF"/>
	<stop  offset="1" style="stop-color:#BDBDBD"/>
</radialGradient>
<path class="st2" d="M169,149.3H93.9v-95c0-1.8,1.5-3.3,3.4-3.3h68.3c1.9,0,3.4,1.5,3.4,3.3V149.3z"/>
<path class="st3" d="M169,54.3c0-1.8-1.5-3.3-3.5-3.3H96.5c-0.8,0-3.6,0-4.5,0H12c-2.2,0-4,1.8-4,4v116h88v-21.8h73V54.3z M93,168
	H11V55c0-0.5,0.5-1,1-1h80c0.5,0,1,0.5,1,1v94.3V168z M166.4,146.8H96V55c0-0.4,0.2-1.5,0.5-1.5h69.1c0.5,0,0.9,0.4,0.9,0.8V146.8z"
	/>
<linearGradient id="SVGID_3_" gradientUnits="userSpaceOnUse" x1="32.2756" y1="154.2857" x2="32.2756" y2="132" gradientTransform="matrix(1 0 0 -1 0 224)">
	<stop  offset="0" style="stop-color:#81D4FA"/>
	<stop  offset="0.5582" style="stop-color:#4FC3F7"/>
	<stop  offset="1" style="stop-color:#29B6F6"/>
</linearGradient>
<path class="st4" d="M48.5,90.2c0,1-0.8,1.8-1.8,1.8h-28c-1.5,0-2.7-0.8-2.7-1.9V71.6c0-1,1.2-1.9,2.7-1.9h28c1,0,1.8,0.8,1.8,1.8
	V90.2z"/>
<linearGradient id="SVGID_4_" gradientUnits="userSpaceOnUse" x1="131.4314" y1="154.2857" x2="131.4314" y2="132" gradientTransform="matrix(1 0 0 -1 0 224)">
	<stop  offset="0" style="stop-color:#81D4FA"/>
	<stop  offset="0.5582" style="stop-color:#4FC3F7"/>
	<stop  offset="1" style="stop-color:#29B6F6"/>
</linearGradient>
<path class="st5" d="M147.7,90.1c0,1.1-0.9,1.9-1.9,1.9h-27.8c-1.5,0-2.7-0.8-2.7-1.9V71.6c0-1,1.2-1.9,2.7-1.9h27.8
	c1.1,0,1.9,0.9,1.9,1.9V90.1z"/>
<linearGradient id="SVGID_5_" gradientUnits="userSpaceOnUse" x1="73.4754" y1="97.2018" x2="73.4754" y2="59.4552" gradientTransform="matrix(1 0 0 -1 0 224)">
	<stop  offset="0" style="stop-color:#81D4FA"/>
	<stop  offset="0.5582" style="stop-color:#4FC3F7"/>
	<stop  offset="1" style="stop-color:#29B6F6"/>
</linearGradient>
<rect x="55.6" y="125.3" class="st6" width="35.7" height="43.9"/>
<g class="st7">
	<path class="st8" d="M91.3,125.4v43.8H55.6v-43.8H91.3 M93.1,123.5H53.9V171h39.2V123.5z"/>
</g>
<linearGradient id="SVGID_6_" gradientUnits="userSpaceOnUse" x1="131.4314" y1="112.931" x2="131.4314" y2="76.4607" gradientTransform="matrix(1 0 0 -1 0 224)">
	<stop  offset="0" style="stop-color:#EEEEEE"/>
	<stop  offset="3.564215e-03" style="stop-color:#EEEEEE"/>
	<stop  offset="0.5153" style="stop-color:#FFFFFF"/>
	<stop  offset="1" style="stop-color:#BDBDBD"/>
</linearGradient>
<rect x="116.6" y="111.1" class="st9" width="29.6" height="36.5"/>
<g class="st7">
	<path class="st8" d="M146.3,111.1v36.6h-29.6v-36.6H146.3 M147.7,109.6h-32.6v39.7h32.6V109.6z"/>
</g>
<linearGradient id="SVGID_7_" gradientUnits="userSpaceOnUse" x1="31.8504" y1="92.0992" x2="31.8504" y2="55.6289" gradientTransform="matrix(1 0 0 -1 0 224)">
	<stop  offset="0" style="stop-color:#EEEEEE"/>
	<stop  offset="3.564215e-03" style="stop-color:#EEEEEE"/>
	<stop  offset="0.5153" style="stop-color:#FFFFFF"/>
	<stop  offset="1" style="stop-color:#BDBDBD"/>
</linearGradient>
<rect x="17" y="131.9" class="st10" width="29.6" height="36.5"/>
<g class="st7">
	<path class="st8" d="M46.7,131.9v36.6H17v-36.6H46.7 M48.2,130.4H15.5v39.7h32.6V130.4z"/>
</g>
<rect x="73" y="125.3" class="st11" width="1" height="43.7"/>
<rect x="26.7" y="102" class="st11" width="1" height="19.2"/>
<rect x="31.8" y="69.7" class="st11" width="1" height="22.3"/>
<rect x="73.5" y="72.8" class="st11" width="1" height="19.2"/>
<rect x="131" y="69.7" class="st11" width="1" height="22.3"/>
<rect x="96" y="149.3" class="st12" width="73" height="21.8"/>
<path class="st13" d="M7,171H170c2.6,0,4.8,1.7,4.8,3.7H2.2C2.2,172.7,4.3,171,7,171z"/>
<path class="st14" d="M49.6,92.6H14.9v-1.5c0-0.4,0.2-0.7,0.5-0.7h33.8c0.3,0,0.5,0.3,0.5,0.7V92.6z"/>
<path class="st15" d="M38.3,122.4H15.8c-0.4,0-0.7-0.7-0.7-1.5h23.8C38.9,121.8,38.6,122.4,38.3,122.4z"/>
<path class="st14" d="M38.9,121.3H15.1v-1.5c0-0.4,0.1-0.7,0.3-0.7h23.1c0.2,0,0.3,0.3,0.3,0.7V121.3z"/>
<path class="st15" d="M85.2,93.1H62.7c-0.4,0-0.7-0.7-0.7-1.5h23.8C85.9,92.4,85.6,93.1,85.2,93.1z"/>
<path class="st14" d="M85.9,92H62.1v-1.5c0-0.4,0.1-0.7,0.3-0.7h23.1c0.2,0,0.3,0.3,0.3,0.7V92z"/>
<path class="st15" d="M147.6,93.6h-32.8c-0.5,0-1-0.7-1-1.5h34.7C148.6,93,148.1,93.6,147.6,93.6z"/>
<path class="st15" d="M48.7,93.6H15.9c-0.5,0-1-0.7-1-1.5h34.7C49.6,93,49.2,93.6,48.7,93.6z"/>
<path class="st14" d="M148.6,92.5h-34.7V91c0-0.4,0.2-0.7,0.5-0.7h33.8c0.3,0,0.5,0.3,0.5,0.7V92.5z"/>
<rect x="17" y="133.2" class="st16" width="29.6" height="1"/>
<rect x="116.6" y="112" class="st16" width="29.6" height="1"/>
<rect x="116.6" y="114.4" class="st16" width="29.6" height="1"/>
<rect x="116.6" y="116.8" class="st16" width="29.6" height="1"/>
<rect x="116.6" y="119.2" class="st16" width="29.6" height="1"/>
<rect x="116.6" y="121.5" class="st16" width="29.6" height="1"/>
<rect x="116.6" y="123.9" class="st16" width="29.6" height="1"/>
<rect x="116.6" y="126.3" class="st16" width="29.6" height="1"/>
<rect x="116.6" y="128.7" class="st16" width="29.6" height="1"/>
<rect x="116.6" y="131" class="st16" width="29.6" height="1"/>
<rect x="116.6" y="133.4" class="st16" width="29.6" height="1"/>
<rect x="116.6" y="135.8" class="st16" width="29.6" height="1"/>
<rect x="116.6" y="138.2" class="st16" width="29.6" height="1"/>
<rect x="116.6" y="140.6" class="st16" width="29.6" height="1"/>
<rect x="116.6" y="142.9" class="st16" width="29.6" height="1"/>
<rect x="116.6" y="145.3" class="st16" width="29.6" height="1"/>
<rect x="17" y="135.4" class="st16" width="29.6" height="1"/>
<rect x="17" y="137.6" class="st16" width="29.6" height="1"/>
<rect x="17" y="139.9" class="st16" width="29.6" height="1"/>
<rect x="17" y="142.1" class="st16" width="29.6" height="1"/>
<rect x="17" y="144.3" class="st16" width="29.6" height="1"/>
<rect x="17" y="146.5" class="st16" width="29.6" height="1"/>
<rect x="17" y="148.8" class="st16" width="29.6" height="1"/>
<rect x="17" y="151" class="st16" width="29.6" height="1"/>
<rect x="17" y="153.2" class="st16" width="29.6" height="1"/>
<rect x="17" y="155.4" class="st16" width="29.6" height="1"/>
<rect x="17" y="157.6" class="st16" width="29.6" height="1"/>
<rect x="17" y="159.5" class="st16" width="29.6" height="1"/>
<rect x="17" y="161.5" class="st16" width="29.6" height="1"/>
<rect x="17" y="163.7" class="st16" width="29.6" height="1"/>
<rect x="17" y="165.9" class="st16" width="29.6" height="1"/>
<rect x="96" y="149.3" class="st17" width="5.6" height="5.5"/>
<rect x="101.6" y="154.8" class="st17" width="5.6" height="5.5"/>
<rect x="96" y="159.9" class="st17" width="5.6" height="5.5"/>
<rect x="101.6" y="165.5" class="st17" width="5.6" height="5.5"/>
<rect x="107.2" y="149.3" class="st17" width="5.6" height="5.5"/>
<rect x="112.8" y="154.8" class="st17" width="5.6" height="5.5"/>
<rect x="107.2" y="159.9" class="st17" width="5.6" height="5.5"/>
<rect x="112.8" y="165.5" class="st17" width="5.6" height="5.5"/>
<rect x="118.5" y="149.3" class="st17" width="5.6" height="5.5"/>
<rect x="124.1" y="154.8" class="st17" width="5.6" height="5.5"/>
<rect x="118.5" y="159.9" class="st17" width="5.6" height="5.5"/>
<rect x="124.1" y="165.5" class="st17" width="5.6" height="5.5"/>
<rect x="129.7" y="149.3" class="st17" width="5.6" height="5.5"/>
<rect x="135.3" y="154.8" class="st17" width="5.6" height="5.5"/>
<rect x="129.7" y="159.9" class="st17" width="5.6" height="5.5"/>
<rect x="135.3" y="165.5" class="st17" width="5.6" height="5.5"/>
<rect x="140.9" y="149.3" class="st17" width="5.6" height="5.5"/>
<rect x="146.5" y="154.8" class="st17" width="5.6" height="5.5"/>
<rect x="140.9" y="159.9" class="st17" width="5.6" height="5.5"/>
<rect x="146.5" y="165.5" class="st17" width="5.6" height="5.5"/>
<rect x="152.2" y="149.3" class="st17" width="5.6" height="5.5"/>
<rect x="157.8" y="154.8" class="st17" width="5.6" height="5.5"/>
<rect x="152.2" y="159.9" class="st17" width="5.6" height="5.5"/>
<rect x="157.8" y="165.5" class="st17" width="5.6" height="5.5"/>
<rect x="163.4" y="149.3" class="st17" width="5.6" height="5.5"/>
<rect x="163.4" y="159.9" class="st17" width="5.6" height="5.5"/>
</svg>
