<?xml version="1.0" encoding="utf-8"?>
<!-- Generator: Adobe Illustrator 21.0.2, SVG Export Plug-In . SVG Version: 6.00 Build 0)  -->
<svg version="1.0" id="Layer_1" xmlns="http://www.w3.org/2000/svg" xmlns:xlink="http://www.w3.org/1999/xlink" x="0px" y="0px"
	 viewBox="0 0 128 128" style="enable-background:new 0 0 128 128;" xml:space="preserve">
<style type="text/css">
	.st0{fill:url(#SVGID_1_);}
	.st1{opacity:0.2;}
	.st2{fill:#424242;}
	.st3{fill:#FFFFFF;}
</style>
<radialGradient id="SVGID_1_" cx="63.9072" cy="115.8885" r="76.735" gradientTransform="matrix(0.9985 0 0 -0.9337 -0.398 109.6495)" gradientUnits="userSpaceOnUse">
	<stop  offset="0.4748" style="stop-color:#E53935"/>
	<stop  offset="0.913" style="stop-color:#C62828"/>
</radialGradient>
<path class="st0" d="M93.9,9.1c-21.9,0-30,11.2-30,11.2s-8-11.2-30-11.2c-16.6,0-35.5,13.1-28.5,43c7,29.9,58.3,67,58.3,67
	s0.3-0.1,0.3-0.3c0,0.2,0.2,0.3,0.2,0.3s51.3-37.1,58.3-66.9C129.4,22.2,110.5,9.1,93.9,9.1z"/>
<g class="st1">
	<path class="st2" d="M93.9,12.1c8.4,0,16.4,3.7,21.3,9.8c5.7,7.1,7.2,17.4,4.3,29.5c-6,25.6-47.1,57.7-55.6,64.1
		C55.4,109.1,14.3,77,8.3,51.4C5.5,39.3,7,29.1,12.6,21.9c4.9-6.1,12.8-9.8,21.3-9.8c19.5,0,30,12.5,30,12.5S74.5,12.1,93.9,12.1
		 M93.9,9.1c-23.7,0-30,11.2-30,11.2s-5.6-11.2-30-11.2c-16.6,0-35.5,13.1-28.5,43c7,29.9,58.3,67,58.3,67s0.3-0.1,0.3-0.3
		c0,0.2,0.2,0.3,0.2,0.3s51.3-37.1,58.3-66.9C129.4,22.2,110.5,9.1,93.9,9.1z"/>
</g>
<path class="st3" d="M81.6,35.8c1,0.8,2,1.5,2.9,2.3c2.1,1.8,4,3.9,5.6,6.2c0.2,0.3,0.2,0.4,0,0.7c-0.9,1.2-1.7,2.5-2.6,3.7
	c-0.1,0.1-0.2,0.3-0.3,0.3c-1.6,0.9-3.2,1.8-4.8,2.7c0,0-0.1,0-0.1,0c-3.3-5.2-7.7-8.8-13.8-10c-4.8-1-9.6-0.5-13.9,1.8
	c-8.6,4.6-13,13.6-10.6,23.8c1.7,7.3,9.2,15.7,20.3,15.6c4.7-0.1,8.9-1.4,12.6-4.3c3-2.4,5.3-5.2,6.7-8.8c-2.7,0-5.2,0-7.9,0
	c0,0.4,0,0.9,0,1.3c0,1,0,2,0,3c0,0.2-0.1,0.4-0.2,0.6c-2.1,1.9-4.4,3.2-7.2,3.9c-0.1,0-0.1,0-0.3,0c0-2.9,0-5.8,0-8.8
	c-2.6,0-5.1,0-7.6,0c0,2.9,0,5.8,0,8.8c-0.4-0.1-0.7-0.1-0.9-0.2c-2.5-0.7-4.6-1.9-6.5-3.6c-0.2-0.1-0.3-0.4-0.3-0.6
	c0-1.4,0-2.8,0-4.3c-0.3,0-0.5,0-0.7,0c-0.8,0-1.5,0-2.3,0c-0.4,0-0.6-0.1-0.8-0.5c-1-2.1-1.5-4.4-1.5-6.7c0-0.1,0-0.3,0-0.5
	c1.8,0,3.6,0,5.4,0c0-0.2,0-0.4,0-0.6c0-3.8,0-7.6,0-11.3c0-0.3,0.1-0.5,0.3-0.8c2-1.8,4.2-3,6.8-3.7c0.1,0,0.2,0,0.3-0.1
	c0,0,0.1,0,0.2,0c0,2.7,0,5.5,0,8.2c0,2.7,0,5.4,0,8.2c2.6,0,5.1,0,7.6,0c0-5.4,0-10.9,0-16.4c0.4,0.1,0.8,0.2,1.1,0.3
	c2.4,0.7,4.4,1.9,6.3,3.5c0.2,0.2,0.3,0.4,0.3,0.8c0,3.8,0,7.5,0,11.3c0,0.5,0.1,0.6,0.6,0.6c4.6,0,9.3,0,13.9,0c0.2,0,0.4,0,0.6,0
	c0,0.6,0,1.1,0,1.7c-0.2,4-1.2,7.7-3.2,11.2c-0.1,0.2-0.1,0.4,0.1,0.6c0.8,1.2,1.7,2.4,2.5,3.6c0.1,0.2,0.2,0.4,0,0.6
	c-2.3,3.3-5.2,6.1-8.5,8.4c-0.1,0-0.1,0.1-0.2,0.1c-1.3-0.9-2.6-1.8-3.8-2.7c-0.3-0.2-0.5-0.2-0.7,0c-1.7,1-3.5,1.7-5.3,2.2
	c-0.3,0.1-0.4,0.2-0.4,0.5c-0.2,1.4-0.5,2.8-0.7,4.2c-0.1,0.4-0.2,0.6-0.7,0.6c-3.8,0.6-7.6,0.6-11.5,0c-0.3-0.1-0.5-0.2-0.5-0.5
	c-0.2-1.4-0.5-2.9-0.8-4.3c0-0.2-0.2-0.4-0.4-0.4c-1.9-0.5-3.7-1.3-5.4-2.2c-0.3-0.1-0.4-0.1-0.7,0c-1.2,0.9-2.4,1.7-3.6,2.5
	c-0.2,0.2-0.4,0.2-0.6,0c-3.2-2.3-6-5-8.3-8.3c-0.2-0.2-0.2-0.4,0-0.6c0.9-1.2,1.7-2.4,2.5-3.6c0.2-0.2,0.2-0.4,0-0.6
	c-1-1.7-1.7-3.5-2.2-5.3c-0.1-0.3-0.2-0.5-0.6-0.5c-1.4-0.2-2.8-0.5-4.2-0.7c-0.4-0.1-0.6-0.2-0.6-0.6c-0.6-3.8-0.6-7.7,0-11.5
	c0.1-0.3,0.2-0.5,0.5-0.5c1.4-0.2,2.9-0.5,4.3-0.7c0.3,0,0.4-0.2,0.5-0.4c0.5-1.9,1.2-3.7,2.2-5.4c0.2-0.3,0.1-0.4-0.1-0.7
	c-0.9-1.2-1.7-2.4-2.5-3.6c-0.2-0.2-0.2-0.4,0-0.6c2.3-3.2,5.1-6,8.3-8.3c0.2-0.2,0.4-0.2,0.6,0c1.2,0.9,2.4,1.7,3.6,2.5
	c0.3,0.2,0.4,0.2,0.7,0c1.7-0.9,3.4-1.7,5.2-2.2c0.4-0.1,0.5-0.3,0.5-0.6c0.2-1.4,0.5-2.8,0.7-4.2c0.1-0.3,0.2-0.4,0.5-0.5
	c3.9-0.7,7.8-0.7,11.6,0c0.4,0.1,0.5,0.3,0.5,0.6c0.2,1.4,0.5,2.9,0.8,4.3c0,0.2,0.2,0.4,0.4,0.4c1.9,0.6,3.7,1.3,5.5,2.3
	c0.1,0.1,0.4,0,0.5-0.1C78.9,37.7,80.2,36.8,81.6,35.8z"/>
</svg>
