<?xml version="1.0" encoding="utf-8"?>
<!-- Generator: Adobe Illustrator 21.0.2, SVG Export Plug-In . SVG Version: 6.00 Build 0)  -->
<svg version="1.0" id="Layer_1" xmlns="http://www.w3.org/2000/svg" xmlns:xlink="http://www.w3.org/1999/xlink" x="0px" y="0px"
	 viewBox="0 0 128 128" style="enable-background:new 0 0 128 128;" xml:space="preserve">
<style type="text/css">
	.st0{clip-path:url(#SVGID_2_);}
	.st1{fill:url(#SVGID_3_);}
	.st2{fill:#76FF03;}
	.st3{clip-path:url(#SVGID_5_);}
	.st4{fill:#FFD29C;}
	.st5{fill:#EDBD82;}
	.st6{fill:url(#SVGID_6_);}
	.st7{fill:url(#SVGID_7_);}
	.st8{fill:#312D2D;}
	.st9{fill:url(#SVGID_8_);}
	.st10{fill:#DBA689;}
	.st11{fill:#795548;}
	.st12{fill:url(#SVGID_9_);}
	.st13{fill:#3F2720;}
	.st14{clip-path:url(#SVGID_11_);fill:url(#SVGID_12_);}
	.st15{clip-path:url(#SVGID_14_);}
	.st16{fill:#26A69A;}
	.st17{fill:#00796B;}
	.st18{clip-path:url(#SVGID_16_);}
	.st19{fill:#E3B57C;}
	.st20{clip-path:url(#SVGID_18_);}
	.st21{clip-path:url(#SVGID_20_);}
	.st22{fill:url(#SVGID_21_);}
	.st23{fill:#00B3C1;}
	.st24{fill:#FFFFFF;}
</style>
<g>
	<defs>
		<rect id="SVGID_1_" x="4" y="4" width="120" height="120"/>
	</defs>
	<clipPath id="SVGID_2_">
		<use xlink:href="#SVGID_1_"  style="overflow:visible;"/>
	</clipPath>
	<g class="st0">
		
			<linearGradient id="SVGID_3_" gradientUnits="userSpaceOnUse" x1="64" y1="120.0094" x2="64" y2="43.43" gradientTransform="matrix(1 0 0 -1 0 130)">
			<stop  offset="3.247800e-03" style="stop-color:#424242"/>
			<stop  offset="0.2705" style="stop-color:#353535"/>
			<stop  offset="0.7639" style="stop-color:#131313"/>
			<stop  offset="1" style="stop-color:#000000"/>
		</linearGradient>
		<path class="st1" d="M8,86.5c-1.4,0-2.5-1.1-2.5-2.5V12c0-1.4,1.1-2.5,2.5-2.5h112c1.4,0,2.5,1.1,2.5,2.5v72
			c0,1.4-1.1,2.5-2.5,2.5H8z"/>
		<path d="M120,11c0.6,0,1,0.4,1,1v72c0,0.6-0.4,1-1,1H8c-0.6,0-1-0.4-1-1V12c0-0.6,0.4-1,1-1H120 M120,8H8c-2.2,0-4,1.8-4,4v72
			c0,2.2,1.8,4,4,4h112c2.2,0,4-1.8,4-4V12C124,9.8,122.2,8,120,8z"/>
		<g>
			<rect x="12" y="16" class="st2" width="24" height="4"/>
			<rect x="86" y="16" class="st2" width="16" height="4"/>
			<rect x="108" y="16" class="st2" width="8" height="4"/>
			<rect x="20" y="28" class="st2" width="8" height="4"/>
			<rect x="12" y="40" class="st2" width="16" height="4"/>
			<rect x="12" y="52" class="st2" width="8" height="4"/>
			<rect x="98" y="52" class="st2" width="12" height="4"/>
			<rect x="104" y="40" class="st2" width="12" height="4"/>
			<rect x="12" y="64" class="st2" width="16" height="4"/>
			<rect x="96" y="64" class="st2" width="20" height="4"/>
			<rect x="100" y="28" class="st2" width="12" height="4"/>
		</g>
	</g>
</g>
<g>
	<defs>
		<rect id="SVGID_4_" x="4" y="4" width="120" height="120"/>
	</defs>
	<clipPath id="SVGID_5_">
		<use xlink:href="#SVGID_4_"  style="overflow:visible;"/>
	</clipPath>
	<g class="st3">
		<path class="st4" d="M36.7,72.3c-5.4,0-9.7-4.7-9.7-10.4s4.4-10.4,9.7-10.4h54.7c5.4,0,9.7,4.7,9.7,10.4s-4.4,10.4-9.7,10.4H36.7z
			"/>
		<path class="st5" d="M91.3,52.4c4.8,0,8.7,4.2,8.7,9.4s-3.9,9.4-8.7,9.4H36.7c-4.8,0-8.7-4.2-8.7-9.4s3.9-9.4,8.7-9.4H91.3
			 M91.3,50.4H36.7c-5.9,0-10.7,5.1-10.7,11.4c0,6.3,4.8,11.4,10.7,11.4h54.7c5.9,0,10.7-5.1,10.7-11.4
			C102,55.6,97.2,50.4,91.3,50.4z"/>
		
			<linearGradient id="SVGID_6_" gradientUnits="userSpaceOnUse" x1="64" y1="35.409" x2="64" y2="117.175" gradientTransform="matrix(1 0 0 -1 0 130)">
			<stop  offset="0" style="stop-color:#FFD29C"/>
			<stop  offset="2.370000e-02" style="stop-color:#FFD39E"/>
			<stop  offset="0.3158" style="stop-color:#FCD8AF"/>
			<stop  offset="0.6295" style="stop-color:#FADCBA"/>
			<stop  offset="1" style="stop-color:#F9DDBD"/>
		</linearGradient>
		<path class="st6" d="M64,95.3c-15.7,0-32.5-12.1-32.5-38.8c0-12.4,3.6-23.8,10-32.1c6-7.8,14.3-12.3,22.5-12.3s16.4,4.5,22.5,12.3
			c6.5,8.3,10,19.8,10,32.1c0,12.1-3.5,22.2-10.1,29.2C80.5,91.9,72.6,95.3,64,95.3z"/>
		<path class="st5" d="M64,13.1c7.9,0,15.8,4.3,21.7,11.9c6.3,8.2,9.8,19.4,9.8,31.5c0,11.8-3.4,21.7-9.9,28.5
			C80,91,72.3,94.3,64,94.3S48,91,42.3,85c-6.5-6.8-9.9-16.7-9.9-28.5c0-12.2,3.5-23.4,9.8-31.5C48.1,17.4,56.1,13.1,64,13.1
			 M64,11.1c-17.4,0-33.5,18.6-33.5,45.4c0,26.6,16.6,39.8,33.5,39.8s33.5-13.2,33.5-39.8C97.5,29.7,81.4,11.1,64,11.1z"/>
		
			<radialGradient id="SVGID_7_" cx="47.5783" cy="79.783" r="5.9473" gradientTransform="matrix(1 0 0 -1 0 130)" gradientUnits="userSpaceOnUse">
			<stop  offset="9.049999e-02" style="stop-color:#454140"/>
			<stop  offset="1" style="stop-color:#454140"/>
		</radialGradient>
		<path class="st7" d="M40,50.7c0,0,0.1-0.2,0.4-0.5c0.1-0.1,0.1-0.2,0.2-0.3c0.1-0.1,0.2-0.2,0.4-0.3s0.3-0.2,0.4-0.4
			c0.2-0.1,0.3-0.2,0.5-0.3c0.2-0.1,0.3-0.2,0.5-0.3c0.2-0.1,0.4-0.2,0.6-0.3c0.2-0.1,0.4-0.2,0.7-0.3s0.5-0.2,0.7-0.3
			c0.5-0.1,1-0.3,1.5-0.4c0.5-0.1,1.1-0.1,1.6-0.1c0.5,0,1.1,0,1.6,0.1c0.5,0.1,1,0.2,1.5,0.4c0.2,0.1,0.5,0.2,0.7,0.3
			c0.2,0.1,0.5,0.2,0.7,0.3c0.2,0.1,0.4,0.2,0.6,0.3c0.2,0.1,0.4,0.2,0.5,0.3c0.2,0.1,0.3,0.2,0.5,0.3s0.3,0.2,0.4,0.3
			c0.1,0.1,0.2,0.2,0.3,0.3s0.2,0.2,0.3,0.3c0.3,0.4,0.5,0.6,0.5,0.6c0.5,0.7,0.3,1.7-0.4,2.2c-0.4,0.3-1,0.4-1.4,0.2l-0.3-0.1
			c0,0-0.2-0.1-0.5-0.2c-0.1,0-0.2-0.1-0.3-0.1c-0.1,0-0.2-0.1-0.3-0.1c-0.2-0.1-0.4-0.2-0.7-0.3c-0.1,0-0.3-0.1-0.4-0.1
			c-0.1,0-0.3-0.1-0.4-0.1c-0.1,0-0.2,0-0.2-0.1c-0.1,0-0.2,0-0.2,0c-0.2,0-0.3-0.1-0.5-0.1c-0.3,0-0.7-0.1-1-0.1c-0.3,0-0.7,0-1,0
			c-0.3,0-0.7,0-1,0c-0.3,0-0.7,0.1-1,0.1C45.3,52,45.2,52,45,52c-0.1,0-0.2,0-0.2,0c-0.1,0-0.2,0-0.2,0.1c-0.2,0-0.3,0.1-0.4,0.1
			s-0.3,0.1-0.4,0.1s-0.3,0.1-0.4,0.1c-0.1,0-0.2,0.1-0.3,0.1s-0.2,0.1-0.3,0.1c-0.1,0-0.2,0.1-0.3,0.1C42.2,53,42,53.1,42,53.1
			c-0.8,0.3-1.8,0-2.1-0.9C39.6,51.7,39.7,51.2,40,50.7L40,50.7z"/>
		<ellipse class="st8" cx="47.6" cy="58.8" rx="4.9" ry="5.1"/>
		
			<radialGradient id="SVGID_8_" cx="80.436" cy="79.782" r="5.957" gradientTransform="matrix(1 0 0 -1 0 130)" gradientUnits="userSpaceOnUse">
			<stop  offset="9.049999e-02" style="stop-color:#454140"/>
			<stop  offset="1" style="stop-color:#454140"/>
		</radialGradient>
		<path class="st9" d="M86.1,53.1c0,0-0.2-0.1-0.6-0.3c-0.1,0-0.2-0.1-0.3-0.1c-0.1,0-0.2-0.1-0.3-0.1s-0.2-0.1-0.3-0.1
			c-0.1,0-0.2-0.1-0.4-0.1s-0.3-0.1-0.4-0.1s-0.3-0.1-0.4-0.1c-0.1,0-0.2,0-0.2-0.1c-0.1,0-0.2,0-0.2,0c-0.2,0-0.3-0.1-0.5-0.1
			c-0.3,0-0.7-0.1-1-0.1c-0.3,0-0.7,0-1,0c-0.3,0-0.7,0-1,0c-0.3,0-0.7,0.1-1,0.1c-0.2,0-0.3,0.1-0.5,0.1c-0.1,0-0.2,0-0.2,0
			c-0.1,0-0.2,0-0.2,0.1c-0.2,0-0.3,0.1-0.4,0.1c-0.1,0-0.3,0.1-0.4,0.1c-0.3,0.1-0.5,0.2-0.7,0.3c-0.1,0-0.2,0.1-0.3,0.1
			c-0.1,0-0.2,0.1-0.3,0.1C75.1,53,75,53.1,75,53.1l-0.3,0.1c-0.8,0.3-1.7-0.2-2-1c-0.2-0.5-0.1-1,0.2-1.4c0,0,0.2-0.2,0.5-0.6
			c0.1-0.1,0.2-0.2,0.3-0.3s0.2-0.2,0.3-0.3s0.3-0.2,0.4-0.3s0.3-0.2,0.5-0.3c0.2-0.1,0.3-0.2,0.5-0.3c0.2-0.1,0.4-0.2,0.6-0.3
			c0.2-0.1,0.4-0.2,0.7-0.3s0.5-0.2,0.7-0.3c0.5-0.1,1-0.3,1.5-0.4c0.5-0.1,1.1-0.1,1.6-0.1c0.6,0,1.1,0,1.6,0.1
			c0.5,0.1,1.1,0.2,1.5,0.4c0.2,0.1,0.5,0.2,0.7,0.3c0.2,0.1,0.4,0.2,0.7,0.3c0.2,0.1,0.4,0.2,0.6,0.3c0.2,0.1,0.4,0.2,0.5,0.3
			c0.2,0.1,0.3,0.2,0.5,0.3c0.2,0.1,0.3,0.3,0.4,0.4s0.3,0.2,0.4,0.3c0.1,0.1,0.2,0.2,0.2,0.3c0.3,0.3,0.4,0.5,0.4,0.5
			c0.5,0.7,0.3,1.7-0.4,2.3C87.1,53.3,86.5,53.3,86.1,53.1z"/>
		<ellipse class="st8" cx="80.4" cy="58.8" rx="4.9" ry="5.1"/>
		<path class="st10" d="M67.9,68.1c-0.1,0-0.2-0.1-0.3-0.1h-7.1c-0.1,0-0.2,0-0.3,0.1c-0.6,0.3-1,0.9-0.7,1.6s1.7,2.7,4.5,2.7
			c2.8,0,4.3-2,4.6-2.7C68.9,69,68.5,68.3,67.9,68.1z"/>
		<path class="st11" d="M72.4,76.1c-3.2,1.9-13.6,1.9-16.8,0c-1.8-1.1-3.7,0.6-2.9,2.2c0.8,1.6,6.5,5.4,11.4,5.4s10.6-3.8,11.3-5.4
			C76.1,76.7,74.3,75,72.4,76.1z"/>
		
			<radialGradient id="SVGID_9_" cx="64.26" cy="125.7264" r="48.85" gradientTransform="matrix(1 0 0 -1 0 130)" gradientUnits="userSpaceOnUse">
			<stop  offset="0" style="stop-color:#6D4C41"/>
			<stop  offset="1" style="stop-color:#543930"/>
		</radialGradient>
		<path class="st12" d="M64,4L64,4C64,4,64,4,64,4C18.5,4.3,27.8,56.2,27.8,56.2s5.1,9,5.1,8.8c-0.2-7.3,2.7-20.1,4.8-25.5
			c1-2.8,3.9-4.4,6.8-3.8c4.5,0.8,11.5,1.8,19.4,1.8H64h0.1c7.8,0,14.9-1,19.4-1.8c2.9-0.5,5.8,1.1,6.8,3.8c2.1,5.5,5,18.3,4.8,25.6
			c0,0.2,5.1-8.8,5.1-8.8S109.4,4.3,64,4z"/>
		<path class="st13" d="M64,4L64,4C64,4,64,4,64,4C18.5,4.3,27.8,56.2,27.8,56.2s5,8.8,5.1,8.8c0-1.5,0.1-3.2,0.3-5
			c-0.1-0.3-2.5-4.8-2.5-4.8c-0.2-1.6-0.9-7-0.5-13.6c0.4-7,2.2-17,8.2-24.2C44.1,10.6,52.7,7.1,64,7h0c11.3,0.1,19.9,3.5,25.6,10.4
			c10.8,13,8.2,34.3,7.7,37.8c0,0-2.5,4.6-2.5,4.7c0.2,1.9,0.3,3.7,0.3,5.2c0.1,0,5.1-8.8,5.1-8.8S109.4,4.3,64,4z"/>
	</g>
</g>
<g>
	<defs>
		<rect id="SVGID_10_" x="4" y="4" width="120" height="120"/>
	</defs>
	<clipPath id="SVGID_11_">
		<use xlink:href="#SVGID_10_"  style="overflow:visible;"/>
	</clipPath>
	
		<radialGradient id="SVGID_12_" cx="-498.3976" cy="-24.3377" r="27.0011" gradientTransform="matrix(9.100000e-14 -0.9556 -1.0212 -1.140000e-13 39.1464 -399.0936)" gradientUnits="userSpaceOnUse">
		<stop  offset="0" style="stop-color:#FFFFFF;stop-opacity:0.9"/>
		<stop  offset="0.1228" style="stop-color:#FFFFFF;stop-opacity:0.8"/>
		<stop  offset="0.3833" style="stop-color:#FFFFFF;stop-opacity:0.65"/>
		<stop  offset="0.7569" style="stop-color:#FFFFFF;stop-opacity:0.25"/>
		<stop  offset="1" style="stop-color:#FFFFFF;stop-opacity:0"/>
	</radialGradient>
	<ellipse class="st14" cx="64" cy="72.8" rx="30" ry="21.5"/>
</g>
<g>
	<defs>
		<rect id="SVGID_13_" x="4" y="4" width="120" height="120"/>
	</defs>
	<clipPath id="SVGID_14_">
		<use xlink:href="#SVGID_13_"  style="overflow:visible;"/>
	</clipPath>
	<g class="st15">
		<path class="st16" d="M18.5,112.4c0,0.2,0,0.3,0,0.4c0,4.1-2,7.4-4.4,7.4c-2.4,0-4.4-3.3-4.4-7.4c0-0.2,0-0.3,0-0.4
			c-2.4,1.8-4,4.9-4,8.4v0.7c0,1.4,1,2.5,2.2,2.5h12.5c1.2,0,2.1-1.1,2.1-2.5v-0.7C22.5,117.2,20.9,114.1,18.5,112.4z"/>
		<path class="st17" d="M14.1,120.2c9,0,4.4-3.3,4.4-7.4c0-0.2,0-0.3,0-0.4c-1.3-0.9-2.8-1.5-4.4-1.5c-1.6,0-3.1,0.6-4.4,1.5
			c0,0.2,0,0.3,0,0.4C9.6,116.9,5,120.2,14.1,120.2z"/>
	</g>
</g>
<g>
	<defs>
		<rect id="SVGID_15_" x="4" y="4" width="120" height="120"/>
	</defs>
	<clipPath id="SVGID_16_">
		<use xlink:href="#SVGID_15_"  style="overflow:visible;"/>
	</clipPath>
	<g class="st18">
		<path class="st4" d="M28,106.8c-0.1-2.8-2.2-8.7-5-9.2c-0.2,0-0.3-0.1-0.4-0.3c-0.4-0.7-1.9-2.5-4.4-1.1c-1,0.5-1.3,1-1.1,1.7
			c-0.1,0.1-0.3,0.3-0.7,0.2c-1-1.2-2.3-1.4-3.8-0.2c-1.7,1.3-1.7,2.3-1.4,3.2l0,0c0,0-0.1,0.7-0.6,0.6c-0.5-0.4-1.1-0.4-2.1,0.3
			c-2.6,1.9-1.5,3.7-1.1,4.7c-0.1,0.1-0.2,0.2-0.3,0.2c-0.3-0.2-0.8-0.2-1.3,0.2c-1.4,0.8-1.2,3.4-0.8,4.2c0.4,0.9,2.8,4.2,3.6,5.1
			c0.2,0.2,0.4,0.4,0.7,0.5c0,0-0.1,0-0.1,0c0.7,0.4,1.9,1,3.2,0.2c0,0,0.8-0.6,0.8-1.2c1.3,0.7,3.1-0.6,3.1-0.6
			c0.9-0.7,1.1-1.4,1-2c0.4,0.3,0.9,0.4,1.4,0.4c1.4,0,2.6-0.8,2.6-0.8c2-1.1,2.3-2.3,2.3-3c1,0.6,2.3,0.2,2.3,0.2
			C28.1,109,28,106.8,28,106.8z"/>
		<path class="st19" d="M28.6,106.8L28.6,106.8c-0.1-3.1-2.4-9.2-5.5-9.8c-1.3-1.9-3.2-2.4-5.3-1.3c-0.6,0.3-1.3,0.8-1.5,1.6
			c-1.3-1.1-2.7-1-4.2,0.1c-1.8,1.4-1.9,2.5-1.7,3.5c-1-0.4-2,0.3-2.3,0.6c-2.4,1.7-2.1,3.5-1.7,4.6c-0.3,0-0.7,0.1-1,0.3
			c-1.8,1-1.5,4-1.1,5.1c0.5,1,2.9,4.3,3.7,5.3c0.2,0.2,0.4,0.4,0.7,0.5c0,0,0,0,0,0c0.7,0.5,1.5,0.7,2.2,0.7c0.6,0,1.2-0.2,1.7-0.5
			c0.1-0.1,0.5-0.4,0.8-0.9c1.5,0.3,3.1-0.9,3.1-0.9c0.7-0.5,1-1.1,1.2-1.6c0.3,0.1,0.5,0.1,0.8,0.1c1.5,0,2.9-0.8,2.9-0.8
			c1.6-0.9,2.3-1.9,2.5-2.7c1,0.2,1.9-0.1,2-0.1C28.7,109.4,28.6,106.9,28.6,106.8z M25.9,108.3c-0.8,0.6-1.5,0.7-2.1,0.4
			c-0.6-0.5-1.1-1.4-1.1-1.4c-2.3-4.1-3.8-6.2-3.8-6.2c-0.1-0.2-0.5-0.8-1-1c-0.6-0.4-0.4,0.3-0.4,0.3c2.6,4.1,4.2,7.3,4.2,7.3
			c0.7,1.2,0.6,2.1,0.4,2.6c-0.2,0.6-1.5,1.4-1.5,1.4c-2.6,1.6-3.9-0.5-3.9-0.5s-1.6-1.9-4.1-6.8c0,0-0.4-0.7-0.6-0.2
			c0,0,0.1,0.8,0.5,1.6c0,0,1.2,2.8,3.5,6c0,0.1,0,0.1,0.1,0.2c0,0.1,0.1,0.2,0.1,0.3c0,0,0,0.1,0,0.1c0,0.1,0,0.2,0,0.3
			c0,0,0,0.1,0,0.1c0,0.1,0,0.2,0,0.3l0,0.1c0,0.1,0,0.2-0.1,0.3c0,0,0,0.1,0,0.1c0,0.1-0.1,0.2-0.1,0.3c0,0-0.1,0.1-0.1,0.1
			c-0.1,0.1-0.1,0.1-0.1,0.2c0,0-0.1,0.1-0.1,0.1s-0.1,0.1-0.1,0.1c-0.1,0.1-0.2,0.1-0.3,0.2c-0.2,0.1-0.4,0.2-0.6,0.3
			c-0.1,0-0.1,0-0.2,0c-0.1,0-0.3,0-0.4,0c-0.1,0-0.1,0-0.2,0c-0.1,0-0.2,0-0.4-0.1c-0.1,0-0.1,0-0.2-0.1c-0.1-0.1-0.2-0.1-0.4-0.2
			c0,0-0.1,0-0.1-0.1c-0.6-0.6-1.9-2.1-3.9-5.7c0,0-0.4-0.9-0.6-0.6c0,0-0.2,0.2,0.4,1.6c0,0,0.8,2,2.8,4.6c0.7,1,0.7,1.5,0.4,1.8
			c0,0-0.1,0-0.1,0.1c-0.1,0.1-0.3,0.2-0.5,0.3c-0.6,0.1-1.1-0.1-1.5-0.4c-0.1-0.1-0.1-0.1-0.2-0.1c-0.2-0.1-0.3-0.2-0.4-0.3
			c-0.9-0.9-3.1-4.1-3.5-4.9c-0.3-0.7-0.4-2.9,0.5-3.4c0.5-0.3,0.7-0.2,0.7-0.1c0.1,0.1,0.2,0.1,0.3,0.1c0.4,0,0.7-0.2,0.9-0.5
			c0.1-0.2,0.1-0.4,0-0.6l-0.1-0.3c-0.5-1.1-1-2.2,1-3.7c0.9-0.7,1.1-0.4,1.3-0.3c0.1,0.1,0.2,0.1,0.3,0.2c0.7,0.1,1.1-0.4,1.3-1
			c0-0.1,0.1-0.3,0-0.4c-0.2-0.6-0.4-1.3,1.2-2.5c1.1-0.9,2.1-0.8,2.9,0.2c0.1,0.1,0.1,0.1,0.2,0.2c0.5,0.2,1,0.1,1.4-0.4
			c0.1-0.2,0.2-0.4,0.1-0.6c0-0.2-0.1-0.5,0.8-1c1.5-0.8,2.7-0.5,3.6,0.8c0.2,0.3,0.5,0.5,0.8,0.5c0.1,0,0.2,0.1,0.3,0.1
			c1.1,1.8,2.3,4.1,2.8,5.1C27,105.2,27.6,107,25.9,108.3z"/>
	</g>
</g>
<g>
	<defs>
		<rect id="SVGID_17_" x="4" y="4" width="120" height="120"/>
	</defs>
	<clipPath id="SVGID_18_">
		<use xlink:href="#SVGID_17_"  style="overflow:visible;"/>
	</clipPath>
	<g class="st20">
		<path class="st4" d="M100,112.8c0.1-2.8,2.2-8.7,5-9.2c0.2,0,0.3-0.1,0.4-0.3c0.4-0.7,1.8-2.5,4.4-1.1c1,0.5,1.3,1,1.1,1.7
			c0.1,0.1,0.3,0.3,0.7,0.2c1-1.2,2.3-1.4,3.8-0.2c1.7,1.3,1.7,2.3,1.4,3.2l0,0c0,0,0.1,0.7,0.6,0.6c0.5-0.4,1.1-0.4,2.1,0.3
			c2.6,1.9,1.5,3.7,1.1,4.7c0.1,0.1,0.2,0.2,0.3,0.2c0.3-0.2,0.8-0.2,1.3,0.2c1.4,0.8,1.2,3.4,0.8,4.2c-0.4,0.9-2.8,4.2-3.6,5.1
			c-0.2,0.2-0.4,0.4-0.7,0.5c0,0,0.1,0,0.1,0c-0.7,0.4-1.9,1-3.2,0.2c0,0-0.8-0.6-0.8-1.2c-1.3,0.7-3.1-0.6-3.1-0.6
			c-0.8-0.7-1.1-1.4-1-2c-0.4,0.3-0.9,0.4-1.3,0.4c-1.4,0-2.6-0.8-2.6-0.8c-1.9-1.1-2.3-2.3-2.3-3c-1,0.6-2.3,0.2-2.3,0.2
			C100,115,100,112.8,100,112.8L100,112.8z"/>
		<path class="st19" d="M99.4,112.8L99.4,112.8c0.1-3.1,2.4-9.2,5.5-9.8c1.3-1.9,3.2-2.4,5.3-1.3c0.6,0.3,1.3,0.8,1.5,1.6
			c1.3-1.1,2.7-1,4.2,0.1c1.8,1.4,1.9,2.5,1.7,3.5c1-0.4,2,0.3,2.3,0.6c2.4,1.7,2.1,3.5,1.7,4.6c0.3,0,0.7,0.1,1,0.3
			c1.8,1,1.5,4,1.1,5.1c-0.5,1-2.9,4.3-3.7,5.3c-0.2,0.2-0.4,0.4-0.7,0.5c0,0,0,0,0,0c-0.7,0.5-1.5,0.7-2.2,0.7
			c-0.6,0-1.2-0.2-1.7-0.5c-0.1-0.1-0.5-0.4-0.8-0.9c-1.5,0.3-3.1-0.9-3.1-0.9c-0.7-0.5-1-1.1-1.2-1.6c-0.3,0.1-0.5,0.1-0.8,0.1
			c-1.5,0-2.9-0.8-2.9-0.8c-1.6-0.9-2.3-1.9-2.5-2.7c-1,0.2-1.9-0.1-2-0.1C99.3,115.4,99.4,112.9,99.4,112.8L99.4,112.8z
			 M102.1,114.3c0.8,0.6,1.5,0.7,2.1,0.4c0.6-0.5,1.1-1.4,1.1-1.4c2.3-4.1,3.8-6.2,3.8-6.2c0.2-0.2,0.5-0.8,0.9-1
			c0.6-0.4,0.4,0.3,0.4,0.3c-2.6,4.1-4.2,7.3-4.2,7.3c-0.7,1.2-0.6,2.1-0.4,2.6c0.2,0.6,1.5,1.4,1.5,1.4c2.6,1.6,3.9-0.5,3.9-0.5
			s1.6-1.9,4.1-6.8c0,0,0.4-0.7,0.7-0.2c0,0-0.1,0.8-0.5,1.6c0,0-1.2,2.8-3.5,6c0,0.1,0,0.1-0.1,0.2c0,0.1-0.1,0.2-0.1,0.3
			c0,0,0,0.1,0,0.1c0,0.1,0,0.2,0,0.3c0,0,0,0.1,0,0.1c0,0.1,0,0.2,0,0.3l0,0.1c0,0.1,0.1,0.2,0.1,0.3c0,0,0,0.1,0,0.1
			c0,0.1,0.1,0.2,0.1,0.3c0,0,0.1,0.1,0.1,0.1c0.1,0.1,0.1,0.1,0.2,0.2c0,0,0.1,0.1,0.1,0.1s0.1,0.1,0.1,0.1
			c0.1,0.1,0.2,0.1,0.3,0.2c0.2,0.1,0.4,0.2,0.6,0.3c0.1,0,0.1,0,0.2,0c0.1,0,0.3,0,0.4,0c0.1,0,0.1,0,0.2,0c0.1,0,0.2,0,0.3-0.1
			c0.1,0,0.1,0,0.2-0.1c0.1-0.1,0.2-0.1,0.4-0.2c0,0,0.1,0,0.1-0.1c0.6-0.6,1.9-2.1,3.9-5.7c0,0,0.4-0.9,0.6-0.6
			c0,0,0.2,0.2-0.3,1.6c0,0-0.8,2-2.8,4.6c-0.7,1-0.7,1.5-0.4,1.8c0,0,0.1,0,0.1,0.1c0.1,0.1,0.3,0.2,0.5,0.3
			c0.6,0.1,1.1-0.1,1.5-0.4c0.1-0.1,0.1-0.1,0.2-0.1c0.2-0.1,0.3-0.2,0.4-0.3c0.8-0.9,3.1-4.1,3.5-4.9c0.3-0.7,0.4-2.9-0.5-3.4
			c-0.5-0.3-0.7-0.2-0.7-0.1c-0.1,0.1-0.2,0.1-0.3,0.1c-0.4,0-0.7-0.2-0.9-0.5c-0.1-0.2-0.1-0.4,0-0.6l0.1-0.3c0.5-1.1,1-2.2-1-3.7
			c-0.9-0.7-1.2-0.4-1.3-0.3c-0.1,0.1-0.2,0.1-0.3,0.2c-0.7,0.1-1.1-0.4-1.3-1c0-0.1-0.1-0.3,0-0.4c0.2-0.6,0.4-1.3-1.2-2.5
			c-1.1-0.9-2.1-0.8-2.9,0.2c-0.1,0.1-0.2,0.1-0.2,0.2c-0.5,0.2-1,0.1-1.4-0.4c-0.1-0.2-0.2-0.4-0.1-0.6c0.1-0.2,0.1-0.5-0.8-1
			c-1.5-0.8-2.7-0.5-3.6,0.8c-0.2,0.3-0.5,0.5-0.8,0.5c-0.1,0-0.2,0.1-0.3,0.1c-1.1,1.8-2.3,4.1-2.8,5.1
			C101,111.2,100.4,113,102.1,114.3L102.1,114.3z"/>
	</g>
</g>
<g>
	<defs>
		<rect id="SVGID_19_" x="4" y="4" width="120" height="120"/>
	</defs>
	<clipPath id="SVGID_20_">
		<use xlink:href="#SVGID_19_"  style="overflow:visible;"/>
	</clipPath>
	<g class="st21">
		
			<linearGradient id="SVGID_21_" gradientUnits="userSpaceOnUse" x1="64" y1="55.474" x2="64" y2="-12.94" gradientTransform="matrix(1 0 0 -1 0 130)">
			<stop  offset="0" style="stop-color:#4DD0E1"/>
			<stop  offset="1" style="stop-color:#00BCD4"/>
		</linearGradient>
		<path class="st22" d="M24.5,142.5c-3.6,0-6.5-2.9-6.5-6.5V81.2c0-3.6,2.9-6.5,6.5-6.5h79c3.6,0,6.5,2.9,6.5,6.5V136
			c0,3.6-2.9,6.5-6.5,6.5H24.5z"/>
		<path class="st23" d="M103.5,76.2c2.8,0,5,2.2,5,5V136c0,2.8-2.2,5-5,5h-79c-2.8,0-5-2.2-5-5V81.2c0-2.8,2.2-5,5-5H103.5
			 M103.5,73.2h-79c-4.4,0-8,3.6-8,8V136c0,4.4,3.6,8,8,8h79c4.4,0,8-3.6,8-8V81.2C111.5,76.8,107.9,73.2,103.5,73.2z"/>
	</g>
</g>
<g>
	<defs>
		<rect id="SVGID_22_" x="4" y="4" width="120" height="120"/>
	</defs>
	<clipPath id="SVGID_23_">
		<use xlink:href="#SVGID_22_"  style="overflow:visible;"/>
	</clipPath>
</g>
<path class="st24" d="M73.8,86.7c0.5,0.4,1,0.7,1.4,1.1c1,0.9,2,1.9,2.8,3c0.1,0.1,0.1,0.2,0,0.3c-0.4,0.6-0.9,1.2-1.3,1.8
	c0,0.1-0.1,0.1-0.2,0.2c-0.8,0.4-1.6,0.9-2.3,1.3c0,0,0,0-0.1,0c-1.6-2.5-3.8-4.3-6.8-4.9c-2.4-0.5-4.7-0.3-6.9,0.9
	c-4.2,2.3-6.4,6.7-5.2,11.7c0.8,3.6,4.5,7.7,10,7.7c2.3,0,4.4-0.7,6.2-2.1c1.5-1.2,2.6-2.6,3.3-4.3c-1.3,0-2.6,0-3.9,0
	c0,0.2,0,0.4,0,0.6c0,0.5,0,1,0,1.5c0,0.1,0,0.2-0.1,0.3c-1,0.9-2.2,1.6-3.5,1.9c0,0-0.1,0-0.1,0c0-1.4,0-2.9,0-4.3
	c-1.3,0-2.5,0-3.8,0c0,1.4,0,2.9,0,4.3c-0.2,0-0.3-0.1-0.5-0.1c-1.2-0.3-2.3-1-3.2-1.8c-0.1-0.1-0.1-0.2-0.1-0.3c0-0.7,0-1.4,0-2.1
	c-0.1,0-0.2,0-0.4,0c-0.4,0-0.8,0-1.1,0c-0.2,0-0.3-0.1-0.4-0.2c-0.5-1.1-0.7-2.2-0.7-3.3c0-0.1,0-0.1,0-0.2c0.9,0,1.8,0,2.7,0
	c0-0.1,0-0.2,0-0.3c0-1.9,0-3.7,0-5.6c0-0.2,0-0.3,0.2-0.4c1-0.9,2.1-1.5,3.4-1.8c0.1,0,0.1,0,0.2,0c0,0,0,0,0.1,0c0,1.3,0,2.7,0,4
	c0,1.3,0,2.7,0,4c1.3,0,2.5,0,3.7,0c0-2.7,0-5.4,0-8.1c0.2,0.1,0.4,0.1,0.6,0.1c1.2,0.3,2.2,0.9,3.1,1.7c0.1,0.1,0.2,0.2,0.2,0.4
	c0,1.9,0,3.7,0,5.6c0,0.2,0.1,0.3,0.3,0.3c2.3,0,4.6,0,6.9,0c0.1,0,0.2,0,0.3,0c0,0.3,0,0.6,0,0.8c-0.1,2-0.6,3.8-1.6,5.5
	c-0.1,0.1,0,0.2,0,0.3c0.4,0.6,0.8,1.2,1.2,1.8c0.1,0.1,0.1,0.2,0,0.3c-1.1,1.6-2.5,3-4.2,4.1c0,0-0.1,0-0.1,0.1
	c-0.6-0.4-1.3-0.9-1.9-1.3c-0.1-0.1-0.2-0.1-0.4,0c-0.8,0.5-1.7,0.8-2.6,1.1c-0.1,0-0.2,0.1-0.2,0.2c-0.1,0.7-0.2,1.4-0.4,2
	c0,0.2-0.1,0.3-0.3,0.3c-1.9,0.3-3.8,0.3-5.6,0c-0.2,0-0.2-0.1-0.3-0.2c-0.1-0.7-0.2-1.4-0.4-2.1c0-0.1-0.1-0.2-0.2-0.2
	c-0.9-0.3-1.8-0.6-2.7-1.1c-0.1-0.1-0.2-0.1-0.3,0c-0.6,0.4-1.2,0.8-1.8,1.2c-0.1,0.1-0.2,0.1-0.3,0c-1.6-1.1-3-2.5-4.1-4.1
	c-0.1-0.1-0.1-0.2,0-0.3c0.4-0.6,0.8-1.2,1.3-1.8c0.1-0.1,0.1-0.2,0-0.3c-0.5-0.8-0.8-1.7-1.1-2.6c0-0.2-0.1-0.2-0.3-0.3
	c-0.7-0.1-1.4-0.2-2-0.3c-0.2,0-0.3-0.1-0.3-0.3c-0.3-1.9-0.3-3.8,0-5.7c0-0.2,0.1-0.2,0.3-0.3c0.7-0.1,1.4-0.2,2.1-0.4
	c0.1,0,0.2-0.1,0.2-0.2c0.3-0.9,0.6-1.8,1.1-2.7c0.1-0.1,0.1-0.2,0-0.3c-0.4-0.6-0.8-1.2-1.3-1.8c-0.1-0.1-0.1-0.2,0-0.3
	c1.1-1.6,2.5-3,4.1-4.1c0.1-0.1,0.2-0.1,0.3,0c0.6,0.4,1.2,0.8,1.8,1.3c0.1,0.1,0.2,0.1,0.3,0c0.8-0.5,1.7-0.8,2.6-1.1
	c0.2,0,0.2-0.1,0.3-0.3c0.1-0.7,0.3-1.4,0.4-2.1c0-0.2,0.1-0.2,0.2-0.2c1.9-0.3,3.8-0.3,5.7,0c0.2,0,0.2,0.1,0.3,0.3
	c0.1,0.7,0.2,1.4,0.4,2.1c0,0.1,0.1,0.2,0.2,0.2c0.9,0.3,1.8,0.6,2.7,1.1c0.1,0,0.2,0,0.3,0C72.5,87.6,73.1,87.1,73.8,86.7z"/>
</svg>
