<?xml version="1.0" encoding="utf-8"?>
<!-- Generator: Adobe Illustrator 21.0.2, SVG Export Plug-In . SVG Version: 6.00 Build 0)  -->
<svg version="1.0" id="Layer_1" xmlns="http://www.w3.org/2000/svg" xmlns:xlink="http://www.w3.org/1999/xlink" x="0px" y="0px"
	 viewBox="0 0 128 128" style="enable-background:new 0 0 128 128;" xml:space="preserve">
<style type="text/css">
	.st0{clip-path:url(#SVGID_2_);}
	.st1{fill:url(#SVGID_3_);}
	.st2{fill:#3F2720;}
	.st3{clip-path:url(#SVGID_5_);}
	.st4{fill:url(#SVGID_6_);}
	.st5{fill:#009984;}
	.st6{fill:none;}
	.st7{clip-path:url(#SVGID_8_);}
	.st8{fill:url(#SVGID_9_);}
	.st9{fill:#EDA600;}
	.st10{clip-path:url(#SVGID_11_);}
	.st11{fill:url(#SVGID_12_);}
	.st12{fill:#E90D00;}
	.st13{fill:#B51700;}
	.st14{fill:#FFFFFF;}
	.st15{fill:#E59600;}
	.st16{fill:#D18100;}
	.st17{fill:url(#SVGID_13_);}
	.st18{fill:#ED9E00;}
	.st19{clip-path:url(#SVGID_15_);}
	.st20{fill:url(#SVGID_16_);}
	.st21{fill:#404040;}
	.st22{fill:#6D4C41;}
	.st23{fill:#795548;}
	.st24{fill:url(#SVGID_17_);}
</style>
<g>
	<defs>
		<rect id="SVGID_1_" x="4" y="4" width="120" height="120"/>
	</defs>
	<clipPath id="SVGID_2_">
		<use xlink:href="#SVGID_1_"  style="overflow:visible;"/>
	</clipPath>
	<g class="st0">
		
			<radialGradient id="SVGID_3_" cx="67.4762" cy="211.2124" r="57.904" gradientTransform="matrix(0.826 0 0 -0.826 8.516 166.736)" gradientUnits="userSpaceOnUse">
			<stop  offset="0" style="stop-color:#6D4C41"/>
			<stop  offset="1" style="stop-color:#543930"/>
		</radialGradient>
		<path class="st1" d="M47,119.8c0,0-6.8-0.3-10.2-5.1c-7.4-10.2-11.4-35.8-11.4-72c0-1.7,0.3-16.4,10.7-26.8
			C42.8,9.1,52.4,5.6,64.6,5.6c12.1,0,21.5,3.4,28.1,10c9.8,10,10,24.2,10,26.9c0,36.3-4.1,61.9-11.4,72.1
			c-3.3,4.6-9.8,5.1-10.3,5.1l-16.9,0L47,119.8z"/>
		<path class="st2" d="M64.6,7.1c11.7,0,20.7,3.2,27,9.6c9.6,9.8,9.6,24.2,9.6,25.8v0.1c0,35.9-4,61.2-11.1,71.1
			c-2.8,3.9-8.6,4.4-9.1,4.5l-16.9,0l-16.9,0c-0.6,0-6.3-0.5-9.1-4.5c-7.2-10-11.1-35.2-11.1-71.2C26.9,42,27,27,37.1,16.9
			C43.6,10.4,52.8,7.1,64.6,7.1 M64.6,4.1c-41,0-40.7,37.9-40.7,38.5c0,24.6,1.9,59.3,11.7,72.9c3.9,5.4,11.4,5.7,11.4,5.7l17,0
			l17,0c0,0,7.5-0.3,11.4-5.7c9.8-13.7,11.7-48.3,11.7-72.9C104.1,42,105.6,4.1,64.6,4.1z"/>
	</g>
</g>
<g>
	<defs>
		<rect id="SVGID_4_" x="4" y="4" width="120" height="120"/>
	</defs>
	<clipPath id="SVGID_5_">
		<use xlink:href="#SVGID_4_"  style="overflow:visible;"/>
	</clipPath>
	<g class="st3">
		
			<linearGradient id="SVGID_6_" gradientUnits="userSpaceOnUse" x1="66.76" y1="27.46" x2="66.76" y2="-49.67" gradientTransform="matrix(1 0 0 -1 0 130)">
			<stop  offset="0" style="stop-color:#00BFA5"/>
			<stop  offset="0.7047" style="stop-color:#00B29A"/>
			<stop  offset="1" style="stop-color:#00AB94"/>
		</linearGradient>
		<path class="st4" d="M16.3,183.1v-9.4c0-16.2,25.4-23.5,50.5-23.6h0.1c25,0,50.4,8.1,50.4,23.6v9.4H16.3z"/>
		<path class="st5" d="M66.9,151.6c12.9,0,25.4,2.2,34.4,6c6.6,2.8,14.5,7.9,14.5,16.1v7.9h-98v-7.9c0-15.2,24.6-22,49-22.1
			L66.9,151.6 M66.9,148.6h-0.1c-25.5,0-52,7.3-52,25.1v10.9h104v-10.9C118.8,156.9,92.5,148.6,66.9,148.6z"/>
	</g>
</g>
<rect x="4" y="4" class="st6" width="120" height="120"/>
<rect x="4" y="4" class="st6" width="120" height="120"/>
<rect x="4" y="4" class="st6" width="120" height="120"/>
<rect x="4" y="4" class="st6" width="120" height="120"/>
<g>
	<defs>
		<rect id="SVGID_7_" x="4" y="4" width="120" height="120"/>
	</defs>
	<clipPath id="SVGID_8_">
		<use xlink:href="#SVGID_7_"  style="overflow:visible;"/>
	</clipPath>
	<g class="st7">
		
			<radialGradient id="SVGID_9_" cx="76.0284" cy="211.6988" r="33.075" gradientTransform="matrix(0.9636 0.2674 0.2674 -0.9636 -100.7978 197.5568)" gradientUnits="userSpaceOnUse">
			<stop  offset="0.3533" style="stop-color:#FFCA28"/>
			<stop  offset="0.8723" style="stop-color:#FFB300"/>
		</radialGradient>
		<path class="st8" d="M25.6,45.7c-1.1,0-2.4-0.2-3.7-0.6c-0.7-0.2-2-0.5-3.6-0.8c-2.2-0.5-5.1-1.1-5.8-1.4
			c-0.4-0.2-2.6-3.5-1.3-11.2c0.5-2.9,1.7-9.8,1.7-9.8l1.6-10.9c0.2-1.4,0.9-2.2,2-2.2c0.2,0,0.4,0,0.6,0.1c0.6,0.1,1.4,0.6,1.3,2.7
			L18,18c0,0.6,0.4,1.1,0.9,1.2c0.1,0,0.1,0,0.2,0c0.5,0,1-0.4,1.1-0.9c0.4-1.6,2.1-9.7,2.5-11.1C23.3,5.2,24.1,5,24.7,5
			c0.2,0,0.3,0,0.5,0.1c1.8,0.4,1.5,2.6,1.4,3.1c-0.3,1.4-2.2,11.4-2.2,11.5c-0.1,0.6,0.2,1.2,0.8,1.3c0.1,0,0.2,0,0.2,0
			c0.5,0,1-0.4,1.1-0.9l4.1-13.5c0.3-1.2,1.2-2,2.1-2c0.3,0,0.5,0.1,0.8,0.2c1.1,0.5,1.2,1.9,0.9,3L31,21.6c-0.1,0.4,0.1,0.9,0.5,1
			c0,0,0.2,0,0.2,0c0.3,0,0.6-0.2,0.7-0.5l4.7-11.3c0.4-1.1,1.3-1.8,2.2-1.8c0.1,0,0.3,0,0.4,0.1c0.6,0.1,1,0.5,1.3,1
			c0.3,0.6,0.3,1.5,0,2.3c0,0.1-4.7,12.9-6,16.3c-0.1,0.4-0.1,0.7,0.1,1c0.2,0.3,0.6,0.5,0.9,0.5c0.2,0,0.3,0,0.5-0.1
			c0.7-0.3,1.2-0.8,1.9-1.4c1-0.9,2-1.7,3.3-1.9c0.3,0,0.6-0.1,0.9-0.1c1.7,0,2.7,0.8,3.1,1.4c0.2,0.4,0.3,1.5-0.1,2.2
			c-0.3,0.4-0.7,0.6-1.3,0.7c-2.5,0-7,3.6-8.8,6c-0.6,0.7-1.1,1.6-1.6,2.5C32.1,42.3,30.1,45.7,25.6,45.7z"/>
		<path class="st9" d="M32.8,5.1c0.2,0,0.4,0.1,0.6,0.1c1.1,0.5,0.7,2.1,0.6,2.4l-3.5,13.8c-0.2,0.7,0.2,1.4,0.9,1.6
			c0.1,0,0.3,0.1,0.4,0.1c0.5,0,1-0.3,1.2-0.8l4.7-11.4c0.3-0.9,1-1.5,1.7-1.5c0.1,0,0.2,0,0.3,0c0.4,0.1,0.8,0.4,1,0.7
			c0.3,0.5,0.3,1.2,0,1.9c0,0.1-4.7,12.8-6,16.3c-0.2,0.5-0.1,1.1,0.2,1.5c0.3,0.4,0.8,0.7,1.3,0.7c0.2,0,0.5,0,0.7-0.2
			c0.7-0.3,1.3-0.9,2-1.4c0.9-0.8,1.9-1.6,3.1-1.8c0.3,0,0.6-0.1,0.8-0.1c1.5,0,2.4,0.6,2.6,1.1c0.2,0.3,0.2,1.2-0.1,1.7
			c-0.1,0.2-0.3,0.4-0.9,0.4c-2.9,0-7.5,4-9.2,6.1c-0.6,0.7-1.1,1.6-1.7,2.5c-1.8,3-3.7,6.1-7.9,6.1c-1.1,0-2.3-0.2-3.6-0.6
			c-0.7-0.2-2.1-0.5-3.7-0.8c-1.9-0.4-5.1-1-5.6-1.4c-0.4-0.3-2.3-3.6-1.1-10.7c0.5-2.9,1.7-9.8,1.7-9.8L15,10.9
			c0.1-0.9,0.6-1.8,1.5-1.8c0.1,0,0.3,0,0.5,0.1c0.3,0.1,1,0.3,0.9,2.2L17.5,18c0,0.8,0.5,1.5,1.3,1.7c0.1,0,0.2,0,0.3,0
			c0.8,0,1.4-0.5,1.6-1.3c1-4.7,2.2-10,2.5-11.1c0.5-1.8,1.2-1.8,1.5-1.8c0.1,0,0.3,0,0.4,0.1c1.4,0.3,1.1,2.1,1,2.5
			c-0.3,1.4-2.1,11.1-2.2,11.5c-0.2,0.9,0.4,1.8,1.2,2c0.1,0,0.2,0,0.3,0c0.7,0,1.4-0.5,1.6-1.2l4.1-13.6C31.4,5.8,32,5.1,32.8,5.1
			 M32.8,4.1c-1.2,0-2.2,1-2.6,2.4L26,20c-0.1,0.3-0.3,0.5-0.6,0.5c0,0-0.1,0-0.1,0h0c-0.3-0.1-0.5-0.4-0.4-0.8c0,0,1.9-10,2.2-11.5
			s0-3.3-1.8-3.7c-0.2-0.1-0.4-0.1-0.6-0.1c-1.4,0-2,1.1-2.4,2.5c-0.4,1.4-2,8.9-2.5,11.1c-0.1,0.3-0.3,0.5-0.6,0.5c0,0-0.1,0-0.1,0
			c-0.3-0.1-0.5-0.3-0.5-0.6l0.4-6.5c0.1-1.6-0.3-2.9-1.7-3.2c-0.2-0.1-0.5-0.1-0.7-0.1c-1.4,0-2.3,1.1-2.5,2.7l-1.6,10.9
			c0,0-1.2,6.9-1.7,9.8c-1.3,7.5,0.8,11.2,1.5,11.7c1.1,0.7,7.8,1.8,9.5,2.3c1.5,0.5,2.7,0.7,3.9,0.7c6.1,0,8-5.9,10.3-9
			c1.8-2.2,6.1-5.7,8.4-5.8s2.3-2.7,1.8-3.6c-0.4-0.9-1.7-1.7-3.5-1.7c-0.3,0-0.6,0-1,0.1c-2.4,0.3-3.8,2.6-5.3,3.3
			c-0.1,0-0.2,0.1-0.3,0.1c-0.4,0-0.7-0.4-0.6-0.9c1.3-3.5,6-16.3,6-16.3c0.7-1.7,0.1-3.5-1.6-3.9c-0.2-0.1-0.4-0.1-0.6-0.1
			c-1.2,0-2.1,0.9-2.6,2.2L32,21.9c0,0.1-0.2,0.2-0.3,0.2c0,0,0,0-0.1,0h0c-0.1,0-0.2-0.2-0.2-0.4L35,7.9c0.4-1.5,0.1-3-1.2-3.6
			C33.4,4.2,33.1,4.1,32.8,4.1z"/>
		<path class="st9" d="M34.9,29.3c-4.1,0.1-8.1,3.1-10.4,6.8c-0.4,0.6,0.2,0.9,0.5,0.4c2-3.2,6.3-5.7,9.9-5.5c0.5,0,1.8-0.4,1.8-0.4
			l-0.9-0.7C35.9,29.8,35.6,29.4,34.9,29.3z"/>
	</g>
</g>
<g>
	<defs>
		<rect id="SVGID_10_" x="4" y="4" width="120" height="120"/>
	</defs>
	<clipPath id="SVGID_11_">
		<use xlink:href="#SVGID_10_"  style="overflow:visible;"/>
	</clipPath>
	<g class="st10">
		
			<linearGradient id="SVGID_12_" gradientUnits="userSpaceOnUse" x1="16.8439" y1="85.317" x2="16.8439" y2="1.01" gradientTransform="matrix(1 0 0 -1 0 130)">
			<stop  offset="0" style="stop-color:#651FFF"/>
			<stop  offset="0.7047" style="stop-color:#5914F2"/>
			<stop  offset="1" style="stop-color:#530EEB"/>
		</linearGradient>
		<path class="st11" d="M29.1,83.1c-0.5-1.9-0.7-3.9-0.5-5.9l0.6-29.2c0-0.8-0.4-1.5-1-1.9c-0.2-0.2-0.5-0.3-0.8-0.3l-16-3.7
			c-1-0.1-2,0.5-2.2,1.6L4.8,71c-0.5,2.2-0.6,4.4-0.3,6.7l0.8,6.1h24.1L29.1,83.1z"/>
	</g>
</g>
<g>
	<path class="st12" d="M116,126.7c0-19.3-26.3-28.9-52-28.8c-4.3,0-8.7,0.3-12.9,0.8l-9.4-0.4c-0.4,0-0.7-0.1-1.1-0.1
		c-4.6-0.7-8.5-4.5-10-9.7l-1.3-4.7H5.2c0,0,7.3,46.8,8.8,52.4l102.4,0.7L116,126.7L116,126.7z"/>
</g>
<g>
	<path class="st12" d="M29.1,83.1c-0.5-1.9-0.7-3.9-0.5-5.9l0.6-29.2c0-0.8-0.4-1.5-1-1.9c-0.2-0.2-0.5-0.3-0.8-0.3l-16-3.7
		c-1-0.1-2,0.5-2.2,1.6L4.8,71c-0.5,2.2-0.6,4.4-0.3,6.7l0.8,6.1h24.1L29.1,83.1z"/>
</g>
<path class="st13" d="M116.2,124.7c0-15.9-20.5-24.7-42.9-26.5v3.2c19.9,1.7,39.9,9.5,39.9,23.3v8.5H45.2c-1,0-28-0.3-28.1-0.6
	c-1.4-5.2-8.7-48.4-8.7-48.4l-0.8-6.5c-0.2-2-0.1-4.1,0.3-6.1c0-0.1,0-0.1,0-0.2l4.2-28.2l14.2,3.5l-0.6,30.5
	c0,5.6,2.2,12.6,2.2,12.6c1.8,6,6.7,10.4,12.4,11.2c0,0,0,0,0.1,0c0.4,0,0.8,0.1,1.3,0.1c0,0,11.5,0.3,13.3,0v-3.2
	c0,0-10.2,0.3-14.3-0.2c-4.6-0.6-8.5-4.2-10-9c0,0-2.1-6.9-2.1-11.5l0.6-31.3c0-0.9-0.4-1.6-1-2c-0.2-0.2-0.5-0.3-0.8-0.3l-16-4
	c-0.1,0-0.2,0-0.3,0c-0.9,0-1.8,0.7-1.9,1.7L5,70.9c-0.5,2.4-0.6,4.8-0.3,7.1l0.8,6.5l8.8,51.8l30.9,0h71.1L116.2,124.7z"/>
<path class="st14" d="M70.1,113.1c0.3,0.2,0.6,0.5,0.9,0.7c0.7,0.6,1.2,1.2,1.7,1.9c0.1,0.1,0.1,0.1,0,0.2c-0.3,0.4-0.5,0.8-0.8,1.1
	c0,0-0.1,0.1-0.1,0.1c-0.5,0.3-1,0.6-1.5,0.8c0,0,0,0,0,0c-1-1.6-2.4-2.7-4.2-3.1c-1.5-0.3-2.9-0.2-4.3,0.6c-2.6,1.4-4,4.2-3.3,7.3
	c0.5,2.3,2.8,4.8,6.2,4.8c1.4,0,2.7-0.4,3.9-1.3c0.9-0.7,1.6-1.6,2.1-2.7c-0.8,0-1.6,0-2.4,0c0,0.1,0,0.3,0,0.4c0,0.3,0,0.6,0,0.9
	c0,0.1,0,0.1-0.1,0.2c-0.6,0.6-1.4,1-2.2,1.2c0,0,0,0-0.1,0c0-0.9,0-1.8,0-2.7c-0.8,0-1.6,0-2.3,0c0,0.9,0,1.8,0,2.7
	c-0.1,0-0.2,0-0.3-0.1c-0.8-0.2-1.4-0.6-2-1.1c0,0-0.1-0.1-0.1-0.2c0-0.4,0-0.9,0-1.3c-0.1,0-0.2,0-0.2,0c-0.2,0-0.5,0-0.7,0
	c-0.1,0-0.2,0-0.2-0.2c-0.3-0.7-0.5-1.3-0.5-2.1c0,0,0-0.1,0-0.1c0.6,0,1.1,0,1.7,0c0-0.1,0-0.1,0-0.2c0-1.2,0-2.3,0-3.5
	c0-0.1,0-0.2,0.1-0.2c0.6-0.5,1.3-0.9,2.1-1.1c0,0,0.1,0,0.1,0c0,0,0,0,0.1,0c0,0.8,0,1.7,0,2.5c0,0.8,0,1.7,0,2.5
	c0.8,0,1.6,0,2.3,0c0-1.7,0-3.3,0-5c0.1,0,0.2,0.1,0.3,0.1c0.7,0.2,1.4,0.6,1.9,1.1c0.1,0.1,0.1,0.1,0.1,0.2c0,1.2,0,2.3,0,3.5
	c0,0.1,0,0.2,0.2,0.2c1.4,0,2.9,0,4.3,0c0.1,0,0.1,0,0.2,0c0,0.2,0,0.4,0,0.5c-0.1,1.2-0.4,2.4-1,3.4c0,0.1,0,0.1,0,0.2
	c0.3,0.4,0.5,0.7,0.8,1.1c0,0.1,0.1,0.1,0,0.2c-0.7,1-1.6,1.9-2.6,2.6c0,0,0,0-0.1,0c-0.4-0.3-0.8-0.5-1.2-0.8
	c-0.1-0.1-0.1-0.1-0.2,0c-0.5,0.3-1.1,0.5-1.6,0.7c-0.1,0-0.1,0.1-0.1,0.2c-0.1,0.4-0.2,0.9-0.2,1.3c0,0.1-0.1,0.2-0.2,0.2
	c-1.2,0.2-2.3,0.2-3.5,0c-0.1,0-0.1-0.1-0.2-0.2c-0.1-0.4-0.1-0.9-0.2-1.3c0-0.1-0.1-0.1-0.1-0.1c-0.6-0.2-1.1-0.4-1.7-0.7
	c-0.1,0-0.1,0-0.2,0c-0.4,0.3-0.7,0.5-1.1,0.8c-0.1,0-0.1,0.1-0.2,0c-1-0.7-1.8-1.6-2.6-2.5c-0.1-0.1,0-0.1,0-0.2
	c0.3-0.4,0.5-0.7,0.8-1.1c0-0.1,0.1-0.1,0-0.2c-0.3-0.5-0.5-1.1-0.7-1.6c0-0.1-0.1-0.1-0.2-0.2c-0.4-0.1-0.9-0.2-1.3-0.2
	c-0.1,0-0.2-0.1-0.2-0.2c-0.2-1.2-0.2-2.4,0-3.5c0-0.1,0.1-0.1,0.2-0.2c0.4-0.1,0.9-0.2,1.3-0.2c0.1,0,0.1,0,0.1-0.1
	c0.2-0.6,0.4-1.1,0.7-1.7c0-0.1,0-0.1,0-0.2c-0.3-0.4-0.5-0.7-0.8-1.1c-0.1-0.1-0.1-0.1,0-0.2c0.7-1,1.6-1.8,2.6-2.5
	c0.1-0.1,0.1-0.1,0.2,0c0.4,0.3,0.7,0.5,1.1,0.8c0.1,0.1,0.1,0.1,0.2,0c0.5-0.3,1-0.5,1.6-0.7c0.1,0,0.2-0.1,0.2-0.2
	c0.1-0.4,0.2-0.9,0.2-1.3c0-0.1,0.1-0.1,0.2-0.1c1.2-0.2,2.4-0.2,3.6,0c0.1,0,0.1,0.1,0.2,0.2c0.1,0.4,0.2,0.9,0.2,1.3
	c0,0,0.1,0.1,0.1,0.1c0.6,0.2,1.1,0.4,1.7,0.7c0,0,0.1,0,0.2,0C69.3,113.7,69.7,113.4,70.1,113.1z"/>
<g>
	<path class="st15" d="M63.2,107.2c-4,0-7.3-3.2-7.3-7.2v-9h16.2v9c0,4-3.3,7.2-7.3,7.2L63.2,107.2z"/>
	<path class="st16" d="M71.1,92.1v8c0,3.4-2.8,6.2-6.3,6.2h-1.7c-3.5,0-6.3-2.8-6.3-6.2v-8H71.1 M73.1,90.1H54.9v10
		c0,4.5,3.7,8.2,8.3,8.2h1.7c4.6,0,8.3-3.7,8.3-8.2L73.1,90.1L73.1,90.1z"/>
</g>
<g>
	
		<linearGradient id="SVGID_13_" gradientUnits="userSpaceOnUse" x1="64" y1="35.292" x2="64" y2="112.115" gradientTransform="matrix(1 0 0 -1 0 130)">
		<stop  offset="0" style="stop-color:#FFB300"/>
		<stop  offset="0.102" style="stop-color:#FFB809"/>
		<stop  offset="0.3707" style="stop-color:#FFC21A"/>
		<stop  offset="0.6592" style="stop-color:#FFC825"/>
		<stop  offset="1" style="stop-color:#FFCA28"/>
	</linearGradient>
	<path class="st17" d="M64,95.3c-2.3,0-4.9-0.5-7.6-1.4c-11.3-4-24.6-16.3-24.6-37.9C31.9,27.2,49.2,17,64,17s32.1,10.2,32.1,38.9
		c0,21.6-13.3,33.9-24.6,37.9C68.9,94.8,66.3,95.3,64,95.3z"/>
	<path class="st18" d="M64,18c8.4,0,16.1,3.3,21.6,9.1c6.3,6.7,9.6,16.7,9.6,28.8c0,21.1-12.9,33.1-23.9,37c-2.5,0.9-5,1.4-7.2,1.4
		c-2.2,0-4.7-0.5-7.2-1.4C45.7,89,32.9,77,32.9,56c0-12.1,3.3-22,9.6-28.8C47.9,21.3,55.6,18,64,18 M64,16
		C46.8,16,30.9,28.8,30.9,56c0,21.8,13.5,34.7,25.2,38.8c2.8,1,5.5,1.5,7.9,1.5c2.4,0,5.1-0.5,7.8-1.5c11.8-4.1,25.3-17,25.3-38.8
		C97.1,28.8,81.2,16,64,16z"/>
</g>
<g>
	<defs>
		<path id="SVGID_14_" d="M31.3,88.4l-1.5-51.1c0-16.9,15.6-29.7,32.3-29.7H67c16.7,0,32.1,12.8,32.1,29.7l-1.5,50.9L31.3,88.4z"/>
	</defs>
	<clipPath id="SVGID_15_">
		<use xlink:href="#SVGID_14_"  style="overflow:visible;"/>
	</clipPath>
	<g class="st19">
		
			<radialGradient id="SVGID_16_" cx="80.6476" cy="191.3662" r="48.2052" gradientTransform="matrix(0.7855 0 0 -0.7914 1.121 151.0776)" gradientUnits="userSpaceOnUse">
			<stop  offset="0" style="stop-color:#6D4C41"/>
			<stop  offset="1" style="stop-color:#543930"/>
		</radialGradient>
		<path class="st20" d="M101.9,42.4c0,0,1-35.4-37.3-35.4S27.1,42.4,27.1,42.4s0.3,45.2,3.2,51.1c2.8,5.9,7.1,5.7,7.1,5.7
			s-2-26.4-2.2-38.8c-0.1-2.9-0.9-13.7,5.1-15c22.1-5,34.5-16.8,34.5-16.8c3.2,7.1,13.4,14.1,17,16.8c3,2.2,2.6,11.1,2.5,14.9
			l-3,38.8c0,0,4.6,0.4,7.5-5.6C101.8,87.6,101.9,42.4,101.9,42.4z"/>
	</g>
</g>
<g>
	<path class="st15" d="M67.8,68.1c-0.1,0-0.2-0.1-0.3-0.1h-7c-0.1,0-0.2,0-0.3,0.1c-0.6,0.3-1,0.9-0.7,1.6s1.7,2.7,4.5,2.7
		c2.8,0,4.2-2,4.5-2.7C68.8,69,68.4,68.3,67.8,68.1z"/>
	<ellipse class="st21" cx="47.8" cy="58.9" rx="4.9" ry="5"/>
	<ellipse class="st21" cx="80.3" cy="58.9" rx="4.9" ry="5"/>
	<path class="st22" d="M55,49.8c-0.9-1.2-3.1-3-7.2-3s-6.3,1.8-7.2,3c-0.4,0.5-0.3,1.2,0,1.5c0.3,0.3,1,0.7,1.9,0.4s2.5-1.2,5.3-1.2
		c2.8,0,4.5,0.9,5.3,1.2s1.6,0,1.9-0.4C55.3,51,55.4,50.4,55,49.8z"/>
	<path class="st22" d="M87.5,49.8c-0.9-1.2-3.1-3-7.2-3s-6.3,1.8-7.2,3c-0.4,0.5-0.3,1.2,0,1.5c0.3,0.3,1,0.7,1.9,0.4
		s2.5-1.2,5.3-1.2c2.8,0,4.5,0.9,5.3,1.2s1.6,0,1.9-0.4C87.8,51,87.9,50.4,87.5,49.8z"/>
	<path class="st23" d="M72.3,76.1c-3.2,1.9-13.5,1.9-16.6,0c-1.8-1.1-3.7,0.6-2.9,2.2c0.7,1.6,6.4,5.4,11.2,5.4s10.4-3.8,11.2-5.4
		C75.9,76.7,74.1,75.1,72.3,76.1z"/>
</g>
<g>
	
		<radialGradient id="SVGID_17_" cx="76.0284" cy="211.6988" r="33.075" gradientTransform="matrix(0.9636 0.2674 0.2674 -0.9636 -100.7978 197.5568)" gradientUnits="userSpaceOnUse">
		<stop  offset="0.3533" style="stop-color:#FFCA28"/>
		<stop  offset="0.8723" style="stop-color:#FFB300"/>
	</radialGradient>
	<path class="st24" d="M25.6,45.7c-1.1,0-2.4-0.2-3.7-0.6c-0.7-0.2-2-0.5-3.6-0.8c-2.2-0.5-5.1-1.1-5.8-1.4
		c-0.4-0.2-2.6-3.5-1.3-11.2c0.5-2.9,1.7-9.8,1.7-9.8l1.6-10.9c0.2-1.4,0.9-2.2,2-2.2c0.2,0,0.4,0,0.6,0.1c0.6,0.1,1.4,0.6,1.3,2.7
		L18,18c0,0.6,0.4,1.1,0.9,1.2c0.1,0,0.1,0,0.2,0c0.5,0,1-0.4,1.1-0.9c0.4-1.6,2.1-9.7,2.5-11.1C23.3,5.2,24.1,5,24.7,5
		c0.2,0,0.3,0,0.5,0.1c1.8,0.4,1.5,2.6,1.4,3.1c-0.3,1.4-2.2,11.4-2.2,11.5c-0.1,0.6,0.2,1.2,0.8,1.3c0.1,0,0.2,0,0.2,0
		c0.5,0,1-0.4,1.1-0.9l4.1-13.5c0.3-1.2,1.2-2,2.1-2c0.3,0,0.5,0.1,0.8,0.2c1.1,0.5,1.2,1.9,0.9,3L31,21.6c-0.1,0.4,0.1,0.9,0.5,1
		c0,0,0.2,0,0.2,0c0.3,0,0.6-0.2,0.7-0.5l4.7-11.3c0.4-1.1,1.3-1.8,2.2-1.8c0.1,0,0.3,0,0.4,0.1c0.6,0.1,1,0.5,1.3,1
		c0.3,0.6,0.3,1.5,0,2.3c0,0.1-4.7,12.9-6,16.3c-0.1,0.4-0.1,0.7,0.1,1c0.2,0.3,0.6,0.5,0.9,0.5c0.2,0,0.3,0,0.5-0.1
		c0.7-0.3,1.2-0.8,1.9-1.4c1-0.9,2-1.7,3.3-1.9c0.3,0,0.6-0.1,0.9-0.1c1.7,0,2.7,0.8,3.1,1.4c0.2,0.4,0.3,1.5-0.1,2.2
		c-0.3,0.4-0.7,0.6-1.3,0.7c-2.5,0-7,3.6-8.8,6c-0.6,0.7-1.1,1.6-1.6,2.5C32.1,42.3,30.1,45.7,25.6,45.7z"/>
	<path class="st9" d="M32.8,5.1c0.2,0,0.4,0.1,0.6,0.1c1.1,0.5,0.7,2.1,0.6,2.4l-3.5,13.8c-0.2,0.7,0.2,1.4,0.9,1.6
		c0.1,0,0.3,0.1,0.4,0.1c0.5,0,1-0.3,1.2-0.8l4.7-11.4c0.3-0.9,1-1.5,1.7-1.5c0.1,0,0.2,0,0.3,0c0.4,0.1,0.8,0.4,1,0.7
		c0.3,0.5,0.3,1.2,0,1.9c0,0.1-4.7,12.8-6,16.3c-0.2,0.5-0.1,1.1,0.2,1.5c0.3,0.4,0.8,0.7,1.3,0.7c0.2,0,0.5,0,0.7-0.2
		c0.7-0.3,1.3-0.9,2-1.4c0.9-0.8,1.9-1.6,3.1-1.8c0.3,0,0.6-0.1,0.8-0.1c1.5,0,2.4,0.6,2.6,1.1c0.2,0.3,0.2,1.2-0.1,1.7
		c-0.1,0.2-0.3,0.4-0.9,0.4c-2.9,0-7.5,4-9.2,6.1c-0.6,0.7-1.1,1.6-1.7,2.5c-1.8,3-3.7,6.1-7.9,6.1c-1.1,0-2.3-0.2-3.6-0.6
		c-0.7-0.2-2.1-0.5-3.7-0.8c-1.9-0.4-5.1-1-5.6-1.4c-0.4-0.3-2.3-3.6-1.1-10.7c0.5-2.9,1.7-9.8,1.7-9.8L15,10.9
		c0.1-0.9,0.6-1.8,1.5-1.8c0.1,0,0.3,0,0.5,0.1c0.3,0.1,1,0.3,0.9,2.2L17.5,18c0,0.8,0.5,1.5,1.3,1.7c0.1,0,0.2,0,0.3,0
		c0.8,0,1.4-0.5,1.6-1.3c1-4.7,2.2-10,2.5-11.1c0.5-1.8,1.2-1.8,1.5-1.8c0.1,0,0.3,0,0.4,0.1c1.4,0.3,1.1,2.1,1,2.5
		c-0.3,1.4-2.1,11.1-2.2,11.5c-0.2,0.9,0.4,1.8,1.2,2c0.1,0,0.2,0,0.3,0c0.7,0,1.4-0.5,1.6-1.2l4.1-13.6C31.4,5.8,32,5.1,32.8,5.1
		 M32.8,4.1c-1.2,0-2.2,1-2.6,2.4L26,20c-0.1,0.3-0.3,0.5-0.6,0.5c0,0-0.1,0-0.1,0h0c-0.3-0.1-0.5-0.4-0.4-0.8c0,0,1.9-10,2.2-11.5
		s0-3.3-1.8-3.7c-0.2-0.1-0.4-0.1-0.6-0.1c-1.4,0-2,1.1-2.4,2.5c-0.4,1.4-2,8.9-2.5,11.1c-0.1,0.3-0.3,0.5-0.6,0.5c0,0-0.1,0-0.1,0
		c-0.3-0.1-0.5-0.3-0.5-0.6l0.4-6.5c0.1-1.6-0.3-2.9-1.7-3.2c-0.2-0.1-0.5-0.1-0.7-0.1c-1.4,0-2.3,1.1-2.5,2.7l-1.6,10.9
		c0,0-1.2,6.9-1.7,9.8c-1.3,7.5,0.8,11.2,1.5,11.7c1.1,0.7,7.8,1.8,9.5,2.3c1.5,0.5,2.7,0.7,3.9,0.7c6.1,0,8-5.9,10.3-9
		c1.8-2.2,6.1-5.7,8.4-5.8s2.3-2.7,1.8-3.6c-0.4-0.9-1.7-1.7-3.5-1.7c-0.3,0-0.6,0-1,0.1c-2.4,0.3-3.8,2.6-5.3,3.3
		c-0.1,0-0.2,0.1-0.3,0.1c-0.4,0-0.7-0.4-0.6-0.9c1.3-3.5,6-16.3,6-16.3c0.7-1.7,0.1-3.5-1.6-3.9c-0.2-0.1-0.4-0.1-0.6-0.1
		c-1.2,0-2.1,0.9-2.6,2.2L32,21.9c0,0.1-0.2,0.2-0.3,0.2c0,0,0,0-0.1,0h0c-0.1,0-0.2-0.2-0.2-0.4L35,7.9c0.4-1.5,0.1-3-1.2-3.6
		C33.4,4.2,33.1,4.1,32.8,4.1z"/>
	<path class="st9" d="M34.9,29.3c-4.1,0.1-8.1,3.1-10.4,6.8c-0.4,0.6,0.2,0.9,0.5,0.4c2-3.2,6.3-5.7,9.9-5.5c0.5,0,1.8-0.4,1.8-0.4
		l-0.9-0.7C35.9,29.8,35.6,29.4,34.9,29.3z"/>
</g>
</svg>
