<?xml version="1.0" encoding="utf-8"?>
<!-- Generator: Adobe Illustrator 21.0.2, SVG Export Plug-In . SVG Version: 6.00 Build 0)  -->
<svg version="1.0" id="Layer_1" xmlns="http://www.w3.org/2000/svg" xmlns:xlink="http://www.w3.org/1999/xlink" x="0px" y="0px"
	 viewBox="0 0 128 128" style="enable-background:new 0 0 128 128;" xml:space="preserve">
<style type="text/css">
	.st0{fill:#E59242;}
	.st1{fill:url(#SVGID_1_);}
	.st2{fill:#DD4400;}
	.st3{fill:url(#SVGID_2_);}
	.st4{fill:url(#SVGID_3_);}
	.st5{fill:url(#SVGID_4_);}
	.st6{fill:url(#SVGID_5_);}
	.st7{clip-path:url(#SVGID_7_);fill:#FF8282;}
	.st8{fill:url(#SVGID_8_);}
	.st9{fill:url(#SVGID_9_);}
	.st10{fill:none;stroke:#DD4400;stroke-width:4;stroke-linecap:round;stroke-linejoin:round;stroke-miterlimit:10;}
	.st11{fill:url(#SVGID_10_);}
	.st12{fill:url(#SVGID_11_);}
</style>
<path class="st0" d="M38.3,16.8L38.3,16.8"/>
<linearGradient id="SVGID_1_" gradientUnits="userSpaceOnUse" x1="53.6354" y1="53.4434" x2="4.1743" y2="11.9406">
	<stop  offset="0" style="stop-color:#BF4A00"/>
	<stop  offset="0.4369" style="stop-color:#E94E00"/>
	<stop  offset="0.4389" style="stop-color:#E94F02"/>
	<stop  offset="0.5069" style="stop-color:#EE783C"/>
	<stop  offset="0.5766" style="stop-color:#F39C70"/>
	<stop  offset="0.6464" style="stop-color:#F6BA9C"/>
	<stop  offset="0.7164" style="stop-color:#FAD3C0"/>
	<stop  offset="0.7865" style="stop-color:#FCE6DC"/>
	<stop  offset="0.8569" style="stop-color:#FEF4EF"/>
	<stop  offset="0.9278" style="stop-color:#FFFCFB"/>
	<stop  offset="1" style="stop-color:#FFFFFF"/>
</linearGradient>
<path class="st1" d="M41.8,54.4c-9.9,0-22.5-1.7-27.1-10C7.9,31.9,7.5,13.3,7.6,7.9c6.5,0.6,31.9,3.6,38.7,16.1
	c6.8,12.4,7.2,25.7,7.1,29.7C51.4,54,47,54.4,41.8,54.4z"/>
<path class="st2" d="M9.1,9.5c3.2,0.3,8.4,1,13.9,2.4c7.9,2,18.2,5.8,22,12.8c6,10.9,6.8,22.7,6.9,27.7C49.6,52.6,46,53,41.8,53
	c-18,0-23.9-5.8-25.8-9.2C10,32.6,9.1,16.3,9.1,9.5 M6.1,6.3c0,0-1,23.7,7.3,38.9C18.3,54.1,31.6,56,41.8,56c7.3,0,13-0.9,13-0.9
	s1.1-16.5-7.3-31.8S6.1,6.3,6.1,6.3z"/>
<linearGradient id="SVGID_2_" gradientUnits="userSpaceOnUse" x1="74.5865" y1="31.15" x2="120.4224" y2="31.15">
	<stop  offset="0" style="stop-color:#BF4A00"/>
	<stop  offset="0.4369" style="stop-color:#E94E00"/>
	<stop  offset="0.4389" style="stop-color:#E94F02"/>
	<stop  offset="0.5069" style="stop-color:#EE783C"/>
	<stop  offset="0.5766" style="stop-color:#F39C70"/>
	<stop  offset="0.6464" style="stop-color:#F6BA9C"/>
	<stop  offset="0.7164" style="stop-color:#FAD3C0"/>
	<stop  offset="0.7865" style="stop-color:#FCE6DC"/>
	<stop  offset="0.8569" style="stop-color:#FEF4EF"/>
	<stop  offset="0.9278" style="stop-color:#FFFCFB"/>
	<stop  offset="1" style="stop-color:#FFFFFF"/>
</linearGradient>
<path class="st3" d="M86.2,54.4c-5.1,0-9.5-0.5-11.6-0.8c-0.1-4,0.3-17.4,7.1-29.7c6.9-12.5,32.2-15.5,38.7-16.1
	c0,5.4-0.3,24.1-7.2,36.6C108.7,52.7,96,54.4,86.2,54.4z"/>
<path class="st2" d="M118.9,9.5c-0.1,6.8-0.9,23-7,34.2c-1.9,3.4-7.7,9.2-25.8,9.2c-4.1,0-7.8-0.3-10.1-0.6c0.1-5,0.9-16.7,6.9-27.7
	C86.8,17.8,97,14,104.9,12C110.5,10.6,115.7,9.9,118.9,9.5 M121.9,6.3c0,0-33.1,1.7-41.5,17S73.1,55,73.1,55s5.7,0.9,13,0.9
	c10.2,0,23.5-1.8,28.4-10.8C122.9,29.9,121.9,6.3,121.9,6.3z"/>
<path class="st2" d="M94.8,32c-4.3,9,1.4,21.3,1.4,21.3S108.7,51.1,113,42s2.1-21.3,2.1-21.3S99,23,94.8,32z"/>
<path class="st2" d="M33.1,32c4.3,9-1.4,21.3-1.4,21.3S19.1,51.1,14.8,42s-2.1-21.3-2.1-21.3S28.8,23,33.1,32z"/>
<linearGradient id="SVGID_3_" gradientUnits="userSpaceOnUse" x1="63.91" y1="10.88" x2="63.91" y2="116.55" gradientTransform="matrix(1 0 0 -1 0 130)">
	<stop  offset="0" style="stop-color:#BF4A00"/>
	<stop  offset="0.4045" style="stop-color:#E94E00"/>
	<stop  offset="0.4066" style="stop-color:#E94F02"/>
	<stop  offset="0.4785" style="stop-color:#EE783C"/>
	<stop  offset="0.5522" style="stop-color:#F39C70"/>
	<stop  offset="0.6261" style="stop-color:#F6BA9C"/>
	<stop  offset="0.7" style="stop-color:#FAD3C0"/>
	<stop  offset="0.7742" style="stop-color:#FCE6DC"/>
	<stop  offset="0.8486" style="stop-color:#FEF4EF"/>
	<stop  offset="0.9236" style="stop-color:#FFFCFB"/>
	<stop  offset="1" style="stop-color:#FFFFFF"/>
</linearGradient>
<path class="st4" d="M64,119.1c-12.6-0.2-23.8-8-32-13.8l-1.3-0.9c-7.8-5.4-16.6-8.4-25.5-8.5c9.8-19.9,9.8-20.8,9.7-21.4
	c-0.1-0.8-0.7-1.5-1.5-1.5H5.3l4.7-8.1c3.4-6,6.6-12.4,10.4-21c8.5-19.4,24.3-30.4,43.4-30.4l0.6,0c18.7,0.2,34.2,11.1,42.5,29.7
	c3.8,8.5,6.9,14.7,10.2,20.4l5.4,9.4H114c-0.8,0-1.4,0.7-1.5,1.5c0,0.6-0.1,1.3,10.1,21.4c-9.1,0.2-18,3.3-26,8.8
	c-0.9,0.6-1.8,1.3-2.7,1.9c-7.8,5.6-17.6,12.5-29.6,12.5L64,119.1z"/>
<path class="st2" d="M63.8,15h0.6c18.1,0.2,33.1,10.7,41.2,28.8c3.8,8.5,7,15,10.3,20.8L120,72H114c-1.6,0-2.9,1.1-3,2.7
	c-0.1,1-0.1,1.6,9.2,20c-8.5,0.7-16.9,3.7-24.4,8.9c-0.9,0.6-1.8,1.2-2.7,1.9c-7.7,5.4-17.2,12.2-28.8,12.2l-0.4,0
	c-12.1-0.2-23.1-7.9-31.2-13.5l-1.3-0.9c-7.4-5.1-15.6-8.1-24-8.7c9-18.2,8.9-18.8,8.9-19.9c-0.1-1.6-1.4-2.7-3-2.7H7.9l3.4-6.2
	c3.4-6,6.6-12.6,10.4-21.3C30,25.8,45.3,15,63.8,15 M63.8,12c-21.7,0-37,13.7-44.8,31.3c-3.1,7.1-6.4,14.2-10.3,20.9l-5,8.9
	C3.3,73.9,3.8,75,4.6,75h8.8c0.1,1-7.1,15.9-9.6,20.9C3.4,96.7,4,97.5,5,97.5v0c9,0,17.6,3,25.1,8.2c8.3,5.8,20.3,14.8,34.1,14.9
	h0.3c14,0,24.7-9,33.2-14.9c7.7-5.4,16.8-8.8,26.2-8.8h0c0.6,0,1-0.3,0.7-0.9C122.1,91.5,114,76,114,75h8.8c1,0,1.7-1.2,1.2-2.1
	l-5.5-9.8c-3.8-6.6-7-13.5-10.2-20.5C100.6,25.5,85.6,12.3,64.4,12C64.2,12,64,12,63.8,12L63.8,12z"/>
<linearGradient id="SVGID_4_" gradientUnits="userSpaceOnUse" x1="64.0023" y1="93.7646" x2="64.0023" y2="13.29" gradientTransform="matrix(1 0 0 -1 0 130)">
	<stop  offset="3.518300e-03" style="stop-color:#FFFFFF"/>
	<stop  offset="0.2881" style="stop-color:#FCFCFC"/>
	<stop  offset="0.4902" style="stop-color:#F3F3F3"/>
	<stop  offset="0.6668" style="stop-color:#E3E3E3"/>
	<stop  offset="0.8278" style="stop-color:#CDCDCD"/>
	<stop  offset="0.9698" style="stop-color:#B3B3B3"/>
</linearGradient>
<path class="st5" d="M103.5,61.7c-0.3-8.1-2.3-19.7-9.7-23.9c-10.6-6-21.1,6.4-20.9,17.1c0.2,14,12.6,30.7,2.9,43.8
	c-2.8,3.8-6.8,5.5-11.8,5.4c-5,0.1-8.8-1.7-11.5-5.4c-9.7-13.2,2.5-29.9,2.7-43.8c0.1-10.7-10.4-23.1-21-17.1
	c-7.4,4.2-9.4,15.8-9.7,23.9c-0.5,14.8,3.9,29.6,13.9,40.1c8.3,8.9,15.7,14.7,25.7,14.9c8-0.2,17.7-6,26-14.9
	C100,91.3,104.1,76.5,103.5,61.7L103.5,61.7z"/>
<ellipse cx="43.7" cy="58.6" rx="6.4" ry="7.4"/>
<ellipse cx="84.4" cy="58.6" rx="6.4" ry="7.4"/>
<linearGradient id="SVGID_5_" gradientUnits="userSpaceOnUse" x1="64.063" y1="38.925" x2="64.063" y2="56.1816" gradientTransform="matrix(1 0 0 -1 0 130)">
	<stop  offset="0" style="stop-color:#000000"/>
	<stop  offset="0.3547" style="stop-color:#262626"/>
	<stop  offset="0.8372" style="stop-color:#575757"/>
</linearGradient>
<path class="st6" d="M64.4,91.4c-4.8,0-11.2-3.6-11.2-8.1v-0.2c0-4.4,4.4-9.1,9.2-9.1h3.5c4.8,0,9.2,4.7,9.2,9.1v0.1
	C75,87.7,69.2,91.4,64.4,91.4z"/>
<path d="M91.5,88c-0.1-0.2-0.3-0.3-0.8-0.3c-1.2,0-1.9,1.1-2.6,1.8c-0.6,0.7-1.2,1.4-1.8,2.1c-1.7,1.8-3.7,3.2-6.1,4.3
	c-5.1,2.4-7.5,1.6-7.5,1.6c-0.8-0.3-1.7-0.3-2.5-0.6c-2.1-0.8-3.7-1.9-6.1-1.9c-1.5,0-3.1,0.3-4.4,1c-1.4,0.7-2.7,1.4-4.4,1.6
	c0,0-2.3,0.8-7.4-1.6c-1.9-0.9-3.7-2-5.2-3.4c-1.4-1.4-2.5-2.9-4-4.2c-0.2-0.2-0.5-0.4-0.8-0.5c-0.4-0.1-1.1-0.1-1.3,0.3
	c-0.3,0.4,0,0.8,0.2,1.2c2.7,5,9.4,22.1,27.2,22.1s24.4-16.9,27.2-22.1C91.5,88.8,91.7,88.3,91.5,88z"/>
<g>
	<defs>
		<path id="SVGID_6_" d="M74,100.4c0,5,1,17.8-9.9,17.8s-10.9-12.8-10.9-17.8v-1.6c0-5,4-9,9-9H65c5,0,9,4,9,9V100.4z"/>
	</defs>
	<clipPath id="SVGID_7_">
		<use xlink:href="#SVGID_6_"  style="overflow:visible;"/>
	</clipPath>
	<path class="st7" d="M46.8,108.8c0-5.4,8-11.3,17.8-11.3s17.8,5.8,17.8,11.3c0,5.4-8,9.8-17.8,9.8S46.8,114.2,46.8,108.8z"/>
</g>
<g>
	
		<linearGradient id="SVGID_8_" gradientUnits="userSpaceOnUse" x1="110.5253" y1="12.8021" x2="136.3751" y2="59.626" gradientTransform="matrix(0.9989 4.514815e-02 0.4189 -0.9821 -111.6026 127.5017)">
		<stop  offset="0" style="stop-color:#BF4A00"/>
		<stop  offset="0.4045" style="stop-color:#E94E00"/>
		<stop  offset="0.4066" style="stop-color:#E94F02"/>
		<stop  offset="0.4785" style="stop-color:#EE783C"/>
		<stop  offset="0.5522" style="stop-color:#F39C70"/>
		<stop  offset="0.6261" style="stop-color:#F6BA9C"/>
		<stop  offset="0.7" style="stop-color:#FAD3C0"/>
		<stop  offset="0.7742" style="stop-color:#FCE6DC"/>
		<stop  offset="0.8486" style="stop-color:#FEF4EF"/>
		<stop  offset="0.9236" style="stop-color:#FFFCFB"/>
		<stop  offset="1" style="stop-color:#FFFFFF"/>
	</linearGradient>
	<path class="st8" d="M19.6,123.3c-4.1,0-7.8-2.6-8.9-6.1c-2.5-7.8,10.7-32.1,15-40.1c0.3-0.6,0.6-1.1,0.8-1.5l19,7.2
		c-5.4,12.8-8.3,18.2-14,28.7c-1.2,2.1-2.4,4.4-3.8,7.1C25.9,121.6,23,123.4,19.6,123.3z"/>
	<path class="st2" d="M27.2,77.6l16.2,6.2c-5,11.7-7.9,17.1-13.3,27c-1.2,2.1-2.4,4.4-3.8,7.1c-1.8,3.4-4.9,3.9-6.6,3.9
		c-3.4,0-6.5-2.1-7.4-5c-1-3.3,0.7-12.7,14.8-38.9C27.1,77.8,27.1,77.7,27.2,77.6 M25.7,73.7c-2.6,5-19.5,34.5-16.5,44
		c1.4,4.5,5.9,7.2,10.4,7.2c3.6,0,7.2-1.7,9.3-5.6c8.6-15.9,11.6-20.6,18.6-37.4C47.5,82,25.7,73.7,25.7,73.7z"/>
	
		<linearGradient id="SVGID_9_" gradientUnits="userSpaceOnUse" x1="18.6296" y1="65.9815" x2="59.3509" y2="65.9815" gradientTransform="matrix(1 6.053715e-03 -6.053715e-03 1 0.6724 -0.7146)">
		<stop  offset="3.518300e-03" style="stop-color:#FFFFFF"/>
		<stop  offset="0.2881" style="stop-color:#FCFCFC"/>
		<stop  offset="0.4902" style="stop-color:#F3F3F3"/>
		<stop  offset="0.6668" style="stop-color:#E3E3E3"/>
		<stop  offset="0.8278" style="stop-color:#CDCDCD"/>
		<stop  offset="0.9698" style="stop-color:#B3B3B3"/>
	</linearGradient>
	<path class="st9" d="M39,86.2c-9.9-0.1-16.9-9.4-19.3-18c-1.3-5-0.8-8.4,0.5-9.1c0.6-0.3,1-0.5,1.5-0.5c1.1,0,2.6,1,4.9,3.1
		c0.3,0.3,0.7,0.4,1.1,0.4c0.1,0,0.2,0,0.3,0c0.5-0.1,0.9-0.5,1.1-0.9c1.8-4.4,3.6-7.5,6-10.6c3-3.9,7.1-5.1,9.9-5.5
		c0.7-0.1,1.4-0.1,2.1-0.1c2.1,0,4.2,0.4,5.8,1.2c5.9,2.8,6.7,9.8,6.7,13.8C59.6,70,53.9,81.2,47.3,84.2
		C44.4,85.5,41.6,86.2,39,86.2z"/>
	<path class="st2" d="M47.1,46.4c1.9,0,3.8,0.4,5.1,1c5.1,2.5,5.8,8.8,5.8,12.4c-0.1,9.6-5.3,20.2-11.5,23C44,84,41.4,84.6,39,84.6
		c-8.7-0.1-14.6-8-17.1-14.7c-2-5.5-1.4-9-0.8-9.5c0.2-0.1,0.5-0.3,0.7-0.3c0.4,0,1.4,0.4,3.9,2.7c0.6,0.5,1.3,0.8,2.1,0.8
		c0.2,0,0.4,0,0.7-0.1c1-0.2,1.8-0.9,2.2-1.9c1.8-4.2,3.5-7.3,5.8-10.3c2.7-3.5,6.3-4.6,8.8-4.9C45.9,46.5,46.5,46.4,47.1,46.4
		 M47.2,43.3c-0.7,0-1.5,0-2.3,0.1c-3.8,0.5-7.9,2.2-10.9,6.1c-2.4,3.1-4.3,6.4-6.2,11c-2.6-2.4-4.4-3.5-6-3.5
		c-0.8,0-1.5,0.2-2.3,0.7c-6.2,3.7,1.9,30,19.5,30.1c2.8,0,5.8-0.6,9-2.1c12.4-5.7,19.6-34.3,5.7-41C52.1,43.9,49.7,43.3,47.2,43.3z
		"/>
	<path class="st10" d="M47.9,45.8l-6.5,11.8"/>
	<path class="st10" d="M55.9,49c-1.6,4.1-3.5,8.1-5.5,12.1"/>
</g>
<g>
	
		<linearGradient id="SVGID_10_" gradientUnits="userSpaceOnUse" x1="265.9471" y1="19.9472" x2="291.7968" y2="66.771" gradientTransform="matrix(-0.9989 4.514815e-02 -0.4189 -0.9821 400.812 127.5017)">
		<stop  offset="0" style="stop-color:#BF4A00"/>
		<stop  offset="0.4045" style="stop-color:#E94E00"/>
		<stop  offset="0.4066" style="stop-color:#E94F02"/>
		<stop  offset="0.4785" style="stop-color:#EE783C"/>
		<stop  offset="0.5522" style="stop-color:#F39C70"/>
		<stop  offset="0.6261" style="stop-color:#F6BA9C"/>
		<stop  offset="0.7" style="stop-color:#FAD3C0"/>
		<stop  offset="0.7742" style="stop-color:#FCE6DC"/>
		<stop  offset="0.8486" style="stop-color:#FEF4EF"/>
		<stop  offset="0.9236" style="stop-color:#FFFCFB"/>
		<stop  offset="1" style="stop-color:#FFFFFF"/>
	</linearGradient>
	<path class="st11" d="M103.4,118.6c-1.4-2.6-2.7-4.9-3.8-7.1c-5.7-10.4-8.7-15.9-14-28.7l19-7.2c0.2,0.4,0.5,0.9,0.8,1.5
		c4.3,8,17.4,32.3,15,40.1c-1.1,3.6-4.8,6.1-8.9,6.1C108,123.4,105.1,121.6,103.4,118.6z"/>
	<path class="st2" d="M103.8,77.6c0,0.1,0.1,0.2,0.2,0.3c14.1,26.2,15.9,35.6,14.8,38.9c-0.9,3-4,5-7.4,5c-1.7,0-4.7-0.5-6.6-3.9
		c-1.4-2.6-2.7-4.9-3.8-7.1c-5.5-10-8.4-15.4-13.3-27L103.8,77.6 M83.5,82c7,16.7,10,21.5,18.6,37.4c2.1,3.9,5.7,5.6,9.3,5.6
		c4.5,0,9-2.7,10.4-7.2c3-9.5-13.9-39-16.5-44C105.3,73.7,83.5,82,83.5,82z"/>
	
		<linearGradient id="SVGID_11_" gradientUnits="userSpaceOnUse" x1="176.8771" y1="65.0235" x2="217.5984" y2="65.0235" gradientTransform="matrix(-1 6.053715e-03 6.053715e-03 1 288.5371 -0.7146)">
		<stop  offset="3.518300e-03" style="stop-color:#FFFFFF"/>
		<stop  offset="0.2881" style="stop-color:#FCFCFC"/>
		<stop  offset="0.4902" style="stop-color:#F3F3F3"/>
		<stop  offset="0.6668" style="stop-color:#E3E3E3"/>
		<stop  offset="0.8278" style="stop-color:#CDCDCD"/>
		<stop  offset="0.9698" style="stop-color:#B3B3B3"/>
	</linearGradient>
	<path class="st12" d="M83.7,84.2c-6.6-3-12.3-14.2-12.4-24.4c0-3.9,0.8-10.9,6.7-13.8c1.6-0.8,3.7-1.2,5.8-1.2c0.7,0,1.4,0,2.1,0.1
		c2.8,0.3,6.9,1.6,9.9,5.5c2.4,3.1,4.2,6.3,6,10.6c0.2,0.5,0.6,0.8,1.1,0.9c0.1,0,0.2,0,0.3,0c0.4,0,0.8-0.2,1.1-0.4
		c2.3-2.2,3.8-3.1,4.9-3.1c0.5,0,0.9,0.2,1.5,0.5c1.3,0.8,1.9,4.2,0.5,9.1c-2.4,8.6-9.4,18-19.3,18C89.3,86.2,86.5,85.5,83.7,84.2z"
		/>
	<path class="st2" d="M83.8,46.4c0.6,0,1.2,0,1.8,0.1c2.5,0.3,6.1,1.4,8.8,4.9c2.3,3,4,6,5.8,10.3c0.4,0.9,1.2,1.6,2.2,1.9
		c0.2,0.1,0.5,0.1,0.7,0.1c0.8,0,1.5-0.3,2.1-0.8c2.5-2.3,3.5-2.7,3.9-2.7c0.2,0,0.5,0.2,0.7,0.3c0.6,0.5,1.2,4-0.8,9.5
		c-2.5,6.8-8.4,14.7-17.1,14.7c-2.4,0-5-0.6-7.7-1.8C78.2,80,73,69.5,72.9,59.8c0-3.6,0.7-9.9,5.8-12.4C80,46.8,81.9,46.5,83.8,46.4
		 M77.3,44.7c-13.9,6.7-6.7,35.3,5.7,41c3.2,1.5,6.2,2.1,9,2.1c17.6-0.1,25.7-26.4,19.5-30.1c-0.8-0.5-1.5-0.7-2.3-0.7
		c-1.6,0-3.4,1.1-6,3.5c-1.9-4.6-3.8-7.9-6.2-11c-3-3.9-7.1-5.6-10.9-6.1c-0.8-0.1-1.5-0.1-2.3-0.1C81.2,43.3,78.9,43.9,77.3,44.7z"
		/>
	<path class="st10" d="M89.6,57.5l-6.5-11.8"/>
	<path class="st10" d="M80.6,61.1c-2.1-3.9-3.9-8-5.5-12.1"/>
</g>
</svg>
