<?xml version="1.0" encoding="utf-8"?>
<!-- Generator: Adobe Illustrator 21.0.2, SVG Export Plug-In . SVG Version: 6.00 Build 0)  -->
<svg version="1.0" id="Layer_1" xmlns="http://www.w3.org/2000/svg" xmlns:xlink="http://www.w3.org/1999/xlink" x="0px" y="0px"
	 viewBox="0 0 128 128" style="enable-background:new 0 0 128 128;" xml:space="preserve">
<style type="text/css">
	.st0{fill:url(#SVGID_1_);}
	.st1{fill:#DD4400;}
	.st2{fill:url(#SVGID_2_);}
	.st3{fill:url(#SVGID_3_);}
	.st4{fill:url(#SVGID_4_);}
	.st5{fill:url(#SVGID_5_);}
	.st6{fill:url(#SVGID_6_);}
	.st7{fill:url(#SVGID_7_);stroke:#BA2700;stroke-miterlimit:10;}
	.st8{fill:#E59242;}
	.st9{fill:url(#SVGID_8_);}
	.st10{fill:url(#SVGID_9_);}
	.st11{fill:url(#SVGID_10_);}
	.st12{fill:url(#SVGID_11_);}
	.st13{fill:url(#SVGID_12_);}
	.st14{clip-path:url(#SVGID_14_);fill:#FF8282;}
</style>
<linearGradient id="SVGID_1_" gradientUnits="userSpaceOnUse" x1="101.0679" y1="107.964" x2="101.0679" y2="61.872" gradientTransform="matrix(1 0 0 -1 0 130)">
	<stop  offset="0" style="stop-color:#BF4A00"/>
	<stop  offset="0.4045" style="stop-color:#E94E00"/>
	<stop  offset="0.4066" style="stop-color:#E94F02"/>
	<stop  offset="0.4785" style="stop-color:#EE783C"/>
	<stop  offset="0.5522" style="stop-color:#F39C70"/>
	<stop  offset="0.6261" style="stop-color:#F6BA9C"/>
	<stop  offset="0.7" style="stop-color:#FAD3C0"/>
	<stop  offset="0.7742" style="stop-color:#FCE6DC"/>
	<stop  offset="0.8486" style="stop-color:#FEF4EF"/>
	<stop  offset="0.9236" style="stop-color:#FFFCFB"/>
	<stop  offset="1" style="stop-color:#FFFFFF"/>
</linearGradient>
<path class="st0" d="M98.3,67.6c-0.6,0-1.1,0-1.7,0c-0.5,0-0.9-0.4-1-0.9s0.2-1,0.7-1.2c0.2-0.1,0.5-0.2,0.7-0.3
	c4.3-1.6,14.3-5.2,11.5-16.9c-0.7-3-2.3-4.4-5.6-5c-0.4-0.1-0.8-0.1-1.2-0.1c-2.3,0-4.3,1.4-6.6,4.9c-1.2,1.7-3.4,2.7-6,2.7
	c-4,0-8.5-2.3-9.4-6.8c-1.1-6.2,0.8-9.8,3.5-12.5c-0.2,0-0.3,0-0.4,0.1c-0.1,0-0.1,0-0.2,0c-0.4,0-0.7-0.2-0.9-0.5
	c-0.2-0.4-0.2-0.9,0.1-1.2c1.5-1.8,3.8-3.1,6.2-3.9c-0.4-0.1-0.8-0.3-1.1-0.4c-0.4-0.1-0.7-0.5-0.8-0.9s0.2-0.9,0.6-1
	c1.3-0.6,2.8-0.9,4.6-0.9c1.5,0,3.1,0.2,4.6,0.6l-0.4-0.7c-0.2-0.4-0.2-0.8,0-1.2c0.2-0.3,0.5-0.5,0.9-0.5c0.1,0,0.1,0,0.2,0
	c5.4,1,12.2,2.7,16,6c3.7,3,15.4,14.3,7,30.6C115.2,66.4,106.8,67.6,98.3,67.6z"/>
<path class="st1" d="M96.5,22.2c4.8,0.9,11.8,2.5,15.5,5.8c7,5.7,13.5,16.2,6.7,29.3c-4.2,8.1-12.3,9.3-20.4,9.3c-0.6,0-1.1,0-1.6,0
	c3.4-1.3,16.1-5,12.9-18.4c-0.8-3.5-2.9-5.2-6.4-5.8c-0.5-0.1-1-0.1-1.4-0.1c-2.7,0-5,1.6-7.5,5.3c-1,1.5-3,2.3-5.1,2.3
	c-3.6,0-7.6-2.1-8.3-6c-1.3-7.2,1.9-10.7,5.7-13.7c-0.9,0.1-2.9,0.3-3.9,0.4c2-2.4,6.1-4,9.2-4.4c-1.1-0.3-3.4-1.2-4.6-1.5
	c1.2-0.5,2.6-0.8,4.1-0.8c2.6,0,5.3,0.7,7.3,1.7C98,24.4,97.3,23.3,96.5,22.2 M96.5,20.1c-0.7,0-1.3,0.3-1.8,0.9
	c-0.2,0.3-0.3,0.6-0.3,1c-1-0.2-2-0.3-2.9-0.3c-1.9,0-3.6,0.3-5,1c-0.8,0.4-1.3,1.2-1.2,2.1c0,0.4,0.2,0.8,0.4,1.1
	c-1.8,0.9-3.4,2-4.6,3.3c-0.6,0.7-0.7,1.6-0.2,2.4c0.1,0.2,0.3,0.4,0.5,0.6c-2.3,2.8-3.6,6.5-2.6,12c0.9,5,5.9,7.7,10.4,7.7
	c3,0,5.5-1.2,6.9-3.2c2.6-3.9,4.3-4.4,5.7-4.4c0.3,0,0.7,0,1,0.1c2.9,0.5,4.1,1.6,4.7,4.2c2.2,9.5-4.2,13.2-10.9,15.7
	c-0.3,0.1-0.5,0.2-0.8,0.3c-0.9,0.4-1.5,1.3-1.3,2.3s1,1.7,2.1,1.7c0.6,0,1.1,0,1.7,0c8.4,0,17.6-1.2,22.3-10.4
	c8.8-17-3.3-28.7-7.3-31.9c-4-3.5-10.9-5.1-16.4-6.2C96.8,20.1,96.7,20.1,96.5,20.1L96.5,20.1z"/>
<linearGradient id="SVGID_2_" gradientUnits="userSpaceOnUse" x1="80.4748" y1="42.24" x2="121.5544" y2="42.24">
	<stop  offset="3.518300e-03" style="stop-color:#FFFFFF"/>
	<stop  offset="0.2881" style="stop-color:#FCFCFC"/>
	<stop  offset="0.4902" style="stop-color:#F3F3F3"/>
	<stop  offset="0.6668" style="stop-color:#E3E3E3"/>
	<stop  offset="0.8278" style="stop-color:#CDCDCD"/>
	<stop  offset="0.9698" style="stop-color:#B3B3B3"/>
</linearGradient>
<path class="st2" d="M119.1,56.5c6.2-12.6-0.5-23.4-7.5-28.9c-3.7-3.1-10.2-4.4-15-5.4c0.7,1.1,1.5,2.2,2.2,3.3
	c-3.1-1.5-8-2.4-11.3-0.9c1.1,0.3,3.4,1.1,4.5,1.5c-3.1,0.4-7.2,2-9.2,4.3c0.9-0.1,2.9-0.3,3.8-0.4c-3.8,2.8-7.3,6.2-5.9,13.3
	c0.3,1.5,0.9,3.4,2.4,3.8c1.1,0.3,2.6,0.1,3.3-2.2c1.3-4.5,0.8-9,8.5-13.5s19.2,0.1,22.3,11.6c2.2,8-2.2,19-2.3,19.2
	C116.6,60.9,118,58.8,119.1,56.5z"/>
<linearGradient id="SVGID_3_" gradientUnits="userSpaceOnUse" x1="25.7075" y1="7.71" x2="25.7075" y2="39.512" gradientTransform="matrix(1 0 0 -1 0 130)">
	<stop  offset="0" style="stop-color:#BF4A00"/>
	<stop  offset="0.4369" style="stop-color:#E94E00"/>
	<stop  offset="0.4389" style="stop-color:#E94F02"/>
	<stop  offset="0.5069" style="stop-color:#EE783C"/>
	<stop  offset="0.5766" style="stop-color:#F39C70"/>
	<stop  offset="0.6464" style="stop-color:#F6BA9C"/>
	<stop  offset="0.7164" style="stop-color:#FAD3C0"/>
	<stop  offset="0.7865" style="stop-color:#FCE6DC"/>
	<stop  offset="0.8569" style="stop-color:#FEF4EF"/>
	<stop  offset="0.9278" style="stop-color:#FFFCFB"/>
	<stop  offset="1" style="stop-color:#FFFFFF"/>
</linearGradient>
<path class="st3" d="M16.1,122.9c-0.2,0-0.4-0.1-0.5-0.2c-0.1-0.1-0.2-0.2-0.1-0.5c0-0.3,0.1-0.5,0.1-0.8c0.3-3,0.7-5.6,2.9-5.8
	c1.2-0.1,2-0.1,2.6-0.1c1.3,0,2.6,0,2.6-1.5c0-1.2,0-1.3-0.1-2c-0.1-0.2-0.1-0.5-0.3-1.1c-0.8-3.7-2-8-3.4-12.6
	C18.2,92.3,16.4,86,15.6,81c0.5,0.5,1.1,1.1,1.5,1.6c1.9,2,4,4.2,6,4.9c1,0.4,1.7,0.8,2.3,1.2c1,0.6,2,1.2,3.7,1.2
	c1,0,2.3-0.2,3.9-0.7c0,0,0.1,0,0.3,0c1,0,2.3,0.5,2.6,0.8c-1.4,10.3-4,27.4-4.7,32.4c0,0.3-0.3,0.5-0.6,0.5H16.1z"/>
<path class="st1" d="M17.3,84.3c1.7,1.8,3.6,3.5,5.5,4.2c0.9,0.3,1.5,0.7,2.1,1.1c1.1,0.7,2.3,1.4,4.3,1.4c1.1,0,2.5-0.2,4.1-0.7h0
	c0.4,0,1,0.2,1.4,0.3c-1.3,10.1-3.8,26-4.6,31.3H16.6c0-0.1,0-0.2,0-0.3c0.3-3.5,0.8-4.7,2-4.8s2-0.1,2.6-0.1c1.2,0,3.6-0.1,3.7-2.6
	c0-1.2,0.1-1.5-0.2-2.3c-0.1-0.2-0.1-0.5-0.3-1.1c-0.8-3.7-2-8-3.4-12.7C19.6,93.4,18.2,88.5,17.3,84.3 M14.8,79.2
	c-0.4,0-0.5,0.5-0.3,1.7c1.3,8.7,5.9,21.7,7.7,30.3c0.4,1.9,0.5,1.1,0.4,2.8c0,0.7-0.4,0.4-4.2,0.6c-3.8,0.2-3.8,5.2-4,7.5v0
	c-0.1,1,0.7,1.8,1.7,1.8h14.5c0.8,0,1.5-0.6,1.7-1.4c0.8-5,3.4-22.2,4.8-32.6c0.1-1-2.3-1.9-3.6-1.9c-0.2,0-0.4,0-0.6,0.1
	c-1.6,0.5-2.7,0.6-3.6,0.6c-2.4,0-3-1.3-5.7-2.3C20.4,85.4,16.1,79.2,14.8,79.2L14.8,79.2z"/>
<linearGradient id="SVGID_4_" gradientUnits="userSpaceOnUse" x1="89.1076" y1="7.69" x2="89.1076" y2="38.381" gradientTransform="matrix(1 0 0 -1 0 130)">
	<stop  offset="0" style="stop-color:#BF4A00"/>
	<stop  offset="0.4369" style="stop-color:#E94E00"/>
	<stop  offset="0.4389" style="stop-color:#E94F02"/>
	<stop  offset="0.5069" style="stop-color:#EE783C"/>
	<stop  offset="0.5766" style="stop-color:#F39C70"/>
	<stop  offset="0.6464" style="stop-color:#F6BA9C"/>
	<stop  offset="0.7164" style="stop-color:#FAD3C0"/>
	<stop  offset="0.7865" style="stop-color:#FCE6DC"/>
	<stop  offset="0.8569" style="stop-color:#FEF4EF"/>
	<stop  offset="0.9278" style="stop-color:#FFFCFB"/>
	<stop  offset="1" style="stop-color:#FFFFFF"/>
</linearGradient>
<path class="st4" d="M82.3,122.9c-0.2,0-0.4-0.1-0.5-0.2c-0.1-0.1-0.2-0.2-0.2-0.5c0,0,0.1-0.5,0.1-0.8c0.3-3,0.7-5.6,2.9-5.8
	c1.2-0.1,2-0.1,2.6-0.1c1.3,0,2.6,0,2.6-1.5c0.1-1.2,0.1-1.3-0.1-2c-0.1-0.2-0.2-0.5-0.3-1.1c-1.6-7.4-8.3-23.5-10.4-28.5H99
	c0,6,0.1,35.6-0.5,39.9c-0.1,0.3-0.3,0.5-0.6,0.5L82.3,122.9L82.3,122.9z"/>
<path class="st1" d="M98,83.5c0.1,10.9,0,33.6-0.5,38.3H82.8c0-0.1,0-0.2,0-0.3c0.3-3.5,0.8-4.7,2-4.8s2-0.1,2.6-0.1
	c1.2,0,3.6-0.1,3.7-2.6c0.1-1.2,0.1-1.5-0.2-2.3c-0.1-0.2-0.1-0.5-0.3-1.1c-1.5-6.9-7.2-21-9.8-27.2L98,83.5 M100.1,81.4H77.6
	c0,0,9.1,21.2,10.9,29.8c0.4,1.9,0.4,1.1,0.4,2.8c0,0.7-0.4,0.4-4.2,0.6c-3.8,0.2-3.8,5.2-4,7.5v0c-0.1,1,0.7,1.8,1.7,1.8h15.6
	c0.8,0,1.5-0.6,1.7-1.4C100.3,117.6,100.1,81.4,100.1,81.4L100.1,81.4z"/>
<linearGradient id="SVGID_5_" gradientUnits="userSpaceOnUse" x1="64.97" y1="92.945" x2="64.97" y2="28.21" gradientTransform="matrix(1 0 0 -1 0 130)">
	<stop  offset="0" style="stop-color:#BF4A00"/>
	<stop  offset="0.4045" style="stop-color:#E94E00"/>
	<stop  offset="0.4066" style="stop-color:#E94F02"/>
	<stop  offset="0.4785" style="stop-color:#EE783C"/>
	<stop  offset="0.5522" style="stop-color:#F39C70"/>
	<stop  offset="0.6261" style="stop-color:#F6BA9C"/>
	<stop  offset="0.7" style="stop-color:#FAD3C0"/>
	<stop  offset="0.7742" style="stop-color:#FCE6DC"/>
	<stop  offset="0.8486" style="stop-color:#FEF4EF"/>
	<stop  offset="0.9236" style="stop-color:#FFFCFB"/>
	<stop  offset="1" style="stop-color:#FFFFFF"/>
</linearGradient>
<path class="st5" d="M104.3,122.8c-1.8,0-2.4-0.2-2.5-0.4c-0.3-0.4,0.1-2,0.2-2.6c0-0.1,0.2-0.5,0.3-0.8c0.1-0.3,0.2-0.6,0.2-0.7
	c0.7-2.2,1.8-2.3,3-2.3c0.2,0,0.4,0,0.5,0c0.2,0,0.3,0,0.5,0c0.4,0,1.3,0,1.8-0.8c0.5-0.8,0.3-1.8-0.1-2.7
	c-0.6-1.5-14.7-15.3-18.2-18.4c-2.3-2-5.2-3.1-8.6-3.1c-3.2,0-6.9,0.9-10.9,2.8C60.7,98.3,52,102,44.2,102c-2,0-3.8-0.2-5.6-0.7
	c-18.5-4.9-27.2-16.5-27.2-36.4c0-17.8,7.9-28.4,21.3-28.4c8.1,0,12.6,0,16.7,6.9c6.5,9,14.6,12.7,27,12.7h0.4
	c1.8,0,3.9-0.3,6.4-0.7c3.1-0.4,6.7-0.9,10.4-0.9c5.8,0,10.6,1.2,14.7,3.8c6.4,4,10.1,17.3,8.2,29.5c-1.6,10.4,0.5,24.6,1.9,32
	c0.1,0.7-0.1,1.4-0.5,2c-0.5,0.6-1.1,0.9-1.8,0.9L104.3,122.8z"/>
<path class="st1" d="M32.7,37.6c8.2,0,12,0,15.8,6.4c0,0,0.1,0.1,0.1,0.2c6.7,9.2,15,13.1,27.8,13.1h0.4c1.9,0,4-0.3,6.6-0.7
	c3.1-0.4,6.6-0.9,10.3-0.9c5.6,0,10.2,1.2,14.1,3.6c5.3,3.3,9.8,15.2,7.7,28.5c-1.7,10.6,0.5,24.8,1.9,32.4c0.1,0.5-0.1,0.9-0.3,1.1
	c-0.2,0.2-0.5,0.5-1,0.5l-11.8,0c-0.9,0-1.3-0.1-1.6-0.1c0-0.3,0.1-0.7,0.3-1.6c0.1-0.2,0.2-0.5,0.3-0.8c0.1-0.3,0.2-0.6,0.3-0.7
	c0.5-1.6,1.1-1.6,2-1.6h0c0.2,0,0.3,0,0.5,0c0.2,0,0.4,0,0.5,0c0.5,0,1.9,0,2.7-1.2c0.9-1.3,0.3-3,0-3.7c-0.8-2-16.1-16.7-18.5-18.8
	c-2.5-2.2-5.6-3.3-9.3-3.3c-3.3,0-7.2,1-11.3,2.9c-9.7,4.4-18.3,8.1-25.9,8.1c-1.9,0-3.6-0.2-5.3-0.7c-18-4.7-26.4-16-26.4-35.4
	c0-8.3,1.8-15.2,5.2-20C21.2,40.1,26.3,37.6,32.7,37.6 M32.7,35.5c-14.8,0-22.3,12.1-22.3,29.4c0,24.1,12.7,33.5,28,37.5
	c1.9,0.5,3.8,0.7,5.8,0.7c8,0,16.7-3.7,26.8-8.3c3.5-1.6,7.1-2.7,10.5-2.7c2.9,0,5.6,0.8,7.9,2.8c4.4,3.9,17.5,16.9,17.9,18
	c0.7,1.8,0.2,2-0.8,2c-0.3,0-0.6,0-1,0c-1.4,0-3.1,0.3-4,3.1c-0.1,0.3-0.5,1.3-0.6,1.6c-0.8,3.4-0.4,4.3,3.4,4.3l11.8,0
	c2.2,0,3.8-2,3.4-4.1c-1.3-6.9-3.5-21.3-1.9-31.7c2.1-13.1-2.1-26.5-8.7-30.6c-4.9-3.1-10.2-3.9-15.2-3.9c-6.6,0-12.8,1.5-16.8,1.6
	h-0.4c-13.4,0-20.6-4.6-26.2-12.2C45.9,35.5,41,35.5,32.7,35.5z"/>
<linearGradient id="SVGID_6_" gradientUnits="userSpaceOnUse" x1="12.31" y1="65.4" x2="56.63" y2="65.4">
	<stop  offset="3.518300e-03" style="stop-color:#FFFFFF"/>
	<stop  offset="0.2881" style="stop-color:#FCFCFC"/>
	<stop  offset="0.4902" style="stop-color:#F3F3F3"/>
	<stop  offset="0.6668" style="stop-color:#E3E3E3"/>
	<stop  offset="0.8278" style="stop-color:#CDCDCD"/>
	<stop  offset="0.9698" style="stop-color:#B3B3B3"/>
</linearGradient>
<path class="st6" d="M56.6,60c0,9.5-9.9,24.5-22.2,24.5S12.3,69.5,12.3,60s9.9-13.6,22.2-13.6S56.6,50.4,56.6,60z"/>
<linearGradient id="SVGID_7_" gradientUnits="userSpaceOnUse" x1="50.2656" y1="7.06" x2="50.2656" y2="32.95" gradientTransform="matrix(1 0 0 -1 0 130)">
	<stop  offset="0" style="stop-color:#BF4A00"/>
	<stop  offset="0.4369" style="stop-color:#E94E00"/>
	<stop  offset="0.4389" style="stop-color:#E94F02"/>
	<stop  offset="0.5069" style="stop-color:#EE783C"/>
	<stop  offset="0.5766" style="stop-color:#F39C70"/>
	<stop  offset="0.6464" style="stop-color:#F6BA9C"/>
	<stop  offset="0.7164" style="stop-color:#FAD3C0"/>
	<stop  offset="0.7865" style="stop-color:#FCE6DC"/>
	<stop  offset="0.8569" style="stop-color:#FEF4EF"/>
	<stop  offset="0.9278" style="stop-color:#FFFCFB"/>
	<stop  offset="1" style="stop-color:#FFFFFF"/>
</linearGradient>
<path class="st7" d="M39.9,89.5c5.1,8.3,7.3,24.6,4.9,25.2c-1.1,0.3,0.8,0.1-3,0.6c-2.1,0.3-3.4,4.1-3.7,6.4v0
	c-0.1,1,0.7,1.8,1.7,1.8l14.6-0.1c0.8,0,1.5-0.6,1.7-1.4c0.8-4.9,6.3-32.7,6.3-32.7"/>
<path class="st8" d="M18.6,7.9L18.6,7.9"/>
<linearGradient id="SVGID_8_" gradientUnits="userSpaceOnUse" x1="26.5937" y1="15.5049" x2="2.3516" y2="15.5049">
	<stop  offset="0" style="stop-color:#BF4A00"/>
	<stop  offset="0.4369" style="stop-color:#E94E00"/>
	<stop  offset="0.4389" style="stop-color:#E94F02"/>
	<stop  offset="0.5069" style="stop-color:#EE783C"/>
	<stop  offset="0.5766" style="stop-color:#F39C70"/>
	<stop  offset="0.6464" style="stop-color:#F6BA9C"/>
	<stop  offset="0.7164" style="stop-color:#FAD3C0"/>
	<stop  offset="0.7865" style="stop-color:#FCE6DC"/>
	<stop  offset="0.8569" style="stop-color:#FEF4EF"/>
	<stop  offset="0.9278" style="stop-color:#FFFCFB"/>
	<stop  offset="1" style="stop-color:#FFFFFF"/>
</linearGradient>
<path class="st9" d="M20.5,27.8c-5.2,0-11.9-0.9-14.3-5.3C2.5,15.9,2.3,6.1,2.4,3.2c3.5,0.3,16.8,1.9,20.5,8.5
	c3.6,6.5,3.8,13.6,3.8,15.7C25.5,27.6,23.2,27.8,20.5,27.8z"/>
<path class="st1" d="M3.1,4.1c1.7,0.2,4.4,0.5,7.4,1.3c4.2,1.1,9.6,3.1,11.6,6.7c3.2,5.8,3.6,12,3.7,14.6c-1.2,0.1-3.1,0.3-5.3,0.3
	C10.9,27,7.8,24,6.8,22.2C3.6,16.3,3.2,7.6,3.1,4.1 M1.6,2.3c0,0-0.5,12.5,3.9,20.6c2.6,4.7,9.6,5.7,15,5.7c3.9,0,6.9-0.5,6.9-0.5
	s0.6-8.7-3.8-16.8S1.6,2.3,1.6,2.3z"/>
<path class="st1" d="M14.4,15.8c2.3,4.4-0.7,10.3-0.7,10.3S6.8,25,4.5,20.6S3.3,10.3,3.3,10.3S12.1,11.4,14.4,15.8z"/>
<linearGradient id="SVGID_9_" gradientUnits="userSpaceOnUse" x1="37.7862" y1="15.5023" x2="62.0277" y2="15.5023">
	<stop  offset="0" style="stop-color:#BF4A00"/>
	<stop  offset="0.4369" style="stop-color:#E94E00"/>
	<stop  offset="0.4389" style="stop-color:#E94F02"/>
	<stop  offset="0.5069" style="stop-color:#EE783C"/>
	<stop  offset="0.5766" style="stop-color:#F39C70"/>
	<stop  offset="0.6464" style="stop-color:#F6BA9C"/>
	<stop  offset="0.7164" style="stop-color:#FAD3C0"/>
	<stop  offset="0.7865" style="stop-color:#FCE6DC"/>
	<stop  offset="0.8569" style="stop-color:#FEF4EF"/>
	<stop  offset="0.9278" style="stop-color:#FFFCFB"/>
	<stop  offset="1" style="stop-color:#FFFFFF"/>
</linearGradient>
<path class="st10" d="M43.9,27.8c-2.7,0-5-0.3-6.1-0.4c0-2.1,0.2-9.2,3.8-15.7c3.6-6.6,17-8.2,20.5-8.5c0,2.9-0.2,12.7-3.8,19.4
	C55.8,26.9,49.1,27.8,43.9,27.8z"/>
<path class="st1" d="M61.2,4.1c0,3.6-0.5,12.2-3.7,18.1c-1,1.8-4.1,4.9-13.6,4.9c-2.2,0-4.1-0.2-5.3-0.3c0-2.6,0.5-8.9,3.7-14.6
	c2-3.7,7.4-5.7,11.6-6.7C56.8,4.6,59.5,4.2,61.2,4.1 M62.8,2.3c0,0-17.5,0.9-21.9,9S37,28.1,37,28.1s3,0.5,6.9,0.5
	c5.4,0,12.4-1,15-5.7C63.3,14.8,62.8,2.3,62.8,2.3z"/>
<path class="st1" d="M49.9,16.3c-2.3,4.8,0.7,11.3,0.7,11.3s6.7-1.2,8.9-6c2.3-4.8,1.1-11.3,1.1-11.3S52.2,11.5,49.9,16.3z"/>
<linearGradient id="SVGID_10_" gradientUnits="userSpaceOnUse" x1="32.1397" y1="67.9727" x2="32.1397" y2="123.8588" gradientTransform="matrix(1 0 0 -1 0 130)">
	<stop  offset="0" style="stop-color:#BF4A00"/>
	<stop  offset="0.4045" style="stop-color:#E94E00"/>
	<stop  offset="0.4066" style="stop-color:#E94F02"/>
	<stop  offset="0.4785" style="stop-color:#EE783C"/>
	<stop  offset="0.5522" style="stop-color:#F39C70"/>
	<stop  offset="0.6261" style="stop-color:#F6BA9C"/>
	<stop  offset="0.7" style="stop-color:#FAD3C0"/>
	<stop  offset="0.7742" style="stop-color:#FCE6DC"/>
	<stop  offset="0.8486" style="stop-color:#FEF4EF"/>
	<stop  offset="0.9236" style="stop-color:#FFFCFB"/>
	<stop  offset="1" style="stop-color:#FFFFFF"/>
</linearGradient>
<path class="st11" d="M32.2,62c-6.7-0.1-12.6-4.2-16.9-7.3l-0.7-0.5c-4.1-2.9-8.8-4.4-13.5-4.5c5.2-10.5,5.2-11,5.2-11.3
	c0-0.4-0.4-0.8-0.8-0.8H1.1l2.5-4.3c1.8-3.1,3.5-6.5,5.5-11.1C13.6,12,22,6.1,32.1,6.1l0.3,0c9.9,0.1,18.1,5.8,22.5,15.7
	c2,4.5,3.7,7.8,5.4,10.8l2.9,5h-4.5c-0.4,0-0.8,0.4-0.8,0.8c0,0.3,0,0.7,5.4,11.3c-4.8,0.1-9.5,1.7-13.7,4.7c-0.5,0.3-0.9,0.7-1.4,1
	c-4.1,2.9-9.3,6.6-15.7,6.6L32.2,62z"/>
<path class="st1" d="M32.1,7h0.3c9.5,0.1,17.5,5.7,21.8,15.2c2,4.5,3.7,7.9,5.4,11l2.2,3.9h-3.1c-0.8,0-1.5,0.6-1.6,1.4
	c0,0.5-0.1,0.8,4.9,10.6C57.4,49.4,53,51,49,53.8c-0.5,0.3-0.9,0.7-1.4,1c-4,2.9-9.1,6.5-15.2,6.5l-0.2,0
	c-6.4-0.1-12.2-4.2-16.5-7.1L15,53.6c-3.9-2.7-8.3-4.3-12.7-4.6C7.1,39.4,7,39.1,7,38.5c-0.1-0.8-0.8-1.4-1.6-1.4H2.5l1.8-3.3
	c1.8-3.2,3.5-6.7,5.5-11.2C14.2,12.7,22.3,7,32.1,7 M32.1,5.4c-11.5,0-19.6,7.3-23.7,16.6C6.7,25.7,5,29.4,2.9,33l-2.6,4.7
	c-0.2,0.4,0.1,1,0.5,1h4.6c0,0.5-3.8,8.4-5.1,11.1c-0.2,0.4,0.1,0.8,0.6,0.8v0c4.8,0,9.3,1.6,13.3,4.4c4.4,3.1,10.7,7.8,18,7.9h0.2
	c7.4,0,13-4.7,17.5-7.9c4.1-2.9,8.9-4.6,13.8-4.6h0c0.3,0,0.5-0.2,0.4-0.5c-1.2-2.4-5.6-10.6-5.5-11.2h4.6c0.5,0,0.9-0.7,0.6-1.1
	L61,32.4c-2-3.5-3.7-7.1-5.4-10.8c-4.1-9-12-16-23.2-16.2C32.3,5.4,32.2,5.4,32.1,5.4L32.1,5.4z"/>
<linearGradient id="SVGID_11_" gradientUnits="userSpaceOnUse" x1="32.1886" y1="111.8082" x2="32.1886" y2="69.2473" gradientTransform="matrix(1 0 0 -1 0 130)">
	<stop  offset="3.518300e-03" style="stop-color:#FFFFFF"/>
	<stop  offset="0.2881" style="stop-color:#FCFCFC"/>
	<stop  offset="0.4902" style="stop-color:#F3F3F3"/>
	<stop  offset="0.6668" style="stop-color:#E3E3E3"/>
	<stop  offset="0.8278" style="stop-color:#CDCDCD"/>
	<stop  offset="0.9698" style="stop-color:#B3B3B3"/>
</linearGradient>
<path class="st12" d="M53.1,31.7C52.9,27.4,51.9,21.3,48,19c-5.6-3.2-11.1,3.4-11.1,9c0.1,7.4,6.7,16.2,1.5,23.2
	c-1.5,2-3.6,2.9-6.3,2.9c-2.6,0-4.6-0.9-6.1-2.9c-5.1-7,1.3-15.8,1.4-23.2c0.1-5.6-5.5-12.2-11.1-9c-3.9,2.2-5,8.4-5.1,12.6
	c-0.3,7.8,2.1,15.6,7.3,21.2c4.4,4.7,8.3,7.8,13.6,7.9c4.2-0.1,9.4-3.2,13.8-7.9C51.2,47.3,53.4,39.5,53.1,31.7L53.1,31.7z"/>
<ellipse cx="21.2" cy="29.5" rx="3.5" ry="4"/>
<ellipse cx="43.1" cy="29.5" rx="3.5" ry="4"/>
<linearGradient id="SVGID_12_" gradientUnits="userSpaceOnUse" x1="32.1403" y1="82.9689" x2="32.1403" y2="92.2889" gradientTransform="matrix(1 0 0 -1 0 130)">
	<stop  offset="0" style="stop-color:#000000"/>
	<stop  offset="0.3547" style="stop-color:#262626"/>
	<stop  offset="0.8372" style="stop-color:#575757"/>
</linearGradient>
<path class="st13" d="M32.3,47.2c-2.6,0-6-2-6-4.3v-0.1c0-2.4,2.4-4.9,5-4.9h1.9c2.6,0,5,2.5,5,4.9v0.1C38,45.2,34.9,47.2,32.3,47.2
	z"/>
<path d="M47,45.4c-0.1-0.1-0.2-0.2-0.4-0.2c-0.7,0-1,0.6-1.4,1c-0.3,0.4-0.7,0.8-1,1.1c-0.9,1-2,1.7-3.3,2.3c-2.8,1.3-4,0.8-4,0.8
	c-0.4-0.2-0.9-0.2-1.3-0.3c-1.1-0.4-2-1-3.3-1c-0.8,0-1.6,0.2-2.4,0.5c-0.8,0.4-1.5,0.7-2.4,0.8c0,0-1.3,0.4-4-0.8
	c-1-0.5-2-1.1-2.8-1.9c-0.8-0.7-1.4-1.6-2.2-2.3c-0.1-0.1-0.3-0.2-0.4-0.3c-0.2-0.1-0.6,0-0.7,0.2c-0.1,0.2,0,0.5,0.1,0.7
	c1.5,2.7,5.1,11.9,14.7,11.9S45.3,48.8,46.8,46C46.9,45.8,47.1,45.5,47,45.4z"/>
<g>
	<defs>
		<path id="SVGID_13_" d="M37.5,52.1c0,2.7,0.5,9.6-5.4,9.6s-5.9-6.9-5.9-9.6v-0.8c0-2.7,2.2-4.9,4.9-4.9h1.5c2.7,0,4.9,2.2,4.9,4.9
			V52.1z"/>
	</defs>
	<clipPath id="SVGID_14_">
		<use xlink:href="#SVGID_13_"  style="overflow:visible;"/>
	</clipPath>
	<path class="st14" d="M22.8,56.6c0-2.9,4.3-6.1,9.6-6.1s9.6,3.1,9.6,6.1c0,2.9-4.3,5.3-9.6,5.3S22.8,59.5,22.8,56.6z"/>
</g>
</svg>
