<?xml version="1.0" encoding="utf-8"?>
<!-- Generator: Adobe Illustrator 21.0.2, SVG Export Plug-In . SVG Version: 6.00 Build 0)  -->
<svg version="1.0" id="Layer_1" xmlns="http://www.w3.org/2000/svg" xmlns:xlink="http://www.w3.org/1999/xlink" x="0px" y="0px"
	 viewBox="0 0 128 128" style="enable-background:new 0 0 128 128;" xml:space="preserve">
<style type="text/css">
	.st0{fill:#FFFFFF;}
	.st1{fill:none;}
	.st2{fill:#434343;}
	.st3{opacity:0.8;fill:url(#SVGID_1_);enable-background:new    ;}
	.st4{fill:url(#SVGID_2_);}
	.st5{opacity:0.2;fill:#9D9D9D;}
	.st6{fill:url(#SVGID_3_);}
	.st7{fill:#F5F5F5;}
	.st8{fill:url(#SVGID_4_);}
	.st9{opacity:0.2;}
	.st10{fill:#FFCC4D;}
	.st11{fill:#FFCB28;}
	.st12{fill:#FDD836;}
	.st13{fill:#FEC111;}
	.st14{opacity:0.2;fill:#434343;enable-background:new    ;}
	.st15{fill:url(#SVGID_5_);}
	.st16{fill:url(#SVGID_6_);}
	.st17{fill:url(#SVGID_7_);}
	.st18{fill:url(#SVGID_8_);}
	.st19{fill:url(#SVGID_9_);}
	.st20{fill:url(#SVGID_10_);}
	.st21{fill:#783C3C;}
</style>
<g>
	<path id="a" class="st0" d="M98.4,48.2H29.4c0,0,7.3,66.6,7.3,66.9c0,4.2,11.9,9.2,26.6,9.2c13.7,0,25-4.6,26.5-7.8h0.2L98.4,48.2z
		"/>
</g>
<path class="st1" d="M98.4,48.2H29.4c0,0,7.3,66.6,7.3,66.9c0,4.2,11.9,9.2,26.6,9.2c13.7,0,25-4.6,26.5-7.8h0.2L98.4,48.2z"/>
<g>
	<path class="st2" d="M94.9,51.4l-8,63.3c0,0.1-0.1,0.1-0.1,0.2c-0.9,1.8-10,5.9-23.5,5.9c-13.6,0-22.5-4.2-23.4-6.1
		c-0.1-1-0.8-7.7-6.9-63.2H94.9z M98.6,48.2H29.4c0,0,7.3,66.3,7.3,66.7c0,4.2,12,9.1,26.7,9.1c13.8,0,25.1-4.2,26.5-7.9h0.2
		L98.6,48.2z"/>
</g>
<linearGradient id="SVGID_1_" gradientUnits="userSpaceOnUse" x1="32.719" y1="42.7573" x2="96.1851" y2="42.7573" gradientTransform="matrix(1 0 0 -1 0 130)">
	<stop  offset="0" style="stop-color:#FFFFFF"/>
	<stop  offset="0.7329" style="stop-color:#808080"/>
	<stop  offset="1" style="stop-color:#FFFFFF"/>
</linearGradient>
<path class="st3" d="M98.6,50.3H29.6c0,0,7.3,65,7.3,65.3c0,4.1,11.9,8.7,26.6,8.7c13.7,0,25.1-4.6,26.5-8h0.2L98.6,50.3z"/>
<linearGradient id="SVGID_2_" gradientUnits="userSpaceOnUse" x1="29.13" y1="74.26" x2="98.63" y2="74.26" gradientTransform="matrix(1 0 0 -1 0 130)">
	<stop  offset="0" style="stop-color:#FFFFFF"/>
	<stop  offset="0.7329" style="stop-color:#B8B8B8"/>
	<stop  offset="1" style="stop-color:#FFFFFF"/>
</linearGradient>
<path class="st4" d="M63.9,58.8c-18.1,0-33-3.9-34.6-8.8c-0.1,0.3-0.1,0.6-0.1,0.9c0,6.7,15.6,10.6,34.8,10.6s34.8-4.3,34.8-10.6
	c0-0.3-0.1-0.6-0.1-0.9C96.9,54.9,82,58.8,63.9,58.8z"/>
<path class="st5" d="M97.9,50.8c0,9.7-14.9,17.1-33.9,17.1s-33.9-7.4-33.9-17.1c0-1.4-0.6-2.4-0.6-2.4h68.9
	C98.5,48.3,97.9,49.3,97.9,50.8z"/>
<linearGradient id="SVGID_3_" gradientUnits="userSpaceOnUse" x1="48.1576" y1="96.7104" x2="77.5361" y2="67.3325" gradientTransform="matrix(1 0 0 -1 0 130)">
	<stop  offset="0.1705" style="stop-color:#FAFBFB"/>
	<stop  offset="0.8701" style="stop-color:#EEEEEE"/>
</linearGradient>
<ellipse class="st6" cx="64" cy="49.1" rx="34.5" ry="17.4"/>
<ellipse class="st7" cx="70.9" cy="47.5" rx="5.2" ry="4.3"/>
<ellipse class="st7" cx="64" cy="50.6" rx="5.2" ry="4.3"/>
<linearGradient id="SVGID_4_" gradientUnits="userSpaceOnUse" x1="64.0454" y1="94.6879" x2="64.0454" y2="68.3644" gradientTransform="matrix(1 0 0 -1 0 130)">
	<stop  offset="0.2592" style="stop-color:#FCB316"/>
	<stop  offset="0.9991" style="stop-color:#C98C2B"/>
</linearGradient>
<path class="st8" d="M32.9,47.7c0.1,0.9,1.1,1.6,1.1,1.7c0,1.1-0.9,0.7-0.3,2.1c0.7,1.4,1.6,3.4,2.7,4c2.8,1.7,6.4,4.3,9,4.9
	c4.8,1.1,8.7,0,14.1,1c4.8,0.9,9.4,1,13.5,0.5c1.1-0.1,1.7-1.3,2.7-1.6c1.1-0.3,2.6,0.5,3.6,0.1c8.4-3,6.4-4.4,10.4-6.3
	c2.6-1.3,5.7-2.2,5.4-5.6C94.5,41.2,81,34.9,62,34.9S32.4,41.9,32.9,47.7z"/>
<g class="st9">
	<path class="st2" d="M63.6,33.2c8.9,0,17.3,1.7,23.6,4.9c6,3,9.3,6.9,9.3,11.1s-3.3,8.1-9.3,11.1c-6.3,3.1-14.7,4.9-23.6,4.9
		S46.3,63.4,40,60.2c-6-3-9.3-6.9-9.3-11.1S34,41.1,40,38.1C46.3,34.9,54.7,33.2,63.6,33.2 M63.6,31.8C44.5,31.8,29,39.5,29,49.1
		s15.5,17.4,34.7,17.4s34.7-7.8,34.7-17.4S82.8,31.8,63.6,31.8z"/>
</g>
<path class="st10" d="M52.7,42.7c0.1-0.1,0.2-0.3,0.3-0.4c0.3-0.4-0.5-0.2-0.7-0.1c-0.3,0.1-0.7,0.3-1,0.4c-0.2,0.1-0.5,0.3-0.6,0.5
	c-0.1,0.1-0.2,0.3-0.3,0.4c-0.3,0.4,0.5,0.2,0.7,0.1c0.3-0.1,0.7-0.3,1-0.4C52.3,43.1,52.6,42.9,52.7,42.7z"/>
<path class="st11" d="M46.6,44.3c-2.4-0.9-5.2,0.2-6.5,1.9c-1.6,2.1-0.4,4,2,5.2c0.9,0.5,2.8-0.5,1.7-1.1c-1.3-0.6-2.5-1.4-2.2-2.8
	c0.3-1.2,2-2.7,3.6-2.1C46.3,46,47.9,44.8,46.6,44.3z"/>
<path class="st12" d="M90.1,51c0.7-12.9-17.4-18.3-30.9-17c-4.2,0.4-9.1,1-12.9,2.6c-3.1,1.4-5.6,4.4-2.2,6.7
	c3.2,2.1,7.6,1.2,11.3,2.1c5.2,1.3-2.5,4.6-4.2,5.1c-2.9,1-6.2,1.5-9.2,0.7c-2.4-0.6-5-1.6-6.7-3.1c-2.4-2.1-0.3-4.3,1.8-6
	c5-3.9,12.6-6,19.4-6.4c1.3-0.1,1.9-1.8,0.2-1.7c-5.9,0.3-11.8,1.9-16.8,4.4c-3.2,1.6-7.5,4.2-8.2,7.5c-0.7,3.2,4.1,5.3,7.1,6.4
	c4.6,1.6,9.3,1.1,13.8-0.5c2.5-0.9,9.2-3.7,6.8-6.7c-2.1-2.6-8.5-1.5-11.7-2.4c-2-0.6-4-1.9-1.6-4c0.7-0.6,1.9-0.9,2.9-1.2
	c2.9-0.8,5.9-1.3,8.9-1.7c3.5-0.4,6.9-0.3,10.4,0.2c10,1.4,20,6,19.5,15.3C87.7,52.5,90.1,52,90.1,51z"/>
<path class="st13" d="M32.3,50c0.4,6.5,9.5,9.3,16.6,8.3c4.2-0.6,7.3-2.6,11.9-2.4c4,0.2,7.4,1.7,10.7,3.3c2.6,1.3,5.2,2.6,8.3,2.5
	c3.6-0.2,5.2-1.9,7.3-3.9c2.7-2.6,7.3-3,9.2-6.4c1.2-2.1,1.2-4.7-0.2-6.7c-3.9-5.8-14-8.8-21.4-10c-1.2-0.2-1.9,1.8-0.5,2
	c6.9,1.2,14.2,3.6,18.9,8.1c1.8,1.7,2.7,4.2,1.1,6.3c-1.9,2.5-5.8,2.9-8.1,5c-2.3,2.1-3.8,4.1-7.8,3.5c-2.5-0.4-4.7-1.7-6.8-2.7
	c-5.4-2.6-11.4-4.1-17.6-2.2c-3.7,1.1-6.6,2.1-10.7,1.5c-4.4-0.7-8.9-2.6-9.1-6.7C34.3,48.2,32.2,49,32.3,50z"/>
<path class="st12" d="M40.2,58.1c6.2-6.9,12.1-0.4,18,2.9c3.9,2.2,12.8,2.8,14.9-1.7c2-4.2-4.6-7.3-8.9-6.6
	c-2.1,0.4-4.1,1.4-4.8,3.1c-0.9,2.4,1.2,4.5,3.1,6.1c0.9,0.8,2.3-1,1.4-1.7c-1.8-1.6-4.3-4.2-0.7-5.3c1.9-0.6,4.1-0.4,5.7,0.5
	c1.2,0.7,2.9,2.2,2.1,3.4c-0.7,1.2-2.9,1.4-4.4,1.6c-2.9,0.3-5.2-0.1-7.6-1.5c-3.3-2-6.1-4.8-10.1-5.9c-4.4-1.2-7.8,1-10.3,3.8
	C37.9,57.9,39.2,59.2,40.2,58.1z"/>
<path class="st13" d="M52.9,52.5c3.8,2.3,10.5,1.6,14.3-0.3c4.6-2.3,3.7-6.3-1-7.9c-1.7-0.6-6.5-1.1-4.7-3.4
	c2.2-2.9,8.4-0.5,10.7,0.9c3.3,2.1,6.4,3.2,10.8,3c2.8-0.1,6-1.1,7.7,1.4c0.7,1.1,1,3.2-0.1,4.3c-1.4,1.3-5.1,1.2-7,1.8
	c-3.6,1.2-5.7,3.6-7.1,6.4c-0.6,1.1,1.9,1.4,2.3,0.5c1.6-3.2,4-5.3,8.2-6.1c1.9-0.4,4.2-0.5,5.6-1.8c1.6-1.4,1.6-4,0.6-5.6
	c-1.4-2.4-4.5-3.2-7.6-2.8c-3.7,0.4-7.2,0.4-10.3-1.5c-1.6-1-3.1-2-5-2.5c-2.9-0.9-6.3-1.3-9.1,0c-1.5,0.7-2.7,1.8-2.6,3.2
	c0,1.8,2.2,2.5,3.9,3c1.5,0.4,3.3,0.7,4.4,1.7c1.6,1.3,0.9,3.1-0.8,4.1c-2.6,1.6-8.4,2.4-11.2,0.7C54,50.9,51.7,51.8,52.9,52.5z"/>
<path class="st13" d="M36.5,55.9c3.3,3.7,7.1,6.6,12.9,6.2c2.3-0.1,4.6-0.6,7-0.4c3.1,0.3,6,1.2,9,1.5c4.9,0.5,11.1,0.2,12.9-4.3
	c1.2-3.1-0.2-7.1-4.6-7.7c-1.2-0.2-2.6,1.5-1,1.7c4,0.6,4.6,5.8,1.8,7.8c-3.7,2.6-11.1,0.4-15.3-0.4c-3.2-0.6-6.1-0.1-9.3,0.1
	c-5.1,0.4-8.4-2.2-11.3-5.5C38,54,35.7,55.1,36.5,55.9z"/>
<path class="st14" d="M63.2,34.3c3.5,0,7,0.4,10.3,1.2c0.1,0,0.2,0,0.4,0c0.4,0,0.7-0.1,0.9-0.3c4.9,0.9,16.2,3.5,20.2,9.7
	c1.2,1.8,1.2,4.1,0.1,5.9c-1,1.6-2.7,2.5-4.6,3.4c-1.6,0.8-3.2,1.6-4.5,2.9l-0.2,0.2c-2,2-3.2,3.3-6.1,3.4c-0.1,0-0.2,0-0.4,0
	c-0.7,0-1.3-0.1-2-0.2c-0.1,0-0.2,0-0.3,0c-0.3,0-0.6,0.1-0.9,0.3c-0.2,0.1-0.4,0.2-0.5,0.3c-1.7,0.9-3.9,1.4-6.6,1.4
	c-3.2,0-6.6-0.7-8.9-1.1c-2.1-0.5-3.8-0.7-5.4-0.7c-0.6,0-1.2,0-1.8,0.1c-0.6,0-1.1,0.1-1.7,0.2c-1.1,0.1-2.2,0.2-3.2,0.2
	c-0.2,0-0.4,0-0.5,0c-4.3-0.2-7.3-2.9-9.7-5.5c-0.1-0.1-0.2-0.2-0.3-0.2c-1.7-1-3.8-2.7-4-5.7c0,0,0,0,0.1-0.1
	c0.5-0.4,0.6-1,0.2-1.5c-0.8-0.8-1-1.6-0.9-2.4c0.5-2.3,3-4.6,7.6-7c5-2.5,10.6-4,16.2-4.3c0.2,0.1,0.5,0.2,0.7,0.2
	c0.1,0,0.1,0,0.2,0c0.6-0.1,1.1-0.1,1.7-0.2l0.1,0C60.6,34.3,61.9,34.3,63.2,34.3 M63.2,33.2c-1.4,0-2.7,0.1-4,0.2
	c-0.6,0.1-1.2,0.1-1.8,0.2c-0.1-0.1-0.4-0.2-0.7-0.2c0,0-0.1,0-0.1,0c-5.9,0.3-11.8,1.9-16.8,4.5c-3.2,1.7-7.5,4.3-8.2,7.7
	c-0.3,1.2,0.3,2.3,1.1,3.2c-0.3,0.2-0.5,0.6-0.5,0.9c0.2,2.9,2,5,4.5,6.5c2.7,3,5.9,5.7,10.6,5.9c0.2,0,0.4,0,0.6,0
	c1.7,0,3.4-0.3,5-0.4c0.6,0,1.1-0.1,1.6-0.1c1.7,0,3.3,0.2,5.1,0.6c2.7,0.6,6,1.2,9.2,1.2c2.7,0,5.2-0.4,7.3-1.6
	c0.3-0.1,0.5-0.3,0.7-0.4c0.8,0.2,1.5,0.3,2.4,0.3c0.1,0,0.3,0,0.4,0c3.6-0.2,5.2-1.9,7.3-4c2.7-2.7,7.3-3.1,9.2-6.5
	c1.2-2.1,1.2-4.8-0.2-6.9c-3.9-5.9-14-9-21.4-10.2c-0.1,0-0.1,0-0.2,0c-0.3,0-0.6,0.1-0.8,0.4C70.4,33.6,66.7,33.2,63.2,33.2z"/>
<path class="st12" d="M46.4,46.1c3.6-0.7,5.8,3.5,9.4,3.6c2.6,0.1,5-1.3,7.6-1.5c2.4-0.2,4.2,0.8,6.4,1.2c1.6,0.3,3.3,0.3,4.9-0.2
	c2.2-0.7,3.3-2.3,5.1-3.4c2.9-1.6,3.7-2.6,0.5-4.6c-1-0.6-3,0.7-1.9,1.4c2.3,1.5,1.4,1.2-0.4,2.3c-1.7,1-2.7,2.7-5,2.9
	c-3.6,0.3-6.1-1.9-9.8-1.3c-2,0.3-4.3,1.4-6.3,1.5c-1.8,0-3-1.1-4.3-1.9c-2.1-1.4-3.9-2.1-6.5-1.6C44.7,44.8,44.8,46.4,46.4,46.1z"
	/>
<linearGradient id="SVGID_5_" gradientUnits="userSpaceOnUse" x1="50.2499" y1="42.3152" x2="63.6259" y2="42.3152">
	<stop  offset="0.2592" style="stop-color:#FCB316"/>
	<stop  offset="0.9991" style="stop-color:#C98C2B"/>
</linearGradient>
<path class="st15" d="M57.6,38.2c-2.4,0.1-4.9,0.8-6.4,2.4c-1,1.1-1.4,2.7-0.2,3.8c1.6,1.4,4,0.9,6,0.7c0.7-0.1,2.6-0.3,3.3-0.1
	c0.4,0.1,1.3,0.9,1.7,1.1c1.2,0.7,2.2-1.1,1.2-1.7C61.5,43.5,61.1,43,59,43c-1.7,0-3.6,0.6-5.2,0.3c-2-0.3-1.4-1.4-0.1-2.1
	c1.1-0.6,2.3-0.8,3.6-0.9C58.6,40.3,58.9,38.2,57.6,38.2z"/>
<linearGradient id="SVGID_6_" gradientUnits="userSpaceOnUse" x1="60.564" y1="39.4565" x2="73.8422" y2="39.4565">
	<stop  offset="0.2592" style="stop-color:#FCB316"/>
	<stop  offset="0.9991" style="stop-color:#C98C2B"/>
</linearGradient>
<path class="st16" d="M62.2,40.3c2.2-0.9,4.5-1.2,7-1c0.9,0.1,2.1,0.4,2.8-0.3c1.1-1-0.5-1.8-1.7-1.4c-0.4,0.1-0.9,0.6-0.7,1
	c0.4,1,1.8,1.1,1.9,2.3c0.1,1.1,2.5,0.4,2.4-0.6c0-0.6-0.1-0.9-0.6-1.4C73.1,38.7,72,38.1,72,38c-0.2,0.3-0.5,0.7-0.7,1c0,0,0,0,0,0
	c-0.4,0-0.8,0.1-1.2,0.1c0.3,0.1-0.3-0.1,0-0.6c0.3-0.2,0.6-0.4,1-0.7c-0.4,0.1-1.5-0.2-1.9-0.3c-0.9-0.1-1.9,0-2.8,0.1
	c-1.8,0.2-3.4,0.7-5,1.3C59.8,39.5,60.8,40.9,62.2,40.3z"/>
<linearGradient id="SVGID_7_" gradientUnits="userSpaceOnUse" x1="47.3161" y1="104.9229" x2="102.8145" y2="117.7754" gradientTransform="matrix(1 0 0 -1 0 130)">
	<stop  offset="0.1706" style="stop-color:#D0D8DC"/>
	<stop  offset="1" style="stop-color:#90A4AE"/>
</linearGradient>
<path class="st17" d="M64.8,24.7l0.9-1.6c0.2-0.4,0.7-0.7,1.6-0.8l26.2-4.5c1-0.2,1.6-1.4,1.4-2.2c-0.2-0.8-1.2-1.7-2.2-1.5
	l-26.1,5.5c-0.9,0.2-1.5,0.1-1.9-0.2l-1.7-1.1c-0.9-0.6-2.3-0.7-3.7-0.4c-6.3,1.2-10,2.3-13.8,3.3c-1,0.2-1.4,0.5-1.3,0.8
	c0.1,0.4,0.6,0.5,1.6,0.3l8.2-1.3c0.3-0.1,0.7,0.1,0.8,0.4c0,0,0,0,0,0c0.1,0.3-0.1,0.5-0.4,0.6l-8,2.2c-1,0.3-1.4,0.5-1.3,0.8
	c0.1,0.3,0.6,0.4,1.6,0.3l8.4-0.9c0.3,0,0.6,0.1,0.7,0.4c0,0,0,0,0,0c0.1,0.3-0.1,0.5-0.5,0.6l-8.1,1.8c-1,0.3-1.4,0.5-1.3,0.9
	c0.1,0.4,0.6,0.4,1.6,0.3c4-0.5,7.9-0.8,14.2-2C63.1,26.1,64.3,25.5,64.8,24.7z"/>
<g class="st9">
	<path class="st2" d="M92.9,14.5c0.6,0,1.2,0.7,1.4,1.2c0.1,0.3,0,0.9-0.3,1.3c-0.2,0.2-0.4,0.4-0.6,0.4l-26.1,4.5
		c-1,0.1-1.7,0.5-2,1.1l-0.9,1.6c-0.4,0.6-1.4,1.2-2.7,1.4c-4.3,0.8-7.5,1.2-10.3,1.5c-1.3,0.1-2.6,0.3-3.8,0.5c-0.3,0-0.5,0-0.7,0
		c-0.1,0-0.2,0-0.2,0c0.1-0.1,0.3-0.2,0.8-0.3l8.1-1.8c0.6-0.1,1-0.7,0.9-1.2c0,0,0,0,0,0c-0.1-0.4-0.6-0.7-1.2-0.7
		c-0.1,0-0.1,0-0.2,0l-8.4,0.9c0,0,0,0,0,0c-0.3,0-0.5,0.1-0.7,0.1c0,0-0.1,0-0.1,0c0.1-0.1,0.4-0.1,0.8-0.3l8-2.2
		c0.6-0.2,0.9-0.7,0.8-1.1c0,0,0,0,0,0c-0.1-0.4-0.6-0.8-1.2-0.8c-0.1,0-0.2,0-0.2,0l-8.2,1.3c-0.3,0-0.5,0.1-0.7,0.1
		c-0.1,0-0.2,0-0.2,0c0.1-0.1,0.3-0.2,0.8-0.3c1.1-0.3,2.1-0.5,3.2-0.8c2.8-0.8,6.1-1.6,10.6-2.5c0.4-0.1,0.8-0.1,1.2-0.1
		c0.8,0,1.5,0.2,2,0.5l1.7,1.1c0.4,0.3,0.9,0.4,1.4,0.4c0.3,0,0.6,0,1-0.1l26.1-5.5C92.8,14.5,92.8,14.5,92.9,14.5 M92.9,14
		c-0.1,0-0.2,0-0.2,0l-26.2,5.5c-0.3,0.1-0.6,0.1-0.8,0.1c-0.5,0-0.8-0.1-1.1-0.3l-1.7-1.1c-0.6-0.4-1.4-0.6-2.3-0.6
		c-0.4,0-0.9,0-1.3,0.1c-6.3,1.2-10,2.3-13.8,3.3c-1,0.2-1.4,0.5-1.3,0.8c0.1,0.3,0.3,0.4,0.8,0.4c0.2,0,0.5,0,0.8-0.1l8.2-1.3
		c0,0,0.1,0,0.1,0c0.3,0,0.6,0.2,0.6,0.4c0,0,0,0,0,0c0.1,0.3-0.1,0.5-0.4,0.6l-8,2.2c-1,0.3-1.4,0.5-1.3,0.8
		c0.1,0.2,0.3,0.3,0.8,0.3c0.2,0,0.5,0,0.8-0.1l8.4-0.9c0,0,0.1,0,0.1,0c0.3,0,0.6,0.2,0.6,0.4c0,0,0,0,0,0c0.1,0.3-0.1,0.5-0.5,0.6
		l-8.1,1.8c-1,0.3-1.4,0.5-1.3,0.9c0.1,0.3,0.3,0.4,0.9,0.4c0.2,0,0.5,0,0.8-0.1c4-0.5,7.9-0.8,14.2-2c1.4-0.3,2.6-0.8,3.1-1.7
		l0.9-1.6c0.2-0.4,0.7-0.7,1.6-0.8l26.2-4.5c1-0.2,1.6-1.4,1.4-2.2C94.6,14.9,93.8,14,92.9,14z"/>
</g>
<path class="st12" d="M49.6,18.7c-4.1,1.1-2.3,7.8-1.1,10c0.8,1.5,1.9,3.1,1.5,4.8c-0.3,1-1,1.8-1.3,2.8c-0.8,2.6-0.1,5.3,1.5,7.5
	c0.6,0.9,2.4-0.3,1.8-1.1c-1.6-2.3-2.2-5-0.9-7.6c0.7-1.3,1.2-2.4,0.9-3.9c-0.5-2.1-2.1-3.9-2.5-6c-0.2-0.8-0.8-4.7,0.5-5
	C51.1,19.9,51,18.3,49.6,18.7z"/>
<linearGradient id="SVGID_8_" gradientUnits="userSpaceOnUse" x1="51.9001" y1="105.9845" x2="119.0608" y2="121.5378" gradientTransform="matrix(1 0 0 -1 0 130)">
	<stop  offset="0.1636" style="stop-color:#B0BEC5"/>
	<stop  offset="1" style="stop-color:#78909C"/>
</linearGradient>
<path class="st18" d="M64.8,24.7l0.9-1.6c0.2-0.4,0.7-0.7,1.6-0.8l26.2-4.5c1-0.2,1.6-1.4,1.4-2.2c-0.2-0.8-1.2-1.7-2.2-1.5
	l-26.1,5.5c-0.9,0.2-1.5,0.1-1.9-0.2l-1.7-1.1c-0.9-0.6-2.3-0.7-3.7-0.4c-6.3,1.2-10,2.3-13.8,3.3c-1,0.2-1.4,0.5-1.3,0.8
	c0.1,0.4,0.6,0.5,1.6,0.3l8.2-1.3c0.3-0.1,0.7,0.1,0.8,0.4c0,0,0,0,0,0c0.1,0.3-0.1,0.5-0.4,0.6l-8,2.2c-1,0.3-1.4,0.5-1.3,0.8
	c0.1,0.3,0.6,0.4,1.6,0.3l8.4-0.9c0.3,0,0.6,0.1,0.7,0.4c0,0,0,0,0,0c0.1,0.3-0.1,0.5-0.5,0.6l-8.1,1.8c-1,0.3-1.4,0.5-1.3,0.9
	c0.1,0.4,0.6,0.4,1.6,0.3c4-0.5,7.9-0.8,14.2-2C63.1,26.1,64.3,25.5,64.8,24.7z"/>
<g class="st9">
	<path class="st2" d="M92.9,14.5c0.6,0,1.2,0.7,1.4,1.2c0.1,0.3,0,0.9-0.3,1.3c-0.2,0.2-0.4,0.4-0.6,0.4l-26.1,4.5
		c-1,0.1-1.7,0.5-2,1.1l-0.9,1.6c-0.4,0.6-1.4,1.2-2.7,1.4c-4.3,0.8-7.5,1.2-10.3,1.5c-1.3,0.1-2.6,0.3-3.8,0.5c-0.3,0-0.5,0-0.7,0
		c-0.1,0-0.2,0-0.2,0c0.1-0.1,0.3-0.2,0.8-0.3l8.1-1.8c0.6-0.1,1-0.7,0.9-1.2c0,0,0,0,0,0c-0.1-0.4-0.6-0.7-1.2-0.7
		c-0.1,0-0.1,0-0.2,0l-8.4,0.9c0,0,0,0,0,0c-0.3,0-0.5,0.1-0.7,0.1c0,0-0.1,0-0.1,0c0.1-0.1,0.4-0.1,0.8-0.3l8-2.2
		c0.6-0.2,0.9-0.7,0.8-1.1c0,0,0,0,0,0c-0.1-0.4-0.6-0.8-1.2-0.8c-0.1,0-0.2,0-0.2,0l-8.2,1.3c-0.3,0-0.5,0.1-0.7,0.1
		c-0.1,0-0.2,0-0.2,0c0.1-0.1,0.3-0.2,0.8-0.3c1.1-0.3,2.1-0.5,3.2-0.8c2.8-0.8,6.1-1.6,10.6-2.5c0.4-0.1,0.8-0.1,1.2-0.1
		c0.8,0,1.5,0.2,2,0.5l1.7,1.1c0.4,0.3,0.9,0.4,1.4,0.4c0.3,0,0.6,0,1-0.1l26.1-5.5C92.8,14.5,92.8,14.5,92.9,14.5 M92.9,14
		c-0.1,0-0.2,0-0.2,0l-26.2,5.5c-0.3,0.1-0.6,0.1-0.8,0.1c-0.5,0-0.8-0.1-1.1-0.3l-1.7-1.1c-0.6-0.4-1.4-0.6-2.3-0.6
		c-0.4,0-0.9,0-1.3,0.1c-6.3,1.2-10,2.3-13.8,3.3c-1,0.2-1.4,0.5-1.3,0.8c0.1,0.3,0.3,0.4,0.8,0.4c0.2,0,0.5,0,0.8-0.1l8.2-1.3
		c0,0,0.1,0,0.1,0c0.3,0,0.6,0.2,0.6,0.4c0,0,0,0,0,0c0.1,0.3-0.1,0.5-0.4,0.6l-8,2.2c-1,0.3-1.4,0.5-1.3,0.8
		c0.1,0.2,0.3,0.3,0.8,0.3c0.2,0,0.5,0,0.8-0.1l8.4-0.9c0,0,0.1,0,0.1,0c0.3,0,0.6,0.2,0.6,0.4c0,0,0,0,0,0c0.1,0.3-0.1,0.5-0.5,0.6
		l-8.1,1.8c-1,0.3-1.4,0.5-1.3,0.9c0.1,0.3,0.3,0.4,0.9,0.4c0.2,0,0.5,0,0.8-0.1c4-0.5,7.9-0.8,14.2-2c1.4-0.3,2.6-0.8,3.1-1.7
		l0.9-1.6c0.2-0.4,0.7-0.7,1.6-0.8l26.2-4.5c1-0.2,1.6-1.4,1.4-2.2C94.6,14.9,93.8,14,92.9,14z"/>
</g>
<path class="st12" d="M54.5,21.3c-1.8-0.7-2.6,1-2.9,2.1c-0.7,2.9,0.9,5.2,1.6,7.9c0.3,1.2,0.3,2.3-0.2,3.5c-0.3,0.7-0.6,1.2-0.7,2
	c-0.1,2.8,3.1,4.5-0.1,7.1c-1,0.8,0.3,1.8,1.3,0.9c1.6-1.3,2.7-2.8,2.2-4.8c-0.5-1.9-1.8-3.1-0.9-5c0.7-1.5,0.8-2.9,0.4-4.5
	c-0.3-1.2-1-2.3-1.4-3.4c-0.3-0.9-0.4-1.8-0.4-2.7c0-0.7,0.5-1.4-0.1-1.6C54.4,23.3,55.6,21.7,54.5,21.3z"/>
<linearGradient id="SVGID_9_" gradientUnits="userSpaceOnUse" x1="48.4572" y1="100.0682" x2="53.2191" y2="100.0682" gradientTransform="matrix(1 0 0 -1 0 130)">
	<stop  offset="0.2592" style="stop-color:#FCB316"/>
	<stop  offset="0.9991" style="stop-color:#C98C2B"/>
</linearGradient>
<path class="st19" d="M49.1,20.4c1.5,0,1.1,5.2,1,5.8c-0.2,1.7-0.9,3.4-1.2,5.1c-0.2,1.2-0.2,2.4,0.3,3.5c0.3,0.6,0.8,1.1,1.1,1.6
	c0.9,1.4,0.6,2.4-0.3,3.7c-0.8,1,1,1.4,1.6,0.5c1-1.3,2.1-2.7,1.3-4.3c-0.6-1.2-1.8-1.8-2.1-3.1c-0.4-1.6,0.3-3.1,0.7-4.6
	c0.4-1.6,2.2-9.9-1.7-9.9C48.7,18.7,47.8,20.4,49.1,20.4z"/>
<linearGradient id="SVGID_10_" gradientUnits="userSpaceOnUse" x1="54.2638" y1="98.7484" x2="57.54" y2="98.7484" gradientTransform="matrix(1 0 0 -1 0 130)">
	<stop  offset="0.2592" style="stop-color:#FCB316"/>
	<stop  offset="0.9991" style="stop-color:#C98C2B"/>
</linearGradient>
<path class="st20" d="M54.4,25.2c0.9,1.6,1.1,3.1,0.7,4.7c-0.2,0.9-0.4,1.8-0.3,2.8c0.2,1.5,1.8,3.2,0.7,4.6
	c-0.7,0.8,0.4,2.1,1.3,1.1c1.6-2,0.5-3.3-0.1-5.3c-0.5-1.6,0.4-3,0.5-4.6c0-1.5-0.5-3.1-1.2-4.4C55.2,23,53.9,24.4,54.4,25.2z"/>
<g class="st9">
	<path class="st2" d="M49.2,21.7c-0.2,0-0.4,0-0.6,0c-0.1,0.6,0,1.2,0,1.8c0.2,0,0.4-0.1,0.6-0.2C49.1,22.8,49.1,22.2,49.2,21.7z"/>
	<path class="st2" d="M49.9,26.6c-0.2-0.4-0.4-0.9-0.4-1.3c0-0.1,0-0.2,0-0.3h-0.6c0,0.1,0,0.2,0.1,0.3c0.1,0.4,0.2,0.9,0.4,1.4
		C49.5,26.7,49.8,26.6,49.9,26.6z"/>
	<path class="st2" d="M50.1,26.3c0,0.2-0.1,0.4-0.1,0.5c0.1-0.2,0.1-0.3,0.2-0.5C50.2,26.3,50.1,26.3,50.1,26.3z"/>
	<path class="st2" d="M49.9,20.2c-0.1-0.1-0.3-0.1-0.4-0.1c0,0,0,0-0.1,0c-0.2,0-0.4,0.2-0.5,0.3c-0.1,0.1,0.1,0,0.2,0
		c0.4,0.1,0.4,0.1,0.5,0.3c0.8,1.1,0.5,5,0.4,5.5c0,0,0,0.1,0,0.1c0,0-0.1,0.8-0.2,1c0.1,0,0,0,0.1,0c0,0,0,0,0.1,0
		c0.3,0,0.5-0.2,0.5-0.4c0-0.2,0.1-0.4,0.1-0.6C50.7,26,51.2,21.3,49.9,20.2z"/>
	<path class="st2" d="M50.5,36.3C50.5,36.3,50.5,36.3,50.5,36.3c-0.3,0-0.5,0.2-0.6,0.4c-0.2,0.9-0.2,1.7,0,2.6
		c0,0.2,0.2,0.4,0.5,0.4c0,0,0,0,0.1,0c0.2,0,0.4-0.1,0.5-0.3c0.5-1,0.5-1.8,0-2.8C51,36.5,50.7,36.3,50.5,36.3z M50.5,39.3
		c-0.2-0.8-0.2-1.6,0-2.5C51,37.7,50.9,38.5,50.5,39.3z"/>
	<path class="st2" d="M47.7,21.9c-0.2,0-0.4,0.1-0.6,0.2c-0.1,0.6,0,1.3,0,1.9c0.2-0.1,0.4-0.1,0.6-0.1
		C47.6,23.2,47.6,22.4,47.7,21.9z"/>
	<path class="st2" d="M48.4,26.9c-0.2-0.6-0.3-1.2-0.5-1.8c0,0-0.4,0-0.6,0.1c0.1,0.6,0.3,1.4,0.5,1.9C48,27,48.2,26.9,48.4,26.9z"
		/>
	<path class="st2" d="M56.6,33.1c-0.5-1.6,0.4-3,0.5-4.6c0-1.5-0.5-3.1-1.2-4.4c-0.2-0.3-0.4-0.4-0.6-0.4c-0.6,0-1.3,0.9-0.9,1.5
		c0.9,1.6,1.1,3.1,0.7,4.7c0,0.1,0,0.1,0,0.2c-0.4-1-0.9-1.9-1.2-2.9c-0.3-0.9-0.4-1.8-0.4-2.7c0-0.7,0.5-1.4-0.1-1.6l-0.2,0.4
		c0,0-0.1-0.1-0.1-0.1c0,0.1,0,0.4-0.1,0.5c-0.1,0.2-0.1,0.5-0.1,0.7c0,1,0.1,1.9,0.4,2.9c0.2,0.6,0.4,1.1,0.7,1.6
		c0.2,0.4,0.4,0.9,0.6,1.3c0.1,0.2,0.3,0.3,0.6,0.3h0c0.3,0,0.5-0.2,0.5-0.4l0-0.1l0-0.1c0.4-1.8,0.2-3.4-0.7-5
		c-0.1-0.1,0-0.3,0.1-0.5c0.1-0.2,0.2-0.3,0.3-0.3c0,0,0,0,0.1,0.1c0.8,1.4,1.2,2.9,1.2,4.2c0,0.6-0.1,1.1-0.3,1.7
		c-0.2,0.9-0.5,1.9-0.2,3c0.1,0.4,0.3,0.8,0.4,1.2c0.5,1.4,0.9,2.3-0.3,3.7c-0.1,0.1-0.2,0.2-0.2,0.2c0,0-0.1-0.1-0.2-0.2
		c-0.1-0.1-0.1-0.4,0.1-0.5c0.9-1.1,0.4-2.3-0.1-3.4l-0.1-0.1c-0.1-0.2-0.3-0.3-0.5-0.3h0c-0.3,0-0.5,0.2-0.5,0.3
		c-0.1,0.3-0.2,0.6-0.4,0.9c-0.7,1.5-0.2,2.7,0.3,3.8c0.2,0.5,0.4,1,0.6,1.5c0.4,1.5-0.2,2.9-2,4.3c-0.1,0.1-0.3,0.2-0.4,0.2
		c-0.1,0-0.2,0-0.2-0.1c0-0.1,0-0.2,0.2-0.4c2.3-1.9,1.6-3.4,0.9-4.9c-0.1-0.2-0.2-0.4-0.3-0.6c-0.1-0.2-0.3-0.3-0.5-0.3h0
		c-0.2,0-0.4,0.1-0.5,0.3c-0.3,0.5-0.6,1-1,1.5l-0.1,0.2c-0.1,0.1-0.2,0.2-0.3,0.2c-0.3,0.1-0.4,0.4-0.3,0.6c0.3,0.6,0.6,1.1,1,1.7
		c0.1,0.1,0,0.2-0.1,0.3c-0.2,0.2-0.5,0.4-0.7,0.4c0,0-0.1,0-0.1-0.1c-1.6-2.4-2.1-4.9-1.4-7.2c0.1-0.4,0.3-0.7,0.5-1.1
		c0.1-0.1,0.1-0.3,0-0.4c0,0,0-0.1,0-0.1c0,0,0-0.1,0-0.1c-0.4-1-0.5-2.1-0.3-3.3c0.1-0.5,0.2-1,0.3-1.4c0-0.1,0-0.2,0-0.3
		c-0.1-0.2-0.2-0.4-0.3-0.6c-0.1-0.2-0.2-0.4-0.4-0.7c0-0.1-0.1-0.3-0.2-0.4c-0.2,0.1-0.3,0.1-0.6,0.1c0.1,0.1,0.1,0.3,0.2,0.4
		c0.2,0.4,0.4,0.8,0.7,1.2c-0.1,0.5-0.2,0.9-0.3,1.4c-0.2,1.2-0.2,2.4,0.3,3.5c0,0.1,0.1,0.1,0.1,0.2c-0.2,0.4-0.4,0.8-0.6,1.2
		c-0.8,2.6-0.1,5.3,1.5,7.5c0.1,0.2,0.4,0.3,0.6,0.3c0.7,0,1.6-0.8,1.2-1.4c-0.4-0.5-0.7-1.1-0.9-1.6c0.2-0.1,0.4-0.2,0.5-0.4
		c0.4-0.6,0.9-1.1,1.2-1.7c0.7,1.7,1.8,3.1-0.5,5c-0.7,0.6-0.3,1.3,0.4,1.3c0.3,0,0.6-0.1,0.8-0.3c1.6-1.3,2.7-2.8,2.2-4.8
		c-0.5-1.9-1.8-3.1-0.9-5c0.2-0.3,0.3-0.6,0.4-1c0.5,1.1,1,2.2,0.2,3.1c-0.5,0.6,0,1.5,0.6,1.5c0.2,0,0.4-0.1,0.7-0.4
		C58.3,36.5,57.2,35.2,56.6,33.1z"/>
	<path class="st2" d="M51.8,26.9L51.8,26.9c-0.3,0-0.5,0.2-0.6,0.4c-0.1,0.7-0.2,1.1-0.3,1.3c-0.1,0.2-0.1,0.5-0.2,0.7
		c0,0.1,0,0.2,0,0.3c0.3,0.7,0.5,1.2,0.6,1.7c0.2,1,0,1.9-0.5,2.9c-0.1,0.1,0,0.3,0,0.4c0.2,0.3,0.4,0.5,0.6,0.7
		c0.2,0.2,0.4,0.5,0.6,0.7c0.1,0.1,0.3,0.2,0.5,0.2c0,0,0,0,0.1,0c0.2,0,0.4-0.1,0.5-0.3c0.1-0.2,0.2-0.3,0.2-0.5
		c0.1-0.1,0.1-0.3,0.2-0.4c0.5-1.1,0.6-2.3,0.2-3.7c-0.2-0.8-0.5-1.6-0.8-2.3c-0.2-0.6-0.4-1.2-0.6-1.7
		C52.3,27.1,52.1,26.9,51.8,26.9z M53.2,31.4c0.3,1.2,0.3,2.3-0.2,3.5c-0.2,0.3-0.3,0.6-0.4,0.9c-0.4-0.5-0.8-0.9-1.1-1.4
		c0.5-1,0.8-2,0.5-3.2c-0.1-0.6-0.4-1.2-0.7-1.8c0.1-0.2,0.1-0.5,0.2-0.7c0.1-0.3,0.2-0.7,0.3-1.3C52.2,28.7,52.8,30,53.2,31.4z"/>
	<path class="st2" d="M48.2,20.4c0.3-0.6,0.8-1,1.4-1.2l0.1,0c0,0,0.1,0,0.1,0c0.1,0,0.2,0,0.2,0c0.1,0,0.1,0,0.1,0
		c0.1,0.1,0.1,0.1,0.2,0.1c0.8,0.3,1.2,1.2,1.4,2.8c0,0.2,0.2,0.4,0.4,0.4c0,0,0.1,0,0.1,0c0.2,0,0.4-0.1,0.5-0.2
		c0.3-0.4,0.6-0.6,1-0.6c0.2,0,0.3,0,0.5,0.1c0.1,0,0.1,0,0.1,0.2c-0.1,0.3-0.4,0.6-0.7,0.6c0,0-0.1,0-0.1,0l-0.2,0.4
		c0.1,0,0.2,0.1,0.3,0.1c0.9,0,1.8-1.3,0.8-1.6c-0.3-0.1-0.5-0.1-0.8-0.1c-0.7,0-1.1,0.4-1.5,0.8c-0.1-1.5-0.6-2.8-1.7-3.2
		c-0.1-0.1-0.3-0.2-0.5-0.2c-0.1,0-0.3,0-0.4,0.1c-0.1,0-0.1,0-0.2,0.1c0,0,0,0,0,0c-0.9,0.3-1.4,0.9-1.8,1.6
		c-0.1,0.1-0.1,0.2-0.1,0.2S48.1,20.4,48.2,20.4z"/>
</g>
<path class="st21" d="M74.1,77.9c0.5,0.4,1,0.8,1.5,1.2c1.1,0.9,2,2,2.8,3.1c0.1,0.1,0.1,0.2,0,0.3c-0.4,0.6-0.9,1.2-1.3,1.9
	c0,0.1-0.1,0.1-0.2,0.2c-0.8,0.5-1.6,0.9-2.4,1.4c0,0,0,0-0.1,0c-1.7-2.6-3.9-4.4-7-5.1c-2.4-0.5-4.8-0.3-7,0.9
	c-4.3,2.3-6.6,6.9-5.4,12c0.9,3.7,4.6,7.9,10.2,7.8c2.4,0,4.5-0.7,6.4-2.2c1.5-1.2,2.7-2.6,3.4-4.4c-1.3,0-2.6,0-4,0
	c0,0.2,0,0.4,0,0.7c0,0.5,0,1,0,1.5c0,0.1,0,0.2-0.1,0.3c-1,1-2.2,1.6-3.6,1.9c0,0-0.1,0-0.1,0c0-1.5,0-2.9,0-4.4
	c-1.3,0-2.5,0-3.8,0c0,1.5,0,2.9,0,4.4c-0.2,0-0.3-0.1-0.5-0.1c-1.2-0.4-2.3-1-3.3-1.8c-0.1-0.1-0.1-0.2-0.1-0.3c0-0.7,0-1.4,0-2.2
	c-0.1,0-0.3,0-0.4,0c-0.4,0-0.8,0-1.2,0c-0.2,0-0.3-0.1-0.4-0.2c-0.5-1.1-0.7-2.2-0.8-3.4c0-0.1,0-0.1,0-0.2c0.9,0,1.8,0,2.7,0
	c0-0.1,0-0.2,0-0.3c0-1.9,0-3.8,0-5.7c0-0.2,0-0.3,0.2-0.4c1-0.9,2.1-1.5,3.4-1.9c0.1,0,0.1,0,0.2,0c0,0,0,0,0.1,0
	c0,1.4,0,2.7,0,4.1c0,1.4,0,2.7,0,4.1c1.3,0,2.5,0,3.8,0c0-2.7,0-5.5,0-8.3c0.2,0.1,0.4,0.1,0.6,0.1c1.2,0.3,2.2,1,3.1,1.8
	c0.1,0.1,0.2,0.2,0.2,0.4c0,1.9,0,3.8,0,5.7c0,0.2,0.1,0.3,0.3,0.3c2.3,0,4.7,0,7,0c0.1,0,0.2,0,0.3,0c0,0.3,0,0.6,0,0.9
	c-0.1,2-0.6,3.9-1.6,5.7c-0.1,0.1,0,0.2,0,0.3c0.4,0.6,0.8,1.2,1.3,1.8c0.1,0.1,0.1,0.2,0,0.3c-1.2,1.7-2.6,3.1-4.3,4.2
	c0,0-0.1,0-0.1,0.1c-0.6-0.5-1.3-0.9-1.9-1.4c-0.1-0.1-0.2-0.1-0.4,0c-0.9,0.5-1.7,0.8-2.7,1.1c-0.1,0-0.2,0.1-0.2,0.2
	c-0.1,0.7-0.2,1.4-0.4,2.1c0,0.2-0.1,0.3-0.3,0.3c-1.9,0.3-3.8,0.3-5.8,0c-0.2,0-0.2-0.1-0.3-0.3c-0.1-0.7-0.2-1.5-0.4-2.2
	c0-0.1-0.1-0.2-0.2-0.2c-0.9-0.3-1.9-0.6-2.7-1.1c-0.1-0.1-0.2-0.1-0.3,0c-0.6,0.4-1.2,0.8-1.8,1.3c-0.1,0.1-0.2,0.1-0.3,0
	c-1.6-1.1-3-2.5-4.2-4.2c-0.1-0.1-0.1-0.2,0-0.3c0.4-0.6,0.9-1.2,1.3-1.8c0.1-0.1,0.1-0.2,0-0.3c-0.5-0.8-0.9-1.7-1.1-2.7
	c0-0.2-0.1-0.2-0.3-0.3c-0.7-0.1-1.4-0.2-2.1-0.4c-0.2,0-0.3-0.1-0.3-0.3c-0.3-1.9-0.3-3.9,0-5.8c0-0.2,0.1-0.2,0.3-0.3
	c0.7-0.1,1.5-0.3,2.2-0.4c0.1,0,0.2-0.1,0.2-0.2c0.3-0.9,0.6-1.9,1.1-2.7c0.1-0.1,0.1-0.2,0-0.3c-0.4-0.6-0.8-1.2-1.3-1.8
	c-0.1-0.1-0.1-0.2,0-0.3c1.2-1.6,2.6-3,4.2-4.2c0.1-0.1,0.2-0.1,0.3,0c0.6,0.4,1.2,0.8,1.8,1.3c0.1,0.1,0.2,0.1,0.4,0
	c0.8-0.5,1.7-0.8,2.6-1.1c0.2,0,0.2-0.1,0.3-0.3c0.1-0.7,0.3-1.4,0.4-2.1c0-0.2,0.1-0.2,0.2-0.2c2-0.3,3.9-0.3,5.9,0
	c0.2,0,0.2,0.1,0.3,0.3c0.1,0.7,0.2,1.4,0.4,2.2c0,0.1,0.1,0.2,0.2,0.2c1,0.3,1.9,0.7,2.8,1.1c0.1,0,0.2,0,0.3,0
	C72.8,78.9,73.4,78.4,74.1,77.9z"/>
</svg>
