<?xml version="1.0" encoding="utf-8"?>
<!-- Generator: Adobe Illustrator 21.0.2, SVG Export Plug-In . SVG Version: 6.00 Build 0)  -->
<svg version="1.0" id="Layer_1" xmlns="http://www.w3.org/2000/svg" xmlns:xlink="http://www.w3.org/1999/xlink" x="0px" y="0px"
	 viewBox="0 0 128 128" style="enable-background:new 0 0 128 128;" xml:space="preserve">
<style type="text/css">
	.st0{fill:url(#SVGID_1_);}
	.st1{fill:#A8141A;}
	.st2{fill:url(#SVGID_2_);}
	.st3{fill:#E3CAC8;}
	.st4{fill:#D91A3D;}
	.st5{fill:url(#SVGID_3_);}
	.st6{fill:#91001F;stroke:#590B0D;stroke-width:1.089;stroke-miterlimit:10;}
	.st7{fill:url(#SVGID_4_);}
	.st8{fill:url(#SVGID_5_);}
	.st9{fill:#C62828;stroke:#A8141A;stroke-width:1.022;stroke-miterlimit:10;}
	.st10{fill:url(#SVGID_6_);}
	.st11{fill:url(#SVGID_7_);}
	.st12{fill:#FEFDFD;}
	.st13{fill:url(#SVGID_8_);}
	.st14{fill:#3C2B24;}
	.st15{fill:#291B16;}
	.st16{clip-path:url(#SVGID_10_);}
	.st17{fill:url(#SVGID_11_);}
	.st18{fill:#4A2F27;}
	.st19{fill:#1A1717;}
	.st20{fill:#33251F;}
	.st21{fill:url(#SVGID_12_);}
	.st22{fill:#1F1D1B;}
	.st23{fill:#232020;}
	.st24{fill:url(#SVGID_13_);}
	.st25{clip-path:url(#SVGID_15_);}
	.st26{fill:url(#SVGID_16_);}
	.st27{clip-path:url(#SVGID_18_);}
	.st28{fill:url(#SVGID_19_);}
</style>
<linearGradient id="SVGID_1_" gradientUnits="userSpaceOnUse" x1="94.0107" y1="118.6625" x2="69.8297" y2="59.4505" gradientTransform="matrix(0.9969 7.810000e-02 7.810000e-02 -0.9969 -24.8058 149.8968)">
	<stop  offset="3.247800e-03" style="stop-color:#BD161D"/>
	<stop  offset="0.1899" style="stop-color:#D21920"/>
	<stop  offset="0.3994" style="stop-color:#E11B22"/>
	<stop  offset="0.6432" style="stop-color:#EA1C24"/>
	<stop  offset="1" style="stop-color:#ED1C24"/>
</linearGradient>
<path class="st0" d="M52.1,98c-4.1,0-6-2.2-6.8-3.6c-1.2-2-1.3-4.4-0.4-6.2c1.3-2.5,1.7-4.6,0.9-6.3c-0.8-1.8-2.6-3.1-5.6-4
	c-1.7-0.5-2.8-1.3-3.3-2.2c-0.3-0.6-0.2-1.2-0.1-1.5l19-14.1l21.2-19l12-1.3c1.5,13.8-5.3,37.5-10.5,44.5c-4.1,5.6-6.4,11-7.2,13.2
	c-1.1-0.5-2.4-0.7-3.8-0.7c-2.4,0-4.5,0.7-5.4,1l-4.5-1.6l-0.3,0.2c-0.6,0.3-1.1,0.7-1.6,1.1C54.4,97.8,53.2,98,52.1,98L52.1,98z"/>
<path class="st1" d="M88.3,40.8c1.2,14.4-5.9,37.1-10.4,43.1c-3.8,5.1-6,10.1-7,12.6c-1-0.3-2.1-0.5-3.3-0.5c-2.3,0-4.3,0.6-5.4,0.9
	l-3.9-1.3l-0.7-0.2l-0.7,0.4c-0.5,0.3-1.1,0.7-1.6,1c-1.1,0.3-2.2,0.4-3.2,0.4c-3.7,0-5.4-2-6.1-3.2c-1-1.7-1.2-3.9-0.4-5.4
	c1.5-2.8,1.8-5.1,1-7c-0.8-2-2.8-3.5-6.1-4.5c-1.4-0.4-2.4-1-2.7-1.7c-0.1-0.3-0.1-0.5-0.1-0.7l18.7-13.9l0.1,0l0.1,0l21-18.8
	L88.3,40.8 M89.8,39l-13.1,1.5L55.3,59.6L36.2,73.8c0,0-1.5,3.3,3.8,4.9c5.4,1.6,6.6,4.5,4.2,9.1c-2.1,4,0.6,10.9,8,10.9
	c1.2,0,2.5-0.2,4-0.6c0.5-0.4,1.1-0.8,1.7-1.1l4.5,1.5c0.2-0.1,2.6-1,5.3-1c1.4,0,2.9,0.3,4.2,1.1c0,0,2.3-6.9,7.4-13.8
	C84.4,77.9,91.7,53.1,89.8,39z"/>
<path class="st1" d="M91,15.1c0,0,2.7,1.4,2.8,2.9l2.3,11.2l-7.7,15l0-0.1c-0.5,3-1.3,7.2-2.6,12.2c-1.3,5.1-3.1,8.1-3.1,8.1
	L67,59.7L66.1,52c-0.6,0.6-1.5,1-2.4,1c-0.3,0-0.5,0-0.8-0.1l-0.5-0.3c-1.8-0.5-3.3-2.3-2.8-4.1l4.6-12.5c0.3-1.3,1.3-2.2,2.5-2.5
	c1.9-1,4.8-1.4,7.6-1.4c0.8,0,1.5,0,2.2,0.1c2.9,0.2,6.6,1.5,9.2,3l3.4-6.8c0.2-0.4-0.6-10.5-0.6-10.5C88.4,16.3,89.5,15.1,91,15.1
	 M91,14.1L91,14.1c-2,0-3.6,1.7-3.6,3.8v0.1c0.3,4.3,0.7,9.1,0.6,10.1l-2.9,5.7c-2.7-1.4-6-2.4-8.7-2.6C75.7,31,75,31,74.2,31
	c-1.9,0-5.4,0.2-8,1.5c-1.5,0.4-2.7,1.6-3.1,3.1l-4.6,12.5c0,0,0,0,0,0.1c-0.7,2.4,1.2,4.6,3.4,5.3l0.4,0.3c0.1,0,0.2,0.1,0.3,0.1
	c0.4,0.1,0.7,0.2,1.1,0.2c0.5,0,1.1-0.1,1.6-0.3l0.7,6.1c0.1,0.4,0.3,0.7,0.7,0.8l15.8,4.6c0.1,0,0.2,0,0.3,0c0.3,0,0.7-0.2,0.9-0.5
	c0.1-0.1,1.8-3.1,3.2-8.3c1.1-4,1.9-8,2.5-11.9l7.7-15c0.1-0.2,0.1-0.4,0.1-0.6l-2.3-11.1c-0.1-1.9-2.8-3.4-3.3-3.6
	C91.3,14.1,91.2,14.1,91,14.1z"/>
<path class="st1" d="M59.2,48.5L63.8,36c0.5-1.9,2.4-3,4.2-2.5c1.8,0.5,2.8,2.4,2.3,4.3l-3.5,12.7c-0.5,1.9-2.4,3-4.2,2.5L62,52.6
	C60.2,52.1,58.7,50.4,59.2,48.5z"/>
<linearGradient id="SVGID_2_" gradientUnits="userSpaceOnUse" x1="60.6258" y1="112.5342" x2="79.6829" y2="112.5342" gradientTransform="matrix(0.9897 5.910000e-02 6.160000e-02 -1.0326 -21.4505 156.4385)">
	<stop  offset="0" style="stop-color:#ED1C24"/>
	<stop  offset="0.3568" style="stop-color:#EA1C24"/>
	<stop  offset="0.6006" style="stop-color:#E11B22"/>
	<stop  offset="0.8101" style="stop-color:#D21920"/>
	<stop  offset="0.9968" style="stop-color:#BD161D"/>
</linearGradient>
<path class="st2" d="M63.8,54.1c-2.2-0.3-4.6-1.4-7.2-3c-4.3-2.7-8.5-6.9-9.9-10c-1-2.1-1.2-3.8-0.6-4.9c0.6-1,1.7-1.2,2.5-1.3
	c0.3,0,0.5,0,0.7,0c0.9,0,1.5,0.2,1.8,0.5c0.6,0.7,0.4,2.4,0.1,4.4c-0.1,0.5-0.2,1.1-0.2,1.7c0,0.3,0.1,0.7,0.4,1.1
	c0.8,1,3,2.2,4.7,2.3c2,0.1,3.4,0.5,4.4,1.3l0,0C62.3,47.5,63.2,49.7,63.8,54.1z"/>
<path class="st1" d="M49.5,35.5c0.5,0,1.2,0.1,1.4,0.4c0.5,0.5,0.2,2.2,0,4c-0.1,0.5-0.2,1.1-0.2,1.7c-0.1,0.5,0.1,1,0.5,1.5
	c0.9,1.1,3.3,2.4,5,2.5c1.8,0.1,3.1,0.5,4,1.1l0,0l0.1,0.1c1.4,1,2.3,2.9,2.8,6.6c-1.9-0.4-4-1.4-6.2-2.8c-4.8-3-8.5-7.2-9.7-9.7
	c-0.9-1.9-1.1-3.5-0.6-4.3c0.4-0.8,1.4-1,2.1-1C49,35.5,49.3,35.5,49.5,35.5 M49.5,34.4c-0.2,0-0.5,0-0.8,0c-2.7,0.2-4.6,2.2-2.4,7
	c1.4,3,5.5,7.3,10.1,10.2c2.7,1.7,5.5,2.9,8.1,3.1c-0.5-4.5-1.4-7.3-3.5-8.8l0,0c-1.1-0.8-2.7-1.2-4.7-1.4c-1.8-0.1-4.7-1.9-4.6-2.8
	C52.3,37.3,53.3,34.4,49.5,34.4z"/>
<path class="st1" d="M67.5,80.9c-0.8,4.7-7.2,19.3-7.2,19.3l4.8,2.5l10.1-19.6C75.3,83.1,70.6,82,67.5,80.9z"/>
<path class="st3" d="M68.4,57c1.2,0.7,2.3,1.3,3.5,2l0.9,0.5c0.2,0.1,0.6,0.3,0.9,0.5l1.8,1l1.7,1l0.4,0.3l0.4,0.2
	c0.3,0.2,0.6,0.3,0.9,0.5c0.6,0.3,1.2,0.6,1.8,0.9c0.6,0.3,1.2,0.6,1.8,0.9l0,0.1c-1.3-0.4-2.6-0.8-3.8-1.4c-0.5-0.2-1-0.4-1.5-0.7
	c-0.2-0.1,0.2-0.3-0.5-0.7c-0.6-0.4-2.8-1.2-3.4-1.5c-0.5-0.3-1.1-0.6-1.6-1C70.5,58.7,69.4,57.9,68.4,57L68.4,57z"/>
<path class="st4" d="M77.1,62.6c0.5,0.3,1,0.5,1.6,0.8c1.2,0.5,2.5,1,3.8,1.4l0,0.1c-0.7-0.1-1.3-0.3-2-0.4
	c-0.7-0.2-1.3-0.4-1.9-0.7c-0.3-0.1-0.6-0.3-0.9-0.4l-0.3-0.2L77.1,62.6z"/>
<path class="st4" d="M72.4,60.4c0,0-0.1-0.1-0.1-0.1c-0.3-0.2-0.6-0.4-0.8-0.6c-0.5-0.4-1.1-0.8-1.6-1.3c-0.5-0.5-1-0.9-1.5-1.4l0,0
	c1.1,0.8,2.2,1.6,3.3,2.3c0.4,0.3,0.9,0.6,1.3,0.8L72.4,60.4z"/>
<linearGradient id="SVGID_3_" gradientUnits="userSpaceOnUse" x1="92.2162" y1="125.3064" x2="92.2162" y2="93.664" gradientTransform="matrix(0.9969 7.810000e-02 7.810000e-02 -0.9969 -24.8058 149.8968)">
	<stop  offset="0" style="stop-color:#ED1C24"/>
	<stop  offset="0.3568" style="stop-color:#EA1C24"/>
	<stop  offset="0.6006" style="stop-color:#E11B22"/>
	<stop  offset="0.8101" style="stop-color:#D21920"/>
	<stop  offset="0.9968" style="stop-color:#BD161D"/>
</linearGradient>
<path class="st5" d="M64,36.4l2.7,23.3l16,4.7c0,0,1.7-3,3.1-8.1c2.7-10,3.2-17.1,3.2-17.1c0.3-3.5-7.4-6.7-12.7-7.1
	C70.9,31.7,64.2,32.7,64,36.4z"/>
<path class="st6" d="M62.4,83.3l-3.4,5c-1,1.5-5.1,5.1-6.8,4.3s0.3-6.6,1.3-8.1l3.4-5c1-1.5,3.2-1.9,4.7-0.9S63.5,81.8,62.4,83.3z"
	/>
<linearGradient id="SVGID_4_" gradientUnits="userSpaceOnUse" x1="-153.4942" y1="-44.8688" x2="-127.7568" y2="-44.8688" gradientTransform="matrix(0.5008 -0.7888 -0.8442 -0.536 97.114 -62.8168)">
	<stop  offset="0" style="stop-color:#ED1C24"/>
	<stop  offset="0.3568" style="stop-color:#EA1C24"/>
	<stop  offset="0.6006" style="stop-color:#E11B22"/>
	<stop  offset="0.8101" style="stop-color:#D21920"/>
	<stop  offset="0.9968" style="stop-color:#BD161D"/>
</linearGradient>
<path class="st7" d="M75.4,64.8L64.5,80.6c-1.7,2.4-4.8,2.4-6.4,1.7c-1.5-0.8-2.7-3.9-1.4-5.9c3.7-5.8,9.9-17.2,9.9-17.2L75.4,64.8z
	"/>
<linearGradient id="SVGID_5_" gradientUnits="userSpaceOnUse" x1="-216.5849" y1="-35.2791" x2="-190.8227" y2="-35.2791" gradientTransform="matrix(0.272 -0.8939 -0.9567 -0.2911 95.0277 -115.7928)">
	<stop  offset="0" style="stop-color:#ED1C24"/>
	<stop  offset="0.3568" style="stop-color:#EA1C24"/>
	<stop  offset="0.6006" style="stop-color:#E11B22"/>
	<stop  offset="0.8101" style="stop-color:#D21920"/>
	<stop  offset="0.9968" style="stop-color:#BD161D"/>
</linearGradient>
<path class="st8" d="M81.9,66.6L75,85.2c-0.7,2.3-3.2,3.4-5.3,2.8s-3.7-2.7-3-4.9c2-6.6,5.2-19.6,5.2-19.6L81.9,66.6z"/>
<path class="st1" d="M66.6,59.2l8.2,5.2l7.1,2.1L75,85.2c-0.3,1.1-1.1,1.9-2.1,2.4l-7.8,15.1l-4.8-2.5c0,0,4.2-9.7,6.2-15.8
	c0-0.4,0-0.8,0.1-1.3c0.8-2.6,1.8-6.1,2.6-9.5l-4.8,7c-1.1,1.5-2.8,2.1-4.3,2.1c-0.8,0-1.5-0.2-2.1-0.4c-1.5-0.8-2.7-3.9-1.4-5.9
	C60.5,70.6,66.6,59.2,66.6,59.2 M66.6,58.2c-0.1,0-0.2,0-0.3,0c-0.3,0.1-0.5,0.3-0.6,0.5c-0.1,0.1-6.2,11.4-9.8,17.1
	c-0.7,1.1-0.9,2.7-0.5,4.2c0.4,1.4,1.3,2.6,2.3,3.1c0.7,0.3,1.6,0.5,2.5,0.5c2.1,0,3.9-0.9,5.1-2.5l1.6-2.3
	c-0.4,1.5-0.8,2.8-1.1,3.9c-0.1,0.4-0.2,0.9-0.2,1.4c-2,6-6.1,15.5-6.2,15.6c-0.2,0.5,0,1,0.5,1.3l4.8,2.5c0.2,0.1,0.3,0.1,0.4,0.1
	c0.4,0,0.7-0.2,0.9-0.5l7.7-14.8c1.1-0.7,1.9-1.7,2.3-2.8l6.8-18.6c0.1-0.3,0.1-0.5,0-0.8c-0.1-0.2-0.3-0.4-0.6-0.5l-6.9-2.1
	l-8.1-5.1C67,58.3,66.8,58.2,66.6,58.2L66.6,58.2z"/>
<polygon class="st9" points="82.3,67.8 65.4,60.8 66.4,58.1 83.5,64.6 "/>
<path class="st1" d="M93.8,18c0-1.5-2.8-2.9-2.8-2.9c-1.5,0-2.7,1.3-2.6,2.7c0,0,0.8,10,0.6,10.5l-3.9,7.5l3.3,8.4l7.8-15L93.8,18z"
	/>
<path class="st1" d="M76.2,61.1c0.2,0.3,0.3,0.7,0.1,1.1L75.6,64c-0.1,0.2-0.2,0.4-0.4,0.6h0c-0.3,0.3-0.8,0.4-1.2,0.2l-2.8-1
	c-0.4-0.1-0.7-0.5-0.8-0.8c-0.1-0.3-0.1-0.5,0-0.8l0.7-1.8c0.1-0.3,0.4-0.6,0.7-0.7c0.3-0.1,0.6-0.2,1,0l2.8,1
	C75.8,60.7,76,60.9,76.2,61.1z"/>
<linearGradient id="SVGID_6_" gradientUnits="userSpaceOnUse" x1="120.4412" y1="137.159" x2="135.0012" y2="115.478" gradientTransform="matrix(0.9233 7.450000e-02 6.900000e-02 -0.9075 -40.1407 118.6305)">
	<stop  offset="0" style="stop-color:#ED1C24"/>
	<stop  offset="0.3568" style="stop-color:#EA1C24"/>
	<stop  offset="0.6006" style="stop-color:#E11B22"/>
	<stop  offset="0.8101" style="stop-color:#D21920"/>
	<stop  offset="0.9968" style="stop-color:#BD161D"/>
</linearGradient>
<path class="st10" d="M96.8,25.2c-0.2,0-0.5,0-0.7,0c-1.8,0-5.8-0.4-7.7-1c-0.1-0.9-0.5-3.9-1.8-10.5c-0.8-4.3-2.1-6.1-4.5-6.1
	c-0.4,0-0.8,0.1-1.3,0.1s-0.8,0.1-1.2,0.1c-0.3,0-0.6,0-0.8-0.1c-1.4-0.3-2.2-0.8-2.4-1.3c-0.3-0.7,0.2-1.7,0.8-2.8l0.1-0.2
	c0.5-1,1-1.4,1.8-1.4c1.5,0,4.1,1.6,7.5,4.8c6.7,6.1,9.1,12.4,10.6,18.4C97.2,25.2,97,25.2,96.8,25.2z"/>
<path class="st1" d="M79.1,2.6c1,0,3,0.8,7.2,4.6C92.7,13,95.1,19,96.6,24.7c-0.2,0-0.4,0-0.6,0c-1.7,0-5.4-0.4-7.3-0.9
	c-0.2-1.2-0.6-4.2-1.7-10.2c-0.8-4.5-2.3-6.5-4.9-6.5c-0.4,0-0.9,0.1-1.3,0.1c-0.4,0.1-0.8,0.1-1.1,0.1c-0.3,0-0.5,0-0.7-0.1
	c-1.6-0.4-2-0.8-2.1-1.1c-0.2-0.4,0.3-1.4,0.8-2.4l0.1-0.2C78.2,2.8,78.6,2.6,79.1,2.6 M79.1,1.6c-1.1,0-1.8,0.7-2.2,1.7
	c-1.1,2.3-2.1,4,1.9,5c0.3,0.1,0.6,0.1,0.9,0.1c0.8,0,1.6-0.2,2.4-0.2c1.6,0,3.1,0.8,4,5.6c1.5,8.1,1.8,10.8,1.8,10.8
	c1.9,0.8,6.5,1.1,8.2,1.2c0.3,0,0.5,0,0.7,0c0.7,0,1.1,0,1.1,0c-1.6-6.4-4.1-13-10.9-19.2C83,2.9,80.7,1.6,79.1,1.6z"/>
<linearGradient id="SVGID_7_" gradientUnits="userSpaceOnUse" x1="72.1562" y1="31.8105" x2="86.0612" y2="59.8515" gradientTransform="matrix(0.9969 7.810000e-02 7.810000e-02 -0.9969 -24.8058 149.8968)">
	<stop  offset="3.247800e-03" style="stop-color:#B00026"/>
	<stop  offset="0.2596" style="stop-color:#BA0526"/>
	<stop  offset="0.7011" style="stop-color:#D61225"/>
	<stop  offset="1" style="stop-color:#ED1C24"/>
</linearGradient>
<path class="st11" d="M48.9,125.8c-0.7,0-1.4-0.4-2.2-1.2c-1.9-2.2,1.7-6.6,5.2-10.8c2.6-3.2,5.3-6.4,6-9.1c0-0.1,1.1-4.5,2.3-6.8
	c1.3-1.1,4-3.4,5.5-3.4c0.3,0,0.6,0.1,0.7,0.3c0.6,0.8,1,3-0.5,9.5c-2.3,2.2-5.5,5.8-7.7,9.6l-0.9,1.6
	C54.8,120.4,51.7,125.8,48.9,125.8z"/>
<path class="st1" d="M65.8,95.1c0.2,0,0.2,0,0.3,0.1c0.3,0.3,1,1.9-0.5,8.8c-2.3,2.2-5.5,5.8-7.7,9.7c-0.3,0.5-0.6,1.1-0.9,1.6
	c-2.5,4.4-5.7,10-8,10c-0.5,0-1.1-0.3-1.7-1c-1.6-1.8,2-6.2,5.2-10.1c2.8-3.4,5.4-6.5,6.1-9.4c0,0,1-4.3,2.2-6.5
	C61.9,97.3,64.5,95.1,65.8,95.1 M65.8,93.8c-1.6,0-3.9,1.8-6,3.7c-1.2,2.3-2.4,7-2.4,7c-1.7,6.3-14.9,16.2-11.1,20.5
	c0.9,1,1.7,1.4,2.6,1.4c3.4,0,6.8-6.6,10-12.2c2.2-3.9,5.6-7.6,7.7-9.6C68.5,96.4,67.7,93.8,65.8,93.8z"/>
<path class="st12" d="M78.9,48.8c-0.2,0-0.5-0.1-0.7-0.1c-0.2,0-0.4,0-0.6-0.1c-0.1,0-0.1,0-0.1,0.1c0,0.2,0,0.5-0.1,0.7
	c0,0,0,0.1,0,0.1c-0.4,0.3-0.9,0.5-1.4,0.6c-0.1,0-0.1,0-0.1-0.1c0.1-0.5,0.1-1,0.2-1.4c0-0.1,0-0.1-0.1-0.1c-0.4,0-0.8-0.1-1.2-0.1
	c-0.1,0-0.1,0-0.1,0.1c0,0.5-0.1,1-0.1,1.4c0,0.1,0,0.1-0.1,0.1c-0.5-0.2-0.9-0.5-1.2-0.8c0,0,0-0.1,0-0.1c0-0.2,0-0.5,0.1-0.7
	c0-0.1,0-0.1-0.1-0.1c-0.2,0-0.3,0-0.5-0.1c0,0-0.1,0-0.1-0.1c-0.2-0.4-0.2-0.9-0.2-1.3c0-0.1,0-0.1,0.1-0.1c0.3,0,0.5,0.1,0.8,0.1
	c0.1,0,0.1,0,0.1-0.1c0.1-0.7,0.1-1.4,0.2-2.1c0,0,0-0.1,0.1-0.1c0.4-0.3,0.8-0.5,1.3-0.5c0.1,0,0.1,0,0.1,0.1
	c-0.1,0.9-0.2,1.9-0.3,2.8c0,0.1,0,0.1,0.1,0.1c0.4,0,0.8,0.1,1.2,0.1c0.1,0,0.1,0,0.1-0.1c0.1-0.9,0.2-1.9,0.3-2.8
	c0-0.1,0-0.1,0.1-0.1c0.5,0.2,0.8,0.4,1.2,0.8c0,0,0.1,0.1,0,0.1c-0.1,0.7-0.1,1.4-0.2,2.1c0,0.1,0,0.1,0.1,0.1
	c0.9,0.1,1.7,0.2,2.6,0.3c0.1,0,0.1,0,0.1,0.1c-0.1,0.8-0.4,1.5-0.8,2.2c0,0,0,0.1,0,0.1c0.1,0.2,0.3,0.5,0.4,0.7c0,0,0,0.1,0,0.1
	c-0.5,0.5-1,1-1.7,1.3c0,0-0.1,0-0.1,0c-0.2-0.2-0.4-0.3-0.6-0.5c0,0-0.1,0-0.1,0c-0.3,0.1-0.7,0.2-1,0.3c0,0-0.1,0-0.1,0.1
	c-0.1,0.3-0.2,0.5-0.2,0.8c0,0,0,0.1-0.1,0.1c-0.7,0-1.4,0-2.1-0.2c-0.1,0-0.1,0-0.1-0.1c0-0.3,0-0.5-0.1-0.8c0,0,0-0.1-0.1-0.1
	c-0.3-0.1-0.6-0.3-0.9-0.5c0,0-0.1,0-0.1,0c-0.2,0.1-0.5,0.3-0.7,0.4c0,0-0.1,0-0.1,0c-0.5-0.5-1-1-1.3-1.7c0,0,0-0.1,0-0.1
	c0.2-0.2,0.4-0.4,0.5-0.6c0,0,0-0.1,0-0.1c-0.1-0.3-0.2-0.7-0.3-1c0-0.1,0-0.1-0.1-0.1c-0.3-0.1-0.5-0.1-0.8-0.2
	c-0.1,0-0.1,0-0.1-0.1c0-0.5,0-0.9,0.1-1.4c0-0.2,0.1-0.5,0.2-0.7c0-0.1,0-0.1,0.1-0.1c0.3,0,0.5,0,0.8-0.1c0,0,0.1,0,0.1-0.1
	c0.1-0.3,0.3-0.7,0.5-1c0,0,0-0.1,0-0.1c-0.1-0.2-0.3-0.5-0.4-0.7c0-0.1,0-0.1,0-0.1c0.5-0.5,1-1,1.7-1.3c0.1,0,0.1,0,0.1,0
	c0.2,0.2,0.4,0.4,0.6,0.5c0,0,0.1,0,0.1,0c0.3-0.1,0.7-0.2,1-0.3c0.1,0,0.1,0,0.1-0.1c0.1-0.3,0.1-0.5,0.2-0.8c0-0.1,0-0.1,0.1-0.1
	c0.6,0,1.1,0,1.7,0.1c0.2,0,0.3,0.1,0.5,0.1c0.1,0,0.1,0,0.1,0.1c0,0.3,0,0.5,0.1,0.8c0,0,0,0.1,0.1,0.1c0.3,0.1,0.7,0.3,0.9,0.5
	c0,0,0.1,0,0.1,0c0.2-0.1,0.5-0.3,0.7-0.4c0,0,0.1,0,0.1,0c0.5,0.5,1,1,1.4,1.7c0,0,0,0.1,0,0.1c-0.2,0.2-0.4,0.4-0.6,0.6
	c0,0-0.1,0-0.1,0.1c-0.3,0.1-0.6,0.2-0.8,0.4c-0.1,0-0.1,0-0.1-0.1c-0.4-0.7-0.9-1.4-1.6-1.7c-1.9-1-4.1-0.4-5.1,1.5
	c-0.3,0.6-0.5,1.2-0.5,1.9c0,1.4,0.7,2.5,1.9,3.3c0.5,0.3,1.2,0.5,1.8,0.5c1.5,0,2.6-0.7,3.4-1.9C78.8,48.9,78.8,48.8,78.9,48.8
	C78.9,48.8,78.9,48.8,78.9,48.8z"/>
<g>
	
		<linearGradient id="SVGID_8_" gradientUnits="userSpaceOnUse" x1="130.39" y1="156.1193" x2="130.39" y2="151.6093" gradientTransform="matrix(0.9003 7.050000e-02 9.150000e-02 -1.1676 -55.5262 204.8591)">
		<stop  offset="3.247800e-03" style="stop-color:#BD161D"/>
		<stop  offset="0.1899" style="stop-color:#D21920"/>
		<stop  offset="0.3994" style="stop-color:#E11B22"/>
		<stop  offset="0.6432" style="stop-color:#EA1C24"/>
		<stop  offset="1" style="stop-color:#ED1C24"/>
	</linearGradient>
	<path class="st13" d="M77.9,37.3c-0.3,0-0.6,0-1,0c-5-0.4-7.3-1.9-8.3-3.1c-0.8-0.9-1-1.8-1-2.2c1.7-0.6,2.8-0.9,5.1-0.9
		c1.1,0,2.5,0.1,4.3,0.3c4.5,0.5,6.8,2,7.6,2.5C84.1,34.8,82.5,37.3,77.9,37.3z"/>
	<path class="st1" d="M72.7,31.5c1.1,0,2.5,0.1,4.2,0.3c3.8,0.5,6,1.6,6.9,2.2c-0.6,1-2.2,2.7-5.9,2.7c-0.3,0-0.6,0-0.9,0
		c-7-0.5-8.5-3.2-8.8-4.4C69.6,31.8,70.7,31.5,72.7,31.5 M72.7,30.5c-2.5,0-3.7,0.5-5.6,1.1c0,0-0.4,5.4,9.8,6.2c0.3,0,0.7,0,1,0
		c5.9,0,7.2-4.1,7.2-4.1s-2.3-2.2-8.1-2.9C75.2,30.6,73.8,30.5,72.7,30.5z"/>
	<path class="st14" d="M76.5,35.5l-0.5,0c-1.2-0.1-2.1-1.1-2-2.2l0.2-2.6l4.8,0.3l-0.2,2.6c-0.1,1.1-1,1.9-2.2,1.9
		C76.7,35.6,76.6,35.6,76.5,35.5z"/>
	<path class="st15" d="M74.5,31.1l4.2,0.3l-0.2,2.3c-0.1,0.9-0.9,1.6-1.8,1.6h-0.1l-0.5,0c-0.5,0-1-0.3-1.3-0.6
		c-0.3-0.3-0.5-0.8-0.4-1.3L74.5,31.1 M73.9,30.5l-0.2,2.9c-0.1,1.3,0.9,2.4,2.3,2.5l0.5,0c0.1,0,0.1,0,0.2,0c1.3,0,2.4-1,2.4-2.2
		l0.2-2.9L73.9,30.5z"/>
	<g>
		<defs>
			<path id="SVGID_9_" d="M76.6,30.6l-2.7-0.2l-0.2,2.9c-0.1,1.3,0.9,2.4,2.3,2.5l0.5,0c1.4,0.1,2.5-0.9,2.6-2.2l0.2-2.9L76.6,30.6z
				"/>
		</defs>
		<clipPath id="SVGID_10_">
			<use xlink:href="#SVGID_9_"  style="overflow:visible;"/>
		</clipPath>
		<g class="st16">
			<path d="M76.4,33.2c-2-0.1-2.7-0.7-2.7-0.7l-0.2,2.9c-0.1,1.3,0.9,2.4,2.3,2.5l0.5,0c1.4,0.1,2.5-0.9,2.6-2.2l0.2-2.9
				C79.2,32.9,78.4,33.4,76.4,33.2z"/>
		</g>
	</g>
	<path class="st14" d="M83.6,26.9l-13.5-0.8c-1.3-0.1-2.3-1.3-2.2-2.7c0.1-1.3,1.1-2.4,2.4-2.4h0.1l13.5,0.8c0.6,0,1.2,0.3,1.6,0.8
		c0.4,0.5,0.6,1.1,0.6,1.8c-0.1,1.3-1.1,2.4-2.4,2.4L83.6,26.9z"/>
	<path class="st15" d="M70.3,21.4h0.1l1.8,0.1l9.8,0.6l1.8,0.1c1.1,0.1,2,1.1,1.9,2.3c-0.1,1.2-1,2.1-2.1,2.1h-0.1l-1.8-0.1
		l-9.8-0.6l-1.8-0.1c-1.1-0.1-2-1.1-1.9-2.3C68.3,22.3,69.2,21.4,70.3,21.4 M70.3,20.8c-1.4,0-2.6,1.2-2.7,2.7c-0.1,1.5,1,2.9,2.5,3
		l1.8,0.1l9.8,0.6l1.8,0.1h0.2c1.4,0,2.6-1.2,2.7-2.7c0.1-1.5-1-2.9-2.5-3l-1.8-0.1l-9.8-0.6l-1.8-0.1H70.3z"/>
	
		<linearGradient id="SVGID_11_" gradientUnits="userSpaceOnUse" x1="88.5861" y1="122.287" x2="88.5861" y2="142.3886" gradientTransform="matrix(0.9982 5.980000e-02 5.980000e-02 -0.9982 -19.2499 148.7903)">
		<stop  offset="0" style="stop-color:#5C4037"/>
		<stop  offset="0.1584" style="stop-color:#63463D"/>
		<stop  offset="0.5335" style="stop-color:#6D5047"/>
		<stop  offset="1" style="stop-color:#70534A"/>
	</linearGradient>
	<path class="st17" d="M76.9,32.2c-0.2,0-0.3,0-0.5,0c-3.8-0.2-7.8-3.5-7.4-10c0.4-6.5,4.5-10.4,8.3-10.4c0.1,0,0.2,0,0.3,0
		c2,0.1,4,1.3,5.3,3.3c1.5,2.1,2.2,5,2,8C84.6,29.4,80.7,32.2,76.9,32.2z"/>
	<path class="st18" d="M77.4,12.1c0.1,0,0.2,0,0.3,0c4.7,0.3,7.3,6,7,11.1c-0.4,6.1-4.2,8.8-7.8,8.8c-0.2,0-0.3,0-0.4,0
		c-5.3-0.3-7.4-5.2-7.1-9.7C69.8,15.9,73.7,12.1,77.4,12.1 M77.4,11.5c-4.2,0-8.2,4.3-8.6,10.7c-0.4,6.6,3.5,10.1,7.7,10.3
		c0.2,0,0.3,0,0.5,0c4,0,8-3,8.4-9.3c0.4-6.6-3.3-11.4-7.6-11.7C77.6,11.5,77.5,11.5,77.4,11.5z"/>
	<g>
		<path class="st19" d="M71.2,20.9c0,0,0,0,0.1-0.1c0,0,0,0,0.1-0.1c0,0,0.1,0,0.1-0.1s0.1-0.1,0.1-0.1s0.1,0,0.1-0.1s0.1,0,0.1-0.1
			c0.1,0,0.1,0,0.2-0.1c0.1,0,0.1,0,0.2-0.1l0.2-0.1c0.1,0,0.3-0.1,0.4-0.1c0.1,0,0.3,0,0.4,0c0.1,0,0.3,0,0.4,0.1
			c0.1,0,0.3,0.1,0.4,0.1c0.1,0,0.1,0,0.2,0.1c0.1,0,0.1,0,0.2,0.1s0.1,0.1,0.1,0.1s0.1,0.1,0.1,0.1s0.1,0.1,0.1,0.1l0.2,0.2
			c0,0,0,0,0.1,0.1c0.1,0.1,0.1,0.1,0.1,0.1c0.1,0.2,0.1,0.4-0.1,0.5c-0.1,0.1-0.2,0.1-0.4,0l-0.1,0c0,0-0.1,0-0.1-0.1l-0.1,0
			c0,0-0.1,0-0.1,0c-0.1,0-0.1,0-0.2-0.1c0,0-0.1,0-0.1,0c0,0-0.1,0-0.1,0c0,0,0,0-0.1,0c0,0,0,0-0.1,0c0,0-0.1,0-0.1,0
			c-0.1,0-0.2,0-0.2,0c-0.1,0-0.2,0-0.3,0c-0.1,0-0.2,0-0.3,0c-0.1,0-0.2,0-0.3,0c0,0-0.1,0-0.1,0c0,0,0,0-0.1,0c0,0,0,0-0.1,0
			c0,0-0.1,0-0.1,0c0,0-0.1,0-0.1,0s-0.1,0-0.1,0c0,0-0.1,0-0.1,0s-0.1,0-0.1,0s-0.1,0-0.1,0c-0.1,0-0.2,0.1-0.2,0.1
			c-0.2,0.1-0.4,0-0.5-0.3C71.1,21.1,71.1,21,71.2,20.9z"/>
		
			<ellipse transform="matrix(5.980062e-02 -0.9982 0.9982 5.980062e-02 45.6283 94.455)" class="st19" cx="73" cy="23" rx="1.3" ry="1.2"/>
		<path class="st19" d="M82.5,22.2c0,0-0.1,0-0.1-0.1c0,0-0.1,0-0.1,0s0,0-0.1,0c0,0-0.1,0-0.1,0c0,0-0.1,0-0.1,0s-0.1,0-0.1,0
			c0,0-0.1,0-0.1,0c0,0,0,0-0.1,0c0,0,0,0-0.1,0c0,0-0.1,0-0.1,0c-0.1,0-0.2,0-0.2,0c-0.1,0-0.2,0-0.3,0c-0.1,0-0.2,0-0.3,0
			c-0.1,0-0.2,0-0.3,0c0,0-0.1,0-0.1,0c0,0,0,0-0.1,0c0,0,0,0-0.1,0c0,0-0.1,0-0.1,0c0,0-0.1,0-0.1,0c-0.1,0-0.1,0-0.2,0
			c0,0-0.1,0-0.1,0c0,0,0,0-0.1,0c-0.1,0-0.1,0-0.1,0l-0.1,0c-0.2,0.1-0.4-0.1-0.5-0.3c0-0.1,0-0.3,0.1-0.4c0,0,0,0,0.1-0.1l0.1-0.1
			c0,0,0.1,0,0.1-0.1c0,0,0.1,0,0.1-0.1c0,0,0.1,0,0.1-0.1s0.1,0,0.1-0.1c0.1,0,0.1,0,0.2-0.1c0.1,0,0.1,0,0.2-0.1l0.2-0.1
			c0.1,0,0.3-0.1,0.4-0.1c0.1,0,0.3,0,0.4,0c0.1,0,0.3,0,0.4,0.1c0.1,0,0.3,0.1,0.4,0.1c0.1,0,0.1,0,0.2,0.1c0.1,0,0.1,0,0.2,0.1
			s0.1,0.1,0.1,0.1s0.1,0.1,0.1,0.1s0.1,0.1,0.1,0.1c0,0,0.1,0.1,0.1,0.1l0.1,0.1c0,0,0,0,0.1,0.1c0.1,0.1,0.1,0.1,0.1,0.1
			c0.1,0.2,0.1,0.4-0.1,0.5C82.8,22.2,82.7,22.2,82.5,22.2z"/>
		
			<ellipse transform="matrix(5.980062e-02 -0.9982 0.9982 5.980062e-02 52.7722 103.0095)" class="st19" cx="81.1" cy="23.5" rx="1.3" ry="1.2"/>
	</g>
	<path class="st20" d="M77.8,25.6C77.8,25.6,77.8,25.6,77.8,25.6L76,25.5c0,0-0.1,0-0.1,0c-0.2,0-0.3,0.2-0.2,0.4
		c0.1,0.2,0.4,0.7,1.1,0.7s1.1-0.4,1.2-0.6C78.1,25.8,78,25.7,77.8,25.6z"/>
	<path class="st19" d="M78.8,27.6c-0.8,0.4-3.4,0.3-4.2-0.3c-0.4-0.3-0.9,0.1-0.8,0.5c0.2,0.4,1.5,1.4,2.7,1.5
		c1.2,0.1,2.7-0.8,2.9-1.2C79.7,27.8,79.3,27.4,78.8,27.6z"/>
	
		<radialGradient id="SVGID_12_" cx="88.6491" cy="144.5544" r="12.072" gradientTransform="matrix(0.9982 5.980000e-02 5.980000e-02 -0.9982 -19.2499 148.7903)" gradientUnits="userSpaceOnUse">
		<stop  offset="0" style="stop-color:#444140"/>
		<stop  offset="1" style="stop-color:#232020"/>
	</radialGradient>
	<path class="st21" d="M77.8,9.7C77.8,9.7,77.8,9.7,77.8,9.7c-11.2-0.6-9.7,12.3-9.7,12.3s1.1,2.3,1.1,2.3c0.1-1.8,1-4.9,1.6-6.2
		c0.3-0.7,1-1,1.7-0.9c1.1,0.3,2.8,0.6,4.8,0.7h0h0c1.9,0.1,3.7,0,4.8-0.2c0.7-0.1,1.4,0.4,1.6,1c0.4,1.4,0.9,4.6,0.8,6.4
		c0,0,1.4-2.1,1.4-2.1S89,10.5,77.8,9.7L77.8,9.7z"/>
	<path class="st22" d="M77.8,9.7C77.8,9.7,77.8,9.7,77.8,9.7c-11.2-0.6-9.7,12.3-9.7,12.3s1.1,2.3,1.1,2.3c0-0.4,0.1-0.8,0.1-1.2
		c0-0.1-0.5-1.2-0.5-1.2c0-0.4-0.1-1.7,0.1-3.4c0.2-1.7,0.8-4.1,2.4-5.9c1.5-1.6,3.7-2.3,6.5-2.2h0c2.8,0.2,4.9,1.2,6.2,2.9
		c2.5,3.4,1.5,8.6,1.3,9.4c0,0-0.7,1.1-0.7,1.1c0,0.5,0,0.9,0,1.3c0,0,1.4-2.1,1.4-2.1S89,10.5,77.8,9.7z"/>
	<path class="st1" d="M65.8,32.2c1.9-1,1.7-0.7,1.7-0.7l2,4.1c0,0-1.7-1-2.8-2.6c-0.6-1-2.2,0.4-2.2,0.4S64.9,32.7,65.8,32.2z"/>
</g>
<g>
	<path class="st23" d="M76.1,36.5l-4.2-0.2c0,0-1.7-0.2-2.5-1.3c-2.2-3.1-2.3-10.9-2-16.8c0-0.9,0.6-8.3,9.4-8.3c0.2,0,0.5,0,0.7,0
		c3,0.1,5.3,1,6.9,2.7c2.4,2.5,2.3,6.1,2.3,6.4C86.4,25,85.5,32.7,83,35.6c-0.9,1.1-2.6,1.1-2.7,1.1L76.1,36.5L76.1,36.5z"/>
	<path class="st22" d="M76.8,10.3c0.2,0,0.5,0,0.7,0c2.9,0.1,5.2,1,6.7,2.6c2.4,2.5,2.2,5.9,2.2,6.3c-0.4,8.4-1.7,14.2-3.7,16.5
		c-0.8,1-2.4,1-2.4,1l-4.2-0.2L72,36.3c0,0-1.6-0.2-2.3-1.2c-1.7-2.4-2.4-8.4-1.9-16.8C67.8,17.5,68.3,10.3,76.8,10.3 M76.8,9.7
		c-9.4,0-9.7,8.5-9.7,8.6c-0.3,5.7-0.3,13.8,2,17.1c0.9,1.3,2.8,1.5,2.8,1.5l4.2,0.2l4.2,0.2c0.1,0,1.9,0,2.9-1.2
		c2.6-3.1,3.5-11.1,3.8-16.8c0-0.1,0.7-9-9.4-9.5C77.3,9.7,77.1,9.7,76.8,9.7z"/>
	
		<linearGradient id="SVGID_13_" gradientUnits="userSpaceOnUse" x1="129.0322" y1="155.2713" x2="129.0322" y2="150.7613" gradientTransform="matrix(0.9003 7.050000e-02 9.150000e-02 -1.1676 -54.2362 203.9641)">
		<stop  offset="3.247800e-03" style="stop-color:#BD161D"/>
		<stop  offset="0.1899" style="stop-color:#D21920"/>
		<stop  offset="0.3994" style="stop-color:#E11B22"/>
		<stop  offset="0.6432" style="stop-color:#EA1C24"/>
		<stop  offset="1" style="stop-color:#ED1C24"/>
	</linearGradient>
	<path class="st24" d="M77.9,37.3c-0.3,0-0.6,0-1,0c-8.2-0.6-9.2-4.2-9.3-5.3c1.7-0.6,2.8-0.9,5.1-0.9c1.1,0,2.5,0.1,4.3,0.3
		c4.5,0.5,6.8,2,7.6,2.5C84,34.8,82.4,37.3,77.9,37.3z"/>
	<path class="st1" d="M72.7,31.5c1.1,0,2.5,0.1,4.2,0.3c3.8,0.5,6,1.6,6.9,2.2c-0.6,1-2.2,2.7-5.9,2.7c-0.3,0-0.6,0-0.9,0
		c-7-0.5-8.5-3.2-8.8-4.4C69.6,31.8,70.7,31.5,72.7,31.5 M72.7,30.5c-2.5,0-3.7,0.5-5.6,1.1c0,0-0.4,5.4,9.8,6.2c0.3,0,0.7,0,1,0
		c5.9,0,7.2-4.1,7.2-4.1s-2.3-2.2-8.1-2.9C75.2,30.6,73.8,30.5,72.7,30.5z"/>
	<path class="st14" d="M76.5,35.5l-0.5,0c-0.6,0-1.1-0.3-1.5-0.7c-0.4-0.4-0.6-0.9-0.5-1.5l0.2-2.6l4.8,0.3l-0.2,2.6
		c-0.1,1.1-1,1.9-2.2,1.9C76.7,35.6,76.6,35.6,76.5,35.5z"/>
	<path class="st15" d="M74.5,31.1l4.2,0.3l-0.2,2.3c-0.1,0.9-0.9,1.6-1.8,1.6h-0.1l-0.5,0c-1-0.1-1.8-0.9-1.8-1.9L74.5,31.1
		 M73.9,30.5l-0.2,2.9c-0.1,1.3,0.9,2.4,2.3,2.5l0.5,0c0.1,0,0.1,0,0.2,0c1.3,0,2.4-1,2.4-2.2l0.2-2.9L73.9,30.5z"/>
	<g>
		<defs>
			<path id="SVGID_14_" d="M76.6,30.6l-2.7-0.2l-0.2,2.9c-0.1,1.3,0.9,2.4,2.3,2.5l0.5,0c1.4,0.1,2.5-0.9,2.6-2.2l0.2-2.9L76.6,30.6
				z"/>
		</defs>
		<clipPath id="SVGID_15_">
			<use xlink:href="#SVGID_14_"  style="overflow:visible;"/>
		</clipPath>
		<g class="st25">
			<path d="M76.4,33.2c-2-0.1-2.7-0.7-2.7-0.7l-0.2,2.9c-0.1,1.3,0.9,2.4,2.3,2.5l0.5,0c1.4,0.1,2.5-0.9,2.6-2.2l0.2-2.9
				C79.2,32.9,78.4,33.4,76.4,33.2z"/>
		</g>
	</g>
	<path class="st1" d="M65.8,32.2c1.9-1,1.7-0.7,1.7-0.7l2,4.1c0,0-1.7-1-2.8-2.6c-0.6-1-2.2,0.4-2.2,0.4S64.9,32.7,65.8,32.2z"/>
	
		<linearGradient id="SVGID_16_" gradientUnits="userSpaceOnUse" x1="90.4285" y1="114.8644" x2="90.4285" y2="133.9654" gradientTransform="matrix(0.9983 5.770000e-02 5.770000e-02 -0.9983 -20.4081 141.6051)">
		<stop  offset="0" style="stop-color:#5C4037"/>
		<stop  offset="0.1584" style="stop-color:#63463D"/>
		<stop  offset="0.5335" style="stop-color:#6D5047"/>
		<stop  offset="1" style="stop-color:#70534A"/>
	</linearGradient>
	<path class="st26" d="M76.5,32.3c-0.6,0-1.2-0.2-1.8-0.5c-2.8-1.2-5.9-4.4-5.6-9.8c0.4-6.8,4.6-9.2,8.1-9.2c0.2,0,0.3,0,0.5,0
		c2.2,0.1,4.1,1.1,5.4,2.7c1.5,1.8,2.2,4.4,2,7.4c-0.3,5.4-3.8,8.2-6.7,9.1c-0.6,0.2-1.1,0.3-1.6,0.3C76.7,32.3,76.6,32.3,76.5,32.3
		z"/>
	<path class="st18" d="M77.1,13.2c0.2,0,0.3,0,0.5,0c3.5,0.2,7.5,2.9,7.1,9.8c-0.3,5.2-3.7,8-6.4,8.8c-0.6,0.2-1.1,0.2-1.6,0.2
		c-0.1,0-0.2,0-0.2,0c-0.5,0-1.1-0.2-1.8-0.4c-2.7-1.1-5.7-4.3-5.4-9.5C69.6,18,71.8,13.2,77.1,13.2 M77.1,12.6c-4.1,0-8,3-8.3,9.5
		c-0.3,5.4,2.9,8.9,5.7,10.1c0.7,0.3,1.3,0.5,1.9,0.5c0.1,0,0.2,0,0.3,0c0.5,0,1.1-0.1,1.7-0.3c3-0.9,6.6-3.9,6.9-9.3
		c0.4-6.8-3.4-10.2-7.7-10.4C77.5,12.6,77.3,12.6,77.1,12.6z"/>
	<path class="st20" d="M77.8,25.6C77.8,25.6,77.8,25.6,77.8,25.6L76,25.5c0,0-0.1,0-0.1,0c-0.2,0-0.3,0.2-0.2,0.4
		c0.1,0.2,0.4,0.7,1.1,0.7s1.1-0.4,1.2-0.6C78.1,25.8,78,25.7,77.8,25.6z"/>
	<g>
		
			<ellipse transform="matrix(5.770196e-02 -0.9983 0.9983 5.770196e-02 45.7425 94.5264)" class="st19" cx="72.9" cy="23" rx="1.3" ry="1.2"/>
		
			<ellipse transform="matrix(5.770196e-02 -0.9983 0.9983 5.770196e-02 52.9126 103.0667)" class="st19" cx="81.1" cy="23.5" rx="1.3" ry="1.2"/>
		<path class="st19" d="M74.9,20.9c-0.2-0.3-0.7-0.8-1.8-0.9s-1.6,0.4-1.8,0.6c-0.1,0.1-0.1,0.3,0,0.4c0.1,0.1,0.3,0.2,0.5,0.1
			s0.7-0.3,1.3-0.2c0.7,0,1.1,0.3,1.3,0.4c0.2,0.1,0.4,0,0.5-0.1C74.9,21.2,75,21,74.9,20.9z"/>
		<path class="st19" d="M83,21.3c-0.2-0.3-0.7-0.8-1.8-0.9s-1.6,0.4-1.8,0.6c-0.1,0.1-0.1,0.3,0,0.4c0.1,0.1,0.3,0.2,0.5,0.1
			s0.7-0.3,1.3-0.2c0.7,0,1.1,0.3,1.3,0.4c0.2,0.1,0.4,0,0.5-0.1C83.1,21.6,83.1,21.5,83,21.3z"/>
	</g>
	<path class="st19" d="M78.8,27.7c-0.8,0.4-3.4,0.3-4.2-0.2c-0.4-0.3-0.9,0.1-0.8,0.5c0.2,0.4,1.5,1.4,2.7,1.5
		c1.2,0.1,2.7-0.8,2.9-1.2C79.7,27.9,79.3,27.5,78.8,27.7z"/>
	<g>
		<defs>
			<path id="SVGID_17_" d="M68.2,30.2l0-12.8c0.2-4.2,3.7-7.1,8.9-7.1l1.3,0.1c4.4,0,8.2,3.9,7.9,8.1L85,31.2L68.2,30.2z"/>
		</defs>
		<clipPath id="SVGID_18_">
			<use xlink:href="#SVGID_17_"  style="overflow:visible;"/>
		</clipPath>
		<g class="st27">
			
				<radialGradient id="SVGID_19_" cx="345.4524" cy="103.6081" r="12.0502" gradientTransform="matrix(0.7947 4.600000e-02 4.600000e-02 -0.7947 -201.4403 74.9032)" gradientUnits="userSpaceOnUse">
				<stop  offset="0" style="stop-color:#444140"/>
				<stop  offset="1" style="stop-color:#232020"/>
			</radialGradient>
			<path class="st28" d="M86.7,19.7c0,0,0.8-8.9-8.9-9.4s-10,8.3-10,8.3S67.2,30,67.8,31.5s1.7,1.5,1.7,1.5s-0.1-6.6,0-9.8
				c0-0.7,0-3.4,1.5-3.7c5.7-0.9,9-3.7,9-3.7c0.7,1.8,3.2,3.7,4.1,4.5c0.7,0.6,0.5,2.8,0.4,3.8l-1.3,9.7c0,0,1.2,0.2,2-1.3
				C86,31.1,86.7,19.7,86.7,19.7z"/>
		</g>
	</g>
</g>
</svg>
